<svg xmlns="http://www.w3.org/2000/svg" viewBox="0 0 64 64"><defs/><g data-name="Curriculum Vitae-Resume-PortFolio-Application-Paper"><path fill="#e6e7e8" d="M54 11v46a4 4 0 01-4 4H14a4 4 0 01-4-4V7a4 4 0 014-4h32v6a2 2 0 002 2z"/><path fill="#bcbec0" d="M54 11h-6a2 2 0 01-2-2V3z"/><path fill="#d8d7da" d="M44 49V19h8v36h-8v-6z"/><path fill="#ff9811" d="M42 47V17h8v36h-8v-6z"/><path fill="#d8d7da" d="M40 39v2H16v-2a6 6 0 014-6l2-1 3-1v-3a7 7 0 01-4-5h-1a2 2 0 010-4h1v-3a7 7 0 1114 0v3h1a2 2 0 010 4h-1a7 7 0 01-4 5v3l3 1 2 1a6 6 0 014 6z"/><path fill="#3d9ae2" d="M38 37v2h-9l-2-6 1-1 3 1 1-3 2 1a6 6 0 014 6z"/><path fill="#57565c" d="M33 14v2h-1a3 3 0 01-3-2v-2a4 4 0 01-4 4h-6v-2a7 7 0 1114 0z"/><path fill="#1e81ce" d="M32 30l-1 3-3-1-1-2 2-1 3 1z"/><path fill="#ed1c24" d="M27 33l2 6h-6l2-6 1 1 1-1z"/><path fill="#ed1c24" d="M27 30l1 2-1 1-1 1-1-1-1-1 1-2h2z"/><path fill="#1e81ce" d="M25 30l-1 2-3 1-1-3 3-1 2 1z"/><path fill="#3d9ae2" d="M25 33l-2 6h-9v-2a6 6 0 014-6l2-1 1 3 3-1z"/><path fill="#ffb655" d="M36 19a2 2 0 01-2 2h-2v-4h2a2 2 0 012 2zm-16-2v4h-2a2 2 0 010-4z"/><path fill="#ffc477" d="M29 26v3l-2 1h-2l-2-1v-3h6z"/><path fill="#ffb655" d="M29 26v2a7 7 0 01-6 0v-2z"/><path fill="#ffc477" d="M32 16a3 3 0 01-3-2v-2a4 4 0 01-4 4h-6v4a7 7 0 0014 0v-4z"/><path fill="#ee8700" d="M42 34h5v2h-5zM42 46h5v2h-5zM42 38h3v2h-3zM42 42h3v2h-3zM42 22h5v2h-5zM42 30h3v2h-3zM42 26h3v2h-3zM22 18h2v2h-2zM28 18h2v2h-2z"/><path fill="#bcbec0" d="M16 44h4v2h-4zM22 44h14v2H22zM16 48h20v2H16zM16 52h8v2h-8zM26 52h10v2H26z"/></g></svg>