<?xml version="1.0" encoding="UTF-8" standalone="no"?><svg width="256px" height="326px" viewBox="0 0 256 326" version="1.1" xmlns="http://www.w3.org/2000/svg" xmlns:xlink="http://www.w3.org/1999/xlink" preserveAspectRatio="xMidYMid"><g fill="#2BA977"><path d="M115 0h53v244c-27 5-47 7-69 7-65 0-99-29-99-85 0-53 36-88 92-88 8 0 15 0 23 2V0zm2 124c-7-2-12-2-18-2-27 0-43 16-43 45 0 28 15 43 42 43l19-1v-85z"/><path d="M255 84v123c0 42-3 62-12 79s-20 28-44 39l-49-23c23-11 35-20 42-35 8-15 10-33 10-79V84h53z"/><path d="M197 0h53v54h-53V0z"/></g></svg>