<svg xmlns="http://www.w3.org/2000/svg" xmlns:xlink="http://www.w3.org/1999/xlink" viewBox="0 0 1920 1080"><defs/><defs><path id="G" d="M836.4 639.4h30.9v30.9h-30.9z"/><path id="F" d="M798.8 639.4h30.9v30.9h-30.9z"/><path id="E" d="M761.2 639.4h30.9v30.9h-30.9z"/><path id="D" d="M679.3 639.4h30.9v30.9h-30.9z"/><path id="C" d="M567.4 639.4h30.9v30.9h-30.9z"/><path id="B" d="M642 639.4h30.9v30.9H642z"/><path id="A" d="M604.7 639.4h30.9v30.9h-30.9z"/><path id="z" d="M530.1 639.4H561v30.9h-30.9z"/><path id="y" d="M492.8 639.4h30.9v30.9h-30.9z"/><path id="x" d="M455.5 639.4h30.9v30.9h-30.9z"/><path id="w" d="M418.2 639.4h30.9v30.9h-30.9z"/><path id="s" fill="red" d="M925.3 813.7v-5H915v-10.4h-10v-10.2h-10v-10h-10.1v-30.6H895v-10.3h19.8v10.3H925v10h11v-10h10.3v-10.1H966v10.1h10v30.6h-10v9.9h-10.1v10.3h-10v10.3h-10.4v10.2h-10.2z"/><path id="r" d="M-915.1 726.9h20.5v10.3h-20.5z"/><path id="q" d="M-925.6 737.1h10.8v10.3h-10.8z"/><path id="p" d="M-894.9 737.1h10.8v10.3h-10.8z"/><path id="o" d="M-884.7 747.4h10.8v31.2h-10.8z"/><path id="n" d="M-894.9 778.1h10.8v10.3h-10.8z"/><path id="m" d="M-904.9 788.1h10.8v10.3h-10.8z"/><path id="l" d="M-914.9 798.4h10.8v10.3h-10.8z"/><path id="k" d="M-925.3 808.6h10.8v10.3h-10.8z"/><path id="j" d="M945.6 727h20.5v10.3h-20.5z"/><path id="i" d="M925 747.1h10.8v10.3H925z"/><path id="h" d="M935.3 737.1h10.8v10.3h-10.8z"/><path id="g" d="M966 737.1h10.8v10.3H966z"/><path id="f" d="M976.1 747.3h10.8v31.3h-10.8z"/><path id="e" d="M966 778.1h10.8v10.3H966z"/><path id="d" d="M956 787.9h10.8v10.3H956z"/><path id="c" d="M946 798.4h10.8v10.3H946z"/><path id="b" d="M935.6 808.6h10.8v10.3h-10.8z"/><path id="a" d="M925 818.8h10.8v10.3H925z"/><path id="u" fill="#514ca0" d="M1333.8 490l55.5 15.6c10.2 2.9 18.4 12.3 18.4 21l-.1 34.4c0 8.8-8.3 13.6-18.5 10.7l-55.5-15.5c-10.3-3-18.5-12.3-18.4-21.1v-34.3c0-8.8 8.3-13.6 18.6-10.8z"/><path id="t" fill="#44388a" d="M1341.5 483l62.9 18.4c10.2 3 14 11.1 14 14.2l-.1 45.3c.8 8.6-17 13.2-27.3 10.5l-57.5-15.2c-10.2-2.7-18.6-12.3-18.4-21l1-37.7c.2-8.8 15.2-17.6 25.4-14.6z"/><linearGradient id="v" x1="1664.7" x2="1913" y1="803.8" y2="1092.4" gradientUnits="userSpaceOnUse"><stop offset="0" stop-color="#fff" stop-opacity=".1"/><stop offset="1" stop-color="#fff" stop-opacity=".2"/></linearGradient></defs><g stroke-width="0"><path fill="#1a034b" stroke="#000" d="M1402.2 5l686 .3-.1 1085.9-246.2-.8-162.8-92.3s-282.5-149.5-183.7-244c-1.7-7.6 236-117-35-60.4-281.2 82-206.5-260.2-161.5-325 124.2-131.7 13.5-53 65.5-100.3 180-152-43-64.7-43-64.7s-112.8 21.2-14.1-98.6z"/><ellipse cx="1643.5" cy="997" fill="#1a034b" stroke="#000" stroke-linecap="round" stroke-linejoin="round" rx="11.4" ry="11.2"/><ellipse cx="1543.6" cy="695" fill="#1a034b" stroke="#000" stroke-linecap="round" stroke-linejoin="round" rx="11.4" ry="11.2"/><ellipse cx="1700.3" cy="1040.5" fill="#1a034b" stroke="#000" stroke-linecap="round" stroke-linejoin="round" rx="6" ry="5.9"/><ellipse cx="1330.2" cy="231" fill="#1a034b" stroke="#000" stroke-linecap="round" stroke-linejoin="round" rx="6" ry="5.9"/><ellipse cx="1566.2" cy="681.9" fill="#1a034b" stroke="#000" stroke-linecap="round" stroke-linejoin="round" rx="6" ry="5.9"/><ellipse cx="1325.6" cy="297.3" fill="#1a034b" stroke="#000" stroke-linecap="round" stroke-linejoin="round" rx="11.4" ry="11.2"/><ellipse cx="1280.4" cy="104.8" fill="#1a034b" stroke="#000" stroke-linecap="round" stroke-linejoin="round" rx="6" ry="5.9"/><ellipse cx="1512.4" cy="918.6" fill="#1a034b" stroke="#000" stroke-linecap="round" stroke-linejoin="round" rx="4.5" ry="4.4"/><ellipse cx="1477.5" cy="842.5" fill="#1a034b" stroke="#000" stroke-linecap="round" stroke-linejoin="round" rx="6" ry="5.9"/><g stroke-linecap="round" stroke-linejoin="round"><path fill="#ff0" stroke="navy" d="M1491 171a44.3 44.3 0 01-48.2 26.6 44.3 44.3 0 01-37-40.9 44.3 44.3 0 0131.4-45.3 44.3 44.3 0 0151.2 20.1l-38.3 22.3z" transform="matrix(1 .31531 -.569 .80456 433.9 -159.5)"/><g fill="#fff" stroke="#ff0" transform="matrix(1 .31531 -.569 .80456 433.9 -159.5)"><circle cx="1572.6" cy="155.1" r="12.4"/><circle cx="1613.7" cy="155.1" r="12.4"/><circle cx="1654.8" cy="155.1" r="12.4"/><circle cx="1695.9" cy="155.1" r="12.4"/><circle cx="1695.9" cy="195.9" r="12.4"/><circle cx="1695.9" cy="236.6" r="12.4"/><circle cx="1695.9" cy="277.3" r="12.4"/><circle cx="1531.6" cy="155.1" r="12.4"/></g></g><g stroke="#ff0" stroke-linecap="round" stroke-linejoin="round" transform="matrix(.68353 .2516 0 .67257 1198.4 -662.5)"><use xlink:href="#a"/><use xlink:href="#b"/><use xlink:href="#c"/><use xlink:href="#d"/><use xlink:href="#e"/><use xlink:href="#f"/><use xlink:href="#g"/><use xlink:href="#h"/><use xlink:href="#i"/><use xlink:href="#j"/><g transform="scale(-1 1)"><use xlink:href="#k"/><use xlink:href="#l"/><use xlink:href="#m"/><use xlink:href="#n"/><use xlink:href="#o"/><use xlink:href="#p"/><use xlink:href="#q"/><use xlink:href="#r"/></g><use xlink:href="#s"/></g><ellipse cx="1514.6" cy="52.8" fill="#6dd4f1" stroke="#000" stroke-linecap="round" stroke-linejoin="round" rx="11.4" ry="11.2"/><ellipse cx="1346.2" cy="394.8" fill="#e5afa8" stroke="#000" stroke-linecap="round" stroke-linejoin="round" rx="6" ry="5.9"/><ellipse cx="1415.9" cy="61.6" fill="#f669d1" stroke="#000" stroke-linecap="round" stroke-linejoin="round" rx="6" ry="5.9"/><path fill="#ff0" stroke="#ff0" stroke-linecap="round" stroke-linejoin="round" d="M1210.7 445.3l66 18.2c10.2 2.9 18.7 12.3 18.3 21.1l-1.2 33.8c-.3 8.8 2 26.1-22.9 19l-63.2-18.3c-10.2-2.9-18.5-12.2-18.4-21l.7-37.6c.2-8.9 10.5-18 20.7-15.2z" transform="matrix(1 0 0 .98397 168.2 16.5)"/><path fill="#fc0" stroke="#ff0" stroke-linecap="round" stroke-linejoin="round" d="M1207.4 454.6l55.5 15.6c10.2 2.8 18.4 12.3 18.4 21l-.1 34.3c0 8.9-8.3 13.7-18.5 10.8l-55.5-15.6c-10.2-2.8-18.4-12.2-18.4-21v-34.3c.1-8.8 8.4-13.6 18.6-10.8z" transform="matrix(1 0 0 .98397 168.2 16.5)"/><text x="1069.4" y="193.9" fill="#fff" font-family="Microsoft Sans Serif" font-size="64.1" font-weight="400" transform="matrix(1.13622 .31335 -.0026 .8653 168.2 16.5)"><tspan x="1069.4" y="193.9">?</tspan></text><g stroke="#ff0" stroke-linecap="round" stroke-linejoin="round" transform="matrix(1 0 0 .98397 168.2 16.5)"><use xlink:href="#t"/><use xlink:href="#u"/></g><path fill="#ff0" stroke="#ff0" stroke-linecap="round" stroke-linejoin="round" d="M1640.2-25.7c0 18-16 33-39.4 33s-42.2-12.3-42.2-30.4 19-32.8 42.4-32.8c23.5 0 39.2 12 39.2 30.2" transform="matrix(.96014 .27952 -.00284 1 0 0)"/><ellipse cx="1588.4" cy="3.4" fill="#fc0" stroke="#ff0" stroke-linecap="round" stroke-linejoin="round" rx="38.1" ry="28" transform="matrix(.96401 .26586 -.003 1 0 0)"/><text x="1320.5" y="19" fill="#fcff90" font-family="sans-serif" font-size="50.8" transform="matrix(1.14544 .31589 -.00261 .8723 0 0)"><tspan x="1320.5" y="19">$</tspan></text><path fill="#ff0" stroke="#000" stroke-linecap="round" stroke-linejoin="round" d="M1532.5 481.5c0 10.8-.7 19.3-1.5 19-.8-.1-1.4-9-1.4-19.8s.7-19.3 1.5-19c.8.2 1.4 9 1.4 19.8zM1492.6 462.1c0 15.4-.7 27.7-1.5 27.5-.8-.3-1.4-12.8-1.4-28.3 0-15.4.7-27.6 1.5-27.4s1.4 12.8 1.4 28.2zM1572.5 484.2c0 15.4-.7 27.6-1.5 27.4s-1.4-12.8-1.4-28.2c0-15.5.7-27.7 1.5-27.5s1.4 12.8 1.4 28.3z"/><ellipse cx="1250.1" cy="442.9" fill="#1a034b" stroke="#000" stroke-linecap="round" stroke-linejoin="round" rx="11.4" ry="11.2"/><g stroke="#000" stroke-linecap="round" stroke-linejoin="round"><path fill="#1a1a1a" d="M1298.4 239.6l-58.8 30.3-.8 4 143.9 79.6 62.8-32.9z" transform="matrix(1.33452 0 0 1.31312 -464 385.7)"/><path fill="#333" d="M-499.4 977.4h67.6v162.3h-67.6z" transform="matrix(-1.18254 .60857 1.17007 .63148 -464 385.7)"/><path fill="#1a1a1a" d="M1406.7 292.3l-.2 15-31.5 14 .1-15.2z" transform="matrix(1.33452 0 0 1.31312 -464 385.7)"/><path fill="#4d4d4d" d="M1488.2-492.4h105.9v15.1h-105.9z" transform="matrix(1.15503 .65774 .01188 1.31307 -464 385.7)"/><path d="M1053.5 825h272.8v168.6h-272.8z" transform="matrix(1.25311 .6848 .02032 1.16172 -198.8 -1206.9)"/><path fill="#00f" d="M1062 830.2h255.7v158H1062z" transform="matrix(1.25311 .6848 .02032 1.16172 -198.8 -1206.9)"/><path fill="#333" d="M1206 63.8l256.6 141.7 2.5 149.5-6 2.7-254.7-145.2-3.9-145.9z" transform="matrix(1.33452 0 0 1.31312 -464 385.7)"/><path d="M1385.2-606.2h293V-457h-293z" transform="matrix(1.16666 .63756 .02295 1.31292 -464 385.7)"/><path fill="#333" d="M1392-600.9h279.8v138.2H1392z" transform="matrix(1.16674 .63743 .02367 1.31291 -464 385.7)"/><g><path fill="#1a1a1a" d="M1974.9 337.6h158V887h-158z" transform="matrix(.44374 .24381 .00013 .329 269.4 -109.3)"/><path fill="#333" d="M2133.4 337.8h579.7v549.4h-579.7z" transform="matrix(.44374 .24381 .00013 .329 269.4 -109.3)"/><path fill="#fff" d="M1501.8 391.3v-9.2c0-.7 9.6-1.2 21.4-1.3l107.5-.4c11.9 0 21.5.5 21.5 1.1v9.3c0 .6-9.6 1.2-21.5 1.2l-107.5.4c-11.8 0-21.4-.4-21.4-1z" transform="matrix(.44374 .24496 .00013 .329 583.3 57.4)"/><path fill="#f55" d="M1657.7 390.7v-9.2c0-.7 15-1.2 33.5-1.3l167.7-.6c18.5-.1 33.5.4 33.5 1v9.3c0 .6-15 1.2-33.5 1.3l-167.7.6c-18.6 0-33.5-.4-33.5-1z" transform="matrix(.44374 .24496 .00013 .329 583.3 57.4)"/><path fill="#fff" d="M1501.8 410.4v-9.2c0-.7 12.6-1.3 28.3-1.3l141.8-.6c15.7 0 28.4.5 28.4 1.1v9.3c0 .6-12.7 1.2-28.4 1.3l-141.8.5c-15.7 0-28.3-.4-28.3-1.1z" transform="matrix(.44374 .24496 .00013 .329 583.3 57.4)"/><path fill="#2a7fff" d="M1705.1 409.6v-9.2a70 70 0 0118.2-1.3l90.9-.3c10 0 18.1.5 18.1 1.1v9.3a70 70 0 01-18.1 1.2l-91 .4c-10 0-18-.5-18-1.2z" transform="matrix(.44374 .24496 .00013 .329 583.3 57.4)"/><path fill="#ffd42a" d="M1501.8 429.5v-9.3c0-.6 12.6-1.2 28.3-1.3l141.8-.5c15.7 0 28.4.4 28.4 1.1v9.2c0 .7-12.7 1.3-28.4 1.3l-141.8.6c-15.7 0-28.3-.5-28.3-1.1z" transform="matrix(.44374 .24496 .00013 .329 583.3 57.4)"/><path fill="#fff" d="M1501.8 448.6v-9.3c0-.6 3.5-1.2 7.9-1.2l39.4-.1c4.4 0 7.9.5 7.9 1.1v9.3c0 .6-3.5 1.2-7.9 1.2l-39.4.1c-4.4 0-8-.5-8-1.1zM1495.5 773v-9.3c0-.7 3.5-1.2 7.8-1.2l39.5-.2c4.3 0 7.9.5 7.9 1.2v9.2c0 .7-3.6 1.2-8 1.2l-39.4.2c-4.3 0-7.8-.5-7.8-1.2zM1520.7 467.6v-9.3a45 45 0 0114.5-1.2l72.6-.3c8 0 14.5.5 14.5 1.1v9.3a45 45 0 01-14.5 1.2l-72.6.3a45 45 0 01-14.5-1.1zM1520.7 658.4V649a45 45 0 0114.5-1.2l72.6-.3c8 0 14.5.5 14.5 1.1v9.3a45 45 0 01-14.5 1.2l-72.6.3a45 45 0 01-14.5-1.1z" transform="matrix(.44374 .24496 .00013 .329 583.3 57.4)"/><path fill="#2a7fff" d="M1554 505.6v-9.2c0-.7 17.3-1.3 38.8-1.4l194.5-.7c21.6 0 38.9.4 38.9 1v9.3c0 .6-17.3 1.2-38.9 1.3l-194.5.7c-21.5.1-38.8-.3-38.8-1z" transform="matrix(.44374 .24496 .00013 .329 583.3 57.4)"/><path fill="#f55" d="M1554 524.7v-9.3c0-.6 23.4-1.2 52.5-1.3l263-1a578 578 0 0152.6 1v9.2c0 .7-23.5 1.3-52.6 1.4l-263 1a578 578 0 01-52.5-1z" transform="matrix(.44374 .24496 .00013 .329 583.3 57.4)"/><path fill="#ffd42a" d="M1554 543.8v-9.3c0-.6 3-1.2 7-1.2l35-.1c3.8 0 6.9.5 6.9 1.1v9.3c0 .6-3.1 1.2-7 1.2l-35 .1c-3.8 0-7-.5-7-1.1z" transform="matrix(.44374 .24496 .00013 .329 583.3 57.4)"/><path fill="#fff" d="M1554 582v-9.3c0-.7 10.2-1.3 23-1.3l115.2-.4c12.8 0 23 .4 23 1v9.3c0 .7-10.2 1.2-23 1.3l-115.2.4c-12.8 0-23-.4-23-1z" transform="matrix(.44374 .24496 .00013 .329 583.3 57.4)"/><path fill="#f55" d="M1554 620v-9.2c0-.6 12.1-1.2 27.2-1.3l136.6-.5c15.1 0 27.3.5 27.3 1.1v9.3c0 .6-12.2 1.2-27.3 1.3l-136.6.5c-15 0-27.2-.5-27.2-1.1z" transform="matrix(.44374 .24496 .00013 .329 583.3 57.4)"/><path fill="#2a7fff" d="M1611.3 600.8v-9.3c0-.6 12.2-1.2 27.3-1.3l136.5-.5c15 0 27.3.5 27.3 1.1v9.3c0 .6-12.2 1.2-27.3 1.3l-136.5.5c-15.1 0-27.3-.5-27.3-1.1z" transform="matrix(.44374 .24496 .00013 .329 583.3 57.4)"/><path fill="#fff" d="M1587 486.4v-9.2c0-.7 11.2-1.3 25.3-1.3l126.7-.5c14 0 25.4.4 25.4 1.1v9.2c0 .7-11.3 1.3-25.4 1.3l-126.7.5c-14 0-25.4-.4-25.4-1.1z" transform="matrix(.44374 .24496 .00013 .329 583.3 57.4)"/><path fill="#2a7fff" d="M1536.5 486.6v-9.3c0-.6 2.6-1.2 5.7-1.2h28.1c3.1 0 5.6.4 5.6 1.1v9.2c0 .7-2.5 1.2-5.6 1.3h-28.1c-3.1 0-5.7-.5-5.7-1.1z" transform="matrix(.44374 .24496 .00013 .329 583.3 57.4)"/><path fill="#fff" d="M1470.7 887.5v-9.3c0-.6 3-1.2 6.5-1.2h32.6c3.6-.1 6.5.4 6.5 1v9.3c0 .7-2.9 1.2-6.5 1.2l-32.6.2c-3.6 0-6.5-.6-6.5-1.2zM1470.7 372.4V363c0-.6 3-1.2 6.5-1.2l32.6-.1c3.6 0 6.5.5 6.5 1.2v9.2c0 .6-2.9 1.2-6.5 1.2l-32.6.1c-3.6 0-6.5-.5-6.5-1.1z" transform="matrix(.44374 .24496 .00013 .329 583.3 57.4)"/><path fill="#2a7fff" d="M1536.5 639.2V630c0-.7 2.6-1.2 5.7-1.2l28.1-.1c3.1 0 5.6.5 5.6 1.1v9.3c0 .6-2.5 1.2-5.6 1.2h-28.1c-3.1.1-5.7-.4-5.7-1z" transform="matrix(.44374 .24496 .00013 .329 583.3 57.4)"/><path fill="#fff" d="M1536.5 677.4V668c0-.6 2.6-1.2 5.7-1.2h28.1c3.1 0 5.6.4 5.6 1v9.3c0 .7-2.5 1.2-5.6 1.2l-28.1.1c-3.1 0-5.7-.5-5.7-1.1zM1536.5 753.7v-9.2c0-.7 2.6-1.2 5.7-1.3h28.1c3.1 0 5.6.4 5.6 1.1v9.2c0 .7-2.5 1.2-5.6 1.3h-28.1c-3.1 0-5.7-.4-5.7-1.1z" transform="matrix(.44374 .24496 .00013 .329 583.3 57.4)"/><path fill="#f55" d="M1588.2 677.2v-9.3a45 45 0 0114.5-1.2l72.5-.3c8 0 14.5.5 14.5 1.2v9.2a45 45 0 01-14.5 1.2l-72.5.3a45 45 0 01-14.5-1.1z" transform="matrix(.44374 .24496 .00013 .329 583.3 57.4)"/><path fill="#ffd42a" d="M1699.9 676.8v-9.3c0-.6 1.5-1.2 3.3-1.2h16.9c1.8 0 3.3.5 3.3 1.1v9.3c0 .6-1.5 1.2-3.3 1.2h-16.9c-1.8 0-3.3-.5-3.3-1.1z" transform="matrix(.44374 .24496 .00013 .329 583.3 57.4)"/><path fill="#2a7fff" d="M1554 562.8v-9.2c0-.7 4.9-1.2 11-1.2l55.2-.2c6 0 11 .5 11 1.1v9.2c0 .7-5 1.3-11 1.3l-55.2.2c-6.1 0-11-.5-11-1.2z" transform="matrix(.44374 .24496 .00013 .329 583.3 57.4)"/><path fill="#f55" d="M1639.6 562.5v-9.2c0-.7 10.5-1.3 23.5-1.3l117.5-.4c13 0 23.4.4 23.4 1v9.3c0 .7-10.4 1.2-23.4 1.3l-117.5.4c-13 0-23.5-.4-23.5-1z" transform="matrix(.44374 .24496 .00013 .329 583.3 57.4)"/><path fill="#ffd42a" d="M1554 601v-9.2c0-.7 3-1.2 7-1.3h35c3.8-.1 6.9.4 6.9 1v9.3c0 .7-3.1 1.2-7 1.2l-35 .2c-3.8 0-7-.5-7-1.2z" transform="matrix(.44374 .24496 .00013 .329 583.3 57.4)"/><path fill="#2a7fff" d="M1637.2 696v-9.2c0-.6 7.2-1.2 16.1-1.2l80.7-.3c8.9 0 16 .5 16 1.1v9.3c0 .6-7.1 1.2-16 1.2l-80.7.3c-9 0-16.1-.5-16.1-1.1z" transform="matrix(.44374 .24496 .00013 .329 583.3 57.4)"/><path fill="#f55" d="M1554 734.5v-9.2c0-.7 12.1-1.2 27.2-1.3l136.6-.5c15.1 0 27.3.4 27.3 1v9.3c0 .7-12.2 1.3-27.3 1.3l-136.6.5c-15 0-27.2-.4-27.2-1z" transform="matrix(.44374 .24496 .00013 .329 583.3 57.4)"/><path fill="#2a7fff" d="M1607.6 715.3V706c0-.6 12.2-1.2 27.3-1.3l136.5-.5c15 0 27.2.5 27.2 1.1v9.3c0 .6-12.1 1.2-27.2 1.2l-136.5.6c-15.1 0-27.3-.5-27.3-1.1z" transform="matrix(.44374 .24496 .00013 .329 583.3 57.4)"/><path fill="#fff" d="M1554 715.5v-9.3c0-.6 3-1.2 7-1.2l35-.1c3.8 0 6.9.5 6.9 1.1v9.3c0 .6-3.1 1.2-7 1.2l-35 .1c-3.8 0-7-.5-7-1.1z" transform="matrix(.44374 .24496 .00013 .329 583.3 57.4)"/><path fill="#2a7fff" d="M1554 696.4v-9.2c0-.7 4.7-1.3 10.6-1.3l53.6-.2c5.9 0 10.7.5 10.7 1.2v9.2c0 .7-4.8 1.2-10.7 1.2l-53.6.2c-5.9 0-10.6-.5-10.6-1.1z" transform="matrix(.44374 .24496 .00013 .329 583.3 57.4)"/><path fill="#fff" d="M1495.5 792v-9.2c0-.7 2.3-1.2 5.3-1.2l26.6-.1c3 0 5.4.5 5.4 1.1v9.3c0 .6-2.4 1.2-5.4 1.2h-26.6c-3 0-5.3-.4-5.3-1.1zM1489.3 868.3v-9.2c0-.7 3.5-1.2 7.9-1.2l39.4-.2c4.4 0 7.9.5 7.9 1.2v9.2c0 .7-3.5 1.2-7.9 1.3l-39.4.1c-4.4 0-8-.5-8-1.2zM1538.7 791.8v-9.2c0-.7 10.6-1.2 23.8-1.3l119.2-.4c13.2 0 23.8.4 23.8 1v9.3c0 .7-10.6 1.2-23.8 1.3l-119.2.4c-13.2 0-23.8-.4-23.8-1z" transform="matrix(.44374 .24496 .00013 .329 583.3 57.4)"/><path fill="#f55" d="M1532.3 811v-9.3c0-.7 5.8-1.2 13-1.2l65-.3c7.3 0 13 .5 13 1.2v9.2c0 .7-5.7 1.2-13 1.2l-65 .3c-7.2 0-13-.5-13-1.2zM1630.3 810.6v-9.3c0-.6 10.5-1.2 23.5-1.2l117.8-.5c13 0 23.5.5 23.5 1.1v9.3c0 .6-10.5 1.2-23.5 1.2l-117.8.5c-13 0-23.5-.5-23.5-1.1z" transform="matrix(.44374 .24496 .00013 .329 583.3 57.4)"/><path fill="#ffd42a" d="M1802 810v-9.3c0-.7 3-1.2 6.7-1.2l33.4-.1c3.7 0 6.7.5 6.7 1.1v9.3c0 .6-3 1.2-6.7 1.2l-33.4.1c-3.7 0-6.6-.5-6.6-1.2z" transform="matrix(.44374 .24496 .00013 .329 583.3 57.4)"/><path fill="#2a7fff" d="M1532.3 830v-9.2c0-.7 9.3-1.2 20.8-1.3l104.2-.4a99 99 0 0120.8 1.1v9.3c0 .6-9.2 1.2-20.8 1.2l-104.2.4c-11.5 0-20.8-.4-20.8-1z" transform="matrix(.44374 .24496 .00013 .329 583.3 57.4)"/><path fill="#ffd42a" d="M1688.3 829.4v-9.2c0-.7 3-1.2 6.6-1.2l33.5-.1c3.7 0 6.6.5 6.6 1.1v9.3c0 .6-3 1.2-6.6 1.2l-33.5.1c-3.7 0-6.6-.5-6.6-1.2z" transform="matrix(.44374 .24496 .00013 .329 583.3 57.4)"/><path fill="#fff" d="M1589.2 848.9v-9.3c0-.6 12.2-1.2 27.3-1.2l136.5-.6c15 0 27.2.5 27.2 1.1v9.3c0 .6-12.1 1.2-27.2 1.3l-136.5.5c-15.1 0-27.3-.5-27.3-1.1z" transform="matrix(.44374 .24496 .00013 .329 583.3 57.4)"/><path fill="#ffd42a" d="M1531.8 849.1v-9.2c0-.7 3.1-1.2 7-1.3h35c3.8-.1 7 .4 7 1v9.3c0 .7-3.2 1.2-7 1.2l-35 .2c-3.9 0-7-.5-7-1.2z" transform="matrix(.44374 .24496 .00013 .329 583.3 57.4)"/><g fill="#fff"><path d="M1444.4 391.6v-9.3c0-.6 1.2-1.2 2.7-1.2h13.4c1.4 0 2.6.5 2.6 1.2v9.3c0 .6-1.2 1.2-2.6 1.2H1447c-1.5 0-2.7-.5-2.7-1.2zM1444.4 410.7v-9.3c0-.7 1.2-1.2 2.7-1.2h13.4c1.4 0 2.6.5 2.6 1.1v9.4c0 .6-1.2 1.2-2.6 1.2H1447c-1.5 0-2.7-.5-2.7-1.2zM1444.4 429.8v-9.3c0-.7 1.2-1.2 2.7-1.2h13.4c1.4 0 2.6.5 2.6 1.1v9.4c0 .6-1.2 1.2-2.6 1.2H1447c-1.5 0-2.7-.5-2.7-1.2zM1444.4 449v-9.4c0-.7 1.2-1.2 2.7-1.2h13.4c1.4 0 2.6.5 2.6 1.1v9.3c0 .7-1.2 1.3-2.6 1.3H1447c-1.5 0-2.7-.5-2.7-1.2zM1444.4 468v-9.3c0-.7 1.2-1.2 2.7-1.2h13.4c1.4 0 2.6.5 2.6 1.1v9.3c0 .7-1.2 1.2-2.6 1.2l-13.4.1c-1.5 0-2.7-.5-2.7-1.2zM1444.4 487.1v-9.3c0-.7 1.2-1.2 2.7-1.2h13.4c1.4 0 2.6.4 2.6 1.1v9.3c0 .7-1.2 1.2-2.6 1.2H1447c-1.5.1-2.7-.4-2.7-1.1zM1444.4 506.2v-9.3c0-.7 1.2-1.2 2.7-1.2h13.4c1.4 0 2.6.4 2.6 1.1v9.3c0 .7-1.2 1.2-2.6 1.2H1447c-1.5 0-2.7-.4-2.7-1.1zM1444.4 525.3V516c0-.7 1.2-1.2 2.7-1.2l13.4-.1c1.4 0 2.6.5 2.6 1.2v9.3c0 .7-1.2 1.2-2.6 1.2H1447c-1.5 0-2.7-.5-2.7-1.1zM1444.4 544.4V535c0-.7 1.2-1.2 2.7-1.3h13.4c1.4 0 2.6.5 2.6 1.2v9.3c0 .7-1.2 1.2-2.6 1.2H1447c-1.5 0-2.7-.5-2.7-1.1zM1444.4 563.5V554c0-.6 1.2-1.2 2.7-1.2h13.4c1.4 0 2.6.5 2.6 1.2v9.3c0 .7-1.2 1.2-2.6 1.2H1447c-1.5 0-2.7-.5-2.7-1.1zM1444.4 582.6v-9.4c0-.6 1.2-1.2 2.7-1.2h13.4c1.4 0 2.6.5 2.6 1.2v9.3c0 .7-1.2 1.2-2.6 1.2H1447c-1.5 0-2.7-.5-2.7-1.1zM1444.4 601.6v-9.3c0-.6 1.2-1.2 2.7-1.2h13.4c1.4 0 2.6.5 2.6 1.2v9.3c0 .6-1.2 1.2-2.6 1.2H1447c-1.5 0-2.7-.5-2.7-1.2zM1444.4 620.7v-9.3c0-.6 1.2-1.2 2.7-1.2h13.4c1.4 0 2.6.5 2.6 1.2v9.3c0 .6-1.2 1.2-2.6 1.2H1447c-1.5 0-2.7-.5-2.7-1.2zM1444.4 659v-9.4c0-.7 1.2-1.2 2.7-1.2h13.4c1.4 0 2.6.5 2.6 1.1v9.4c0 .6-1.2 1.2-2.6 1.2H1447c-1.5 0-2.7-.5-2.7-1.2zM1444.4 869v-9.4c0-.7 1.2-1.2 2.7-1.2h13.4c1.4 0 2.6.5 2.6 1.1v9.4c0 .6-1.2 1.2-2.6 1.2H1447c-1.5 0-2.7-.5-2.7-1.2zM1444.4 372.5v-9.3c0-.6 1.2-1.2 2.7-1.2h13.4c1.4 0 2.6.5 2.6 1.2v9.3c0 .6-1.2 1.2-2.6 1.2H1447c-1.5 0-2.7-.5-2.7-1.2zM1444.4 888v-9.3c0-.7 1.2-1.2 2.7-1.2h13.4c1.4 0 2.6.5 2.6 1.1v9.4c0 .6-1.2 1.2-2.6 1.2H1447c-1.5 0-2.7-.5-2.7-1.2zM1444.4 639.8v-9.3c0-.7 1.2-1.2 2.7-1.2h13.4c1.4 0 2.6.5 2.6 1.1v9.4c0 .6-1.2 1.2-2.6 1.2H1447c-1.5 0-2.7-.5-2.7-1.2zM1444.4 849.8v-9.3c0-.6 1.2-1.2 2.7-1.2h13.4c1.4 0 2.6.5 2.6 1.2v9.3c0 .6-1.2 1.2-2.6 1.2H1447c-1.5 0-2.7-.5-2.7-1.2zM1444.4 830.8v-9.4c0-.6 1.2-1.2 2.7-1.2h13.4c1.4 0 2.6.5 2.6 1.2v9.3c0 .6-1.2 1.2-2.6 1.2H1447c-1.5 0-2.7-.5-2.7-1.1zM1444.4 811.7v-9.4c0-.6 1.2-1.2 2.7-1.2h13.4c1.4 0 2.6.5 2.6 1.2v9.3c0 .7-1.2 1.2-2.6 1.2H1447c-1.5 0-2.7-.5-2.7-1.1zM1444.4 792.6v-9.4c0-.6 1.2-1.2 2.7-1.2h13.4c1.4 0 2.6.5 2.6 1.2v9.3c0 .7-1.2 1.2-2.6 1.2H1447c-1.5 0-2.7-.5-2.7-1.1zM1444.4 773.5v-9.3c0-.7 1.2-1.2 2.7-1.3h13.4c1.4 0 2.6.5 2.6 1.2v9.3c0 .7-1.2 1.2-2.6 1.2H1447c-1.5 0-2.7-.5-2.7-1.1zM1444.4 754.4V745c0-.7 1.2-1.2 2.7-1.2l13.4-.1c1.4 0 2.6.5 2.6 1.2v9.3c0 .7-1.2 1.2-2.6 1.2H1447c-1.5 0-2.7-.5-2.7-1.1zM1444.4 735.3V726c0-.7 1.2-1.2 2.7-1.2h13.4c1.4 0 2.6.4 2.6 1.1v9.3c0 .7-1.2 1.2-2.6 1.2H1447c-1.5 0-2.7-.4-2.7-1.1zM1444.4 716.2v-9.3c0-.7 1.2-1.2 2.7-1.2h13.4c1.4 0 2.6.4 2.6 1.1v9.3c0 .7-1.2 1.2-2.6 1.2H1447c-1.5.1-2.7-.4-2.7-1.1zM1444.4 697.1v-9.3c0-.7 1.2-1.2 2.7-1.2h13.4c1.4 0 2.6.5 2.6 1.1v9.3c0 .7-1.2 1.2-2.6 1.2l-13.4.1c-1.5 0-2.7-.5-2.7-1.2zM1444.4 678v-9.3c0-.7 1.2-1.2 2.7-1.2h13.4c1.4 0 2.6.5 2.6 1.1v9.3c0 .7-1.2 1.3-2.6 1.3H1447c-1.5 0-2.7-.5-2.7-1.2z" opacity=".6" transform="matrix(.44374 .24496 .00013 .329 583.3 57.4)"/><path d="M1307.2 433.4h19.6v16.5h-19.6zM1334 437.1h53.2v9.1H1334zM1322.4 410.2h53.2v9.1h-53.2zM1296.1 405.9h19.6v16.5h-19.6zM1315.6 382.4h39.5v9.1h-39.5zM1288.2 378.4h19.6v16.5h-19.6zM1334 464.6h67.9v9.1H1334zM1307.2 460.9h19.6v16.5h-19.6zM1334 492h53.2v9.1H1334zM1307.2 488.3h19.6v16.5h-19.6zM1322.4 520.1h87.9v9.1h-87.9zM1296.1 515.8h19.6v16.5h-19.6zM1315.6 546.6h78.5v9.1h-78.5zM1288.2 543.3h19.6v16.5h-19.6zM1315.6 574.5h53.2v9.1h-53.2zM1288.2 570.7h19.6v16.5h-19.6z" opacity=".6" transform="matrix(.44374 .24381 .00013 .329 583.3 57.4)"/></g></g></g><ellipse cx="1272.2" cy="497.8" fill="#1a034b" stroke="#000" stroke-linecap="round" stroke-linejoin="round" rx="6" ry="5.9"/><g stroke="#000"><path fill="#9091e3" d="M1676 770.3s-19.2-75.2-86.5-106.3c-60.3 41.2-77.3 90.6-77.3 90.6s37.7 62.1 117.8 69c15.2-30.2 46-53.3 46-53.3z" transform="matrix(.9958 -.0901 .09156 .97983 95.5 160.3)"/><path fill="#c2bfef" d="M431.3 637.3s15 7.6 30.3 12.8l-.2.9c-23.5-1.6-58-24.6-58.2-44.3 15 24 28 30.6 28 30.6z" transform="matrix(1.5441 -.13971 .14197 1.51933 1020 -61.9)"/><path fill="#8b85dd" d="M444.5 621.4s9 17.3 18.4 25.6l-1.1 3c-15-5-41.8-11-58.6-43.3 28.2 13.3 41.3 14.7 41.3 14.7z" transform="matrix(1.5441 -.13971 .14197 1.51933 1020 -61.9)"/><path fill="#c2bfef" d="M487 572.3s9.7 13.7 17.6 28l1.2-.7c-6.6-22.1-27.7-51.5-53.8-51 26.2 10.4 35 23.7 35 23.7z" transform="matrix(1.5441 -.13971 .14197 1.51933 1020 -61.9)"/><path fill="#8b85dd" d="M473.5 587s-13.8-29.4-22.3-38.6c23.6 3.2 49.1 33.9 53.5 51.7l-2.8 1.6C483.7 589 473.5 587 473.5 587z" transform="matrix(1.5441 -.13971 .14197 1.51933 1020 -61.9)"/><path fill="#8b85dd" d="M1667.7 802l23 22.7-2.2 2.6-28.3-15.7s6.8-5.4 7.5-9.7z" transform="matrix(.9958 -.0901 .09156 .97983 95.5 160.3)"/><path fill="#342e9a" d="M1675.1 770l4.6 1.5s-2.8 32.2-47 55.8l-3-4.2c23.7-38.1 45.4-53 45.4-53z" transform="matrix(.9958 -.0901 .09156 .97983 95.5 160.3)"/><path fill="#89e7fc" d="M1651.9 813.6s3-10.1 17.3-20c2.6 7.2-7 22.7-17.3 20z" transform="matrix(.9958 -.0901 .09156 .97983 95.5 160.3)"/><path fill="#5e60c4" d="M1607.8 757.4l43 36.8-.7 1-44.7-36z" transform="matrix(.9958 -.0901 .09156 .97983 95.5 160.3)"/><g stroke-linecap="round" stroke-linejoin="round" transform="matrix(.9958 -.0901 .09156 .97983 95.5 160.3)"><circle cx="1580.4" cy="734.5" r="35.8" fill="#7660c4"/><circle cx="1580.4" cy="734.5" r="28" fill="#15d8f6"/><circle cx="1629.4" cy="777.6" r="5.3" fill="#feda34"/><circle cx="1604.4" cy="754.1" r="1.7" fill="#13eafd"/><circle cx="1610.4" cy="729.6" r="1.7" fill="#13eafd"/><circle cx="1602.1" cy="712.3" r="1.7" fill="#13eafd"/><circle cx="1578.6" cy="702.8" r="1.7" fill="#13eafd"/><circle cx="1556.5" cy="713.3" r="1.7" fill="#13eafd"/><circle cx="1548.1" cy="738.3" r="1.7" fill="#13eafd"/><circle cx="1562.5" cy="760.6" r="1.7" fill="#13eafd"/></g><path fill="#5e60c4" d="M1553.5 711.3l-9.1-7.2-1 1 9.3 7.3z" transform="matrix(.9958 -.0901 .09156 .97983 95.5 160.3)"/><path fill="#693db0" d="M1511.4 748.5l2.4 2.4c32.4-61.7 70.2-82.8 70.2-82.8l-1.8-2.6s-40.1 16.1-70.8 83z" transform="matrix(.9958 -.0901 .09156 .97983 95.5 160.3)"/><path fill="#988adc" d="M1509.7 751.8s17.6-55 76.4-89.6c0 0-40.2-15.8-81.8 7.4-17.8 43 5.4 82.2 5.4 82.2z" transform="matrix(.9958 -.0901 .09156 .97983 95.5 160.3)"/><path fill="#e7e6f8" d="M1498.6 696.8s12-24.5 32.8-36.8c0 0-12.5 1.4-27.2 9.7-6.3 15.3-5.6 27-5.6 27z" transform="matrix(.9958 -.0901 .09156 .97983 95.5 160.3)"/><path fill="url(#v)" d="M1669.6 793.5l-16.7 20.3s171.4 185.2 169 208c.3 1 12-1.1 12-1.1s-18.4-163.3-164.3-227.2z" transform="matrix(.9958 -.0901 .09156 .97983 95.5 160.3)"/></g><g stroke="#000"><path fill="#985964" d="M-121.4 711.5l44 42.9S1 729 10.3 686.2C7.1 684-56 701.6-56 701.6l3.3-9.3z" transform="matrix(1.18309 0 0 1.16438 2054.2 135)"/><path fill="#5c254d" d="M-71.4 805.5c-5.5-.6-6-51.7-6-51.7s72-20.3 89-67C29.3 751.6-8.3 789.2-8.3 789.2s-20.4 18.7-63.2 16.3z" transform="matrix(1.18309 0 0 1.16438 2054.2 135)"/><path fill="#300f2d" d="M-77.7 754.1l-43.7-42s23.3 66.5 49.1 94c-4.3-12.2-5.4-52-5.4-52z" transform="matrix(1.18309 0 0 1.16438 2054.2 135)"/></g><g stroke="#ff0" stroke-linecap="round" stroke-linejoin="round" transform="matrix(1 0 0 .98397 293.3 53.2)"><use xlink:href="#t"/><use xlink:href="#u"/></g><g stroke="#ff0" stroke-linecap="round" stroke-linejoin="round" transform="matrix(.68353 .2516 0 .67257 1277.4 -633.4)"><use xlink:href="#a"/><use xlink:href="#b"/><use xlink:href="#c"/><use xlink:href="#d"/><use xlink:href="#e"/><use xlink:href="#f"/><use xlink:href="#g"/><use xlink:href="#h"/><use xlink:href="#i"/><use xlink:href="#j"/><g transform="scale(-1 1)"><use xlink:href="#k"/><use xlink:href="#l"/><use xlink:href="#m"/><use xlink:href="#n"/><use xlink:href="#o"/><use xlink:href="#p"/><use xlink:href="#q"/><use xlink:href="#r"/></g><use xlink:href="#s"/></g><g stroke="#ff0" stroke-linecap="round" stroke-linejoin="round" transform="matrix(.68353 .2516 0 .67257 1356.4 -604.3)"><use xlink:href="#a"/><use xlink:href="#b"/><use xlink:href="#c"/><use xlink:href="#d"/><use xlink:href="#e"/><use xlink:href="#f"/><use xlink:href="#g"/><use xlink:href="#h"/><use xlink:href="#i"/><use xlink:href="#j"/><g transform="scale(-1 1)"><use xlink:href="#k"/><use xlink:href="#l"/><use xlink:href="#m"/><use xlink:href="#n"/><use xlink:href="#o"/><use xlink:href="#p"/><use xlink:href="#q"/><use xlink:href="#r"/></g><use xlink:href="#s"/></g><path fill="#fff" d="M1657.3 304.5c149.4-30.4-.5-210.9-142-158.7 201.3-93.5 356.9 176.6 142 158.7z"/><g stroke="#000" stroke-linecap="round" stroke-linejoin="round"><g transform="matrix(.60986 .7798 -.73736 .66467 168.2 16.5)"><path fill="#a74301" d="M1064.4-883h15.9v79.9h-15.9z"/><ellipse cx="1072.3" cy="-797.4" fill="#a80" rx="11.2" ry="13.4"/><path fill="#a80" d="M1027.7-899.7h85.7v18.4h-85.7z"/></g><path fill="#cfcfcf" d="M1455 107c-22.6.2-46.3 17-48.8 18.9l-99.7 91.2 31.2 40.5 99.3-91s0 0 0 0l.3-.3c1.5-2 26.2-33 25-58.6-2.5-.5-5-.7-7.4-.6z" transform="matrix(1 0 0 .98397 168.2 16.5)"/><path fill="#989898" d="M1456.4 113.5c-22 .4-42 16.3-45.2 18.9l-.6.5s0 0 0 0l-99 90.7 21 27.5 99.2-90.8s0 0 0 0l.5-.5a99 99 0 0024.1-46.3z" transform="matrix(1 0 0 .98397 168.2 16.5)"/><path fill="#a80" d="M1040.6-909.9h59.9v18.4h-59.9zM1112.8-904.3h21.2v27.8h-21.2zM1009.5-904.3h21.2v27.8h-21.2z" transform="matrix(.60986 .7798 -.73736 .66467 168.2 16.5)"/></g><ellipse cx="1369.3" cy="231.3" fill="#1a034b" stroke="#000" stroke-linecap="round" stroke-linejoin="round" rx="6" ry="5.9"/><g transform="matrix(1 0 0 .98397 182.9 19.4)"><path fill="#b3b3b3" stroke="#000" stroke-linecap="round" stroke-linejoin="round" d="M1090.9 412l111.2 62.3a66.5 66.5 0 0129.8 54.4l-2.2 95.8c-.5 20.8-36.8 38.2-53.5 29l-109.7-60c-16.7-9.2-30-33.7-29.8-54.5l.3-95.8c.1-20.8 37.3-40.5 53.9-31.2z"/><rect width="187.2" height="162.9" x="1190.4" y="-173.3" fill="#e6e6e6" stroke="#000" stroke-linecap="round" stroke-linejoin="round" rx="34.4" ry="38.2" transform="skewY(29.5) scale(.8702 1)"/><path fill="#222c37" d="M1120.4 535.6l36.5 1.6-16.5 30.8-29.6 9.5zM1110 528l-9.5 42-17.5-43.3v-42.4zm44-4.8l-36.5-1.7-27-43.8 34 12.6zm.4 47.9l22-40-38.9-42.7-12.4-.4-9.2-15-44.6-17.1.4 55.9 9.3 14.8-3.4 14.4 22.7 56.9 38.4-13.1 3.2-14.5z"/><g fill="#fff" stroke="#000" stroke-linecap="round" stroke-linejoin="round"><path d="M536.8 385.6l20.9-21 27.6-7c15.2-4 27.6-6.6 27.6-5.8 0 .7-7 13.1-15.4 27.4L582 405.3l-33 .6-33.1.5zM583.8 478.2l-26-7-20.9-21-20.9-20.9h65.4l15.8 27.2a598 598 0 0115.8 28.2c0 1.3-.5 1.2-29.2-6.5zM616.4 445.8l-16-27.6 16-28c10.2-17.7 16.6-27 17.5-25.2a382 382 0 018.2 28l6.8 25.2-6.8 24.9c-3.7 13.6-7.4 26-8.2 27.6-1 1.8-7.2-7-17.5-24.9z" transform="matrix(.3893 .63092 -.38394 .3366 1047.7 17)"/></g></g><g stroke="#000" stroke-linecap="round" stroke-linejoin="round"><path fill="#1a1a1a" d="M1324 345.8l401.7-179 20.3 19.7-10 225.4-513.3 29.1-23.2-22.7z" transform="matrix(.6493 .3658 -.67007 .32754 431.2 215)"/><path fill="#333" d="M1252.1 255.5H1785v233.2h-532.9z" transform="matrix(.6631 .341 -.6814 .30405 431.2 215)"/><g fill="#4d4d4d"><g transform="matrix(.7482 .38478 -.76649 .34202 1264.2 350)"><use xlink:href="#w"/><use xlink:href="#x"/><use xlink:href="#y"/><use xlink:href="#z"/><use xlink:href="#A"/><use xlink:href="#B"/><use xlink:href="#C"/><use xlink:href="#D"/><use xlink:href="#E"/><use xlink:href="#F"/><use xlink:href="#G"/></g><path d="M1267.4 313.2h34.9v34.7h-34.9zM1309.4 313.2h34.9v34.7h-34.9zM1351.5 313.2h34.9v34.7h-34.9zM1393.6 313.2h34.9v34.7h-34.9zM1477.8 313.2h34.9v34.7h-34.9zM1519.9 313.2h49.8v34.7h-49.8zM1435.7 313.2h34.9v34.7h-34.9z" transform="matrix(.6631 .341 -.6814 .30405 431.2 215)"/><path d="M1099 852.8l-31.6 14.4 31 16.1L1130 869z" transform="matrix(.7482 0 0 .7362 431.2 215)"/><path d="M1654.3 313.2h34.9v34.7h-34.9zM1696.8 313.2h34.9v34.7h-34.9zM1739.2 313.2h34.9v34.7h-34.9z" transform="matrix(.6631 .341 -.6814 .30405 431.2 215)"/><g transform="matrix(.7482 .38478 -.76649 .34202 1206.5 375.6)"><use xlink:href="#w"/><use xlink:href="#x"/><use xlink:href="#y"/><use xlink:href="#z"/><use xlink:href="#A"/><use xlink:href="#B"/><use xlink:href="#C"/><use xlink:href="#D"/><use xlink:href="#E"/><use xlink:href="#F"/><use xlink:href="#G"/></g><g transform="matrix(.7482 .38478 -.76649 .34202 1177.7 388.5)"><use xlink:href="#w"/><use xlink:href="#x"/><use xlink:href="#y"/><use xlink:href="#z"/><use xlink:href="#A"/><use xlink:href="#B"/><use xlink:href="#C"/><use xlink:href="#D"/><use xlink:href="#E"/><use xlink:href="#F"/><use xlink:href="#G"/></g><path d="M1267.4 440.1h34.9v34.7h-34.9zM1309.4 440.1h34.9v34.7h-34.9z" transform="matrix(.6631 .341 -.6814 .30405 431.2 215)"/><path d="M797 807.8L765.3 822l37.4 19.6 4.6 2.4 100.8 52.7 31.6-14.4L839 829.7z" transform="matrix(.7482 0 0 .7362 431.2 215)"/><path d="M1519.9 440.1h34.9v34.7h-34.9zM1561.9 440.1h34.9v34.7h-34.9zM1654.3 440.1h34.9v34.7h-34.9zM1696.8 440.1h34.9v34.7h-34.9zM1739.2 440.1h34.9v34.7h-34.9z" transform="matrix(.6631 .341 -.6814 .30405 431.2 215)"/></g><ellipse cx="1411.3" cy="383.7" fill="#6dd4f1" rx="11.4" ry="11.2"/><ellipse cx="2042.6" cy="84.7" fill="#6dd4f1" rx="11.4" ry="11.2"/><ellipse cx="1877.4" cy="560.8" fill="#6dd4f1" rx="11.4" ry="11.2"/><ellipse cx="1877.4" cy="941" fill="#6dd4f1" rx="11.4" ry="11.2"/><ellipse cx="1499.8" cy="627.6" fill="#6dd4f1" rx="11.4" ry="11.2"/><ellipse cx="1719.6" cy="322.9" fill="#e5afa8" rx="6" ry="5.9"/><ellipse cx="1976.2" cy="247" fill="#e5afa8" rx="6" ry="5.9"/><ellipse cx="2022.1" cy="608.2" fill="#e5afa8" rx="6" ry="5.9"/><ellipse cx="1838.5" cy="669.8" fill="#e5afa8" rx="6" ry="5.9"/><ellipse cx="1611.1" cy="795" fill="#e5afa8" rx="6" ry="5.9"/><ellipse cx="1992.9" cy="811.4" fill="#e5afa8" rx="6" ry="5.9"/><ellipse cx="1828.1" cy="893.5" fill="#e5afa8" rx="6" ry="5.9"/><ellipse cx="1484.8" cy="334.6" fill="#f669d1" rx="6" ry="5.9"/><ellipse cx="1914.5" cy="287.4" fill="#f669d1" rx="6" ry="5.9"/><ellipse cx="1812.3" cy="523.5" fill="#f669d1" rx="6" ry="5.9"/><ellipse cx="1580.7" cy="845.7" fill="#f669d1" rx="6" ry="5.9"/></g></g></svg>