<svg xmlns="http://www.w3.org/2000/svg" xmlns:xlink="http://www.w3.org/1999/xlink" id="SVGRoot" version="1.1" viewBox="0 0 1920 1080"><defs><path id="rect2109" d="M836.4 639.4h30.9v30.9h-30.9z"/><path id="rect2107" d="M798.8 639.4h30.9v30.9h-30.9z"/><path id="rect2105" d="M761.2 639.4h30.9v30.9h-30.9z"/><path id="rect2103" d="M679.3 639.4h30.9v30.9h-30.9z"/><path id="rect2101" d="M567.4 639.4h30.9v30.9h-30.9z"/><path id="rect2099" d="M642 639.4h30.9v30.9H642z"/><path id="rect2097" d="M604.7 639.4h30.9v30.9h-30.9z"/><path id="rect2095" d="M530.1 639.4H561v30.9h-30.9z"/><path id="rect2093" d="M492.8 639.4h30.9v30.9h-30.9z"/><path id="rect2091" d="M455.5 639.4h30.9v30.9h-30.9z"/><path id="rect2089" d="M418.2 639.4h30.9v30.9h-30.9z"/><path id="path2448" fill="red" d="M925.3 813.7v-5H915v-10.4h-10v-10.2h-10v-10h-10.1v-30.6h10.1v-10.3h19.8v10.3h10.2v10h11v-10h10.3v-10.1H966v10.1h10v30.6h-10v9.9h-10.1v10.3h-10v10.3h-10.4v10.2h-10.2z"/><path id="rect2378" fill="#000" d="M-915.1 726.9h20.5v10.3h-20.5z"/><path id="rect2374" fill="#000" d="M-925.6 737.1h10.8v10.3h-10.8z"/><path id="rect2372" fill="#000" d="M-894.9 737.1h10.8v10.3h-10.8z"/><path id="rect2370" fill="#000" d="M-884.7 747.4h10.8v31.2h-10.8z"/><path id="rect2368" fill="#000" d="M-894.9 778.1h10.8v10.3h-10.8z"/><path id="rect2366" fill="#000" d="M-904.9 788.1h10.8v10.3h-10.8z"/><path id="rect2364" fill="#000" d="M-914.9 798.4h10.8v10.3h-10.8z"/><path id="rect2362" fill="#000" d="M-925.3 808.6h10.8v10.3h-10.8z"/><path id="rect2358" fill="#000" d="M945.6 727h20.5v10.3h-20.5z"/><path id="rect2356" fill="#000" d="M925 747.1h10.8v10.3H925z"/><path id="rect2350" fill="#000" d="M935.3 737.1h10.8v10.3h-10.8z"/><path id="rect2348" fill="#000" d="M966 737.1h10.8v10.3H966z"/><path id="rect2346" fill="#000" d="M976.1 747.3h10.8v31.3h-10.8z"/><path id="rect2344" fill="#000" d="M966 778.1h10.8v10.3H966z"/><path id="rect2342" fill="#000" d="M956 787.9h10.8v10.3H956z"/><path id="rect2340" fill="#000" d="M946 798.4h10.8v10.3H946z"/><path id="rect2338" fill="#000" d="M935.6 808.6h10.8v10.3h-10.8z"/><path id="rect2336" fill="#000" d="M925 818.8h10.8v10.3H925z"/><path id="rect2623" fill="#514ca0" d="M1333.8 490l55.5 15.6c10.2 2.9 18.4 12.3 18.4 21l-.1 34.4c0 8.8-8.3 13.6-18.5 10.7l-55.5-15.5c-10.3-3-18.5-12.3-18.4-21.1v-34.3c0-8.8 8.3-13.6 18.6-10.8z"/><path id="rect2621" fill="#44388a" d="M1341.5 483l62.9 18.4c10.2 3 14 11.1 14 14.2l-.1 45.3c.8 8.6-17 13.2-27.3 10.5l-57.5-15.2c-10.2-2.7-18.6-12.3-18.4-21l1-37.7c.2-8.8 15.2-17.6 25.4-14.6z"/></defs><defs id="defs219"><linearGradient id="linearGradient1233"><stop id="stop1229" offset="0" stop-color="#fff" stop-opacity=".1"/><stop id="stop1231" offset="1" stop-color="#fff" stop-opacity=".2"/></linearGradient><linearGradient id="a"><stop id="stop1350" offset="0" stop-color="#a3a883"/><stop id="stop1352" offset="1" stop-color="#fff"/></linearGradient><linearGradient id="b" x1="41.2" x2="41.4" y1="145.9" y2="159.4" gradientTransform="translate(994.7 -61.9) scale(6.41694)" gradientUnits="userSpaceOnUse" xlink:href="#a"/><linearGradient id="linearGradient1235" x1="466.6" x2="626.7" y1="608.8" y2="794.9" gradientTransform="matrix(1.55061 0 0 1.55061 941.2 -140.2)" gradientUnits="userSpaceOnUse" xlink:href="#linearGradient1233"/><clipPath id="clipPath1172" clipPathUnits="userSpaceOnUse"><path id="lpe_path-effect1176" fill="#000" fill-opacity="1" stroke="#000" stroke-dasharray="none" stroke-linecap="round" stroke-linejoin="round" stroke-miterlimit="4" stroke-width="1" d="M1833 551.8h348.8v223.9H1833zm147.7 99.3v202.3H2308V651.1z" class="powerclip" paint-order="fill markers stroke"/></clipPath><clipPath id="clipPath1436" clipPathUnits="userSpaceOnUse"/><path id="rect1267" d="M829.2 639.2h247.3v74.5H829.2z"/></defs><g id="layer3" display="inline"><text id="text1277" x="-997.1" y="264.9" fill="#000" fill-opacity="1" stroke="none" font-family="sans-serif" font-size="40" font-style="normal" font-weight="400" style="line-height:1.25" xml:space="preserve"/><g id="g1707" stroke-dasharray="none" stroke-miterlimit="4" stroke-width="0"><path id="path2153" fill="#1a034b" fill-opacity="1" stroke="#000" stroke-linecap="butt" stroke-linejoin="miter" stroke-opacity="1" d="M1402.2 5l686 .3-.1 1085.9-246.2-.8-162.8-92.3s-282.5-149.5-183.7-244c-1.7-7.6 236-117-35-60.4-281.2 82-206.5-260.2-161.5-325 124.2-131.7 13.5-53 65.5-100.3 180-152-43-64.7-43-64.7s-112.8 21.2-14.1-98.6z"/><ellipse id="path2155" cx="1643.5" cy="997" fill="#1a034b" fill-opacity="1" stroke="#000" stroke-linecap="round" stroke-linejoin="round" paint-order="fill markers stroke" rx="11.4" ry="11.2"/><ellipse id="circle2157" cx="1543.6" cy="695" fill="#1a034b" fill-opacity="1" stroke="#000" stroke-linecap="round" stroke-linejoin="round" paint-order="fill markers stroke" rx="11.4" ry="11.2"/><ellipse id="circle2159" cx="1700.3" cy="1040.5" fill="#1a034b" fill-opacity="1" stroke="#000" stroke-linecap="round" stroke-linejoin="round" paint-order="fill markers stroke" rx="6" ry="5.9"/><ellipse id="circle2161" cx="1330.2" cy="231" fill="#1a034b" fill-opacity="1" stroke="#000" stroke-linecap="round" stroke-linejoin="round" paint-order="fill markers stroke" rx="6" ry="5.9"/><ellipse id="circle2163" cx="1566.2" cy="681.9" fill="#1a034b" fill-opacity="1" stroke="#000" stroke-linecap="round" stroke-linejoin="round" paint-order="fill markers stroke" rx="6" ry="5.9"/><ellipse id="circle2165" cx="1325.6" cy="297.3" fill="#1a034b" fill-opacity="1" stroke="#000" stroke-linecap="round" stroke-linejoin="round" paint-order="fill markers stroke" rx="11.4" ry="11.2"/><ellipse id="circle2169" cx="1280.4" cy="104.8" fill="#1a034b" fill-opacity="1" stroke="#000" stroke-linecap="round" stroke-linejoin="round" paint-order="fill markers stroke" rx="6" ry="5.9"/><ellipse id="ellipse2189" cx="1512.4" cy="918.6" fill="#1a034b" fill-opacity="1" stroke="#000" stroke-linecap="round" stroke-linejoin="round" paint-order="fill markers stroke" rx="4.5" ry="4.4"/><ellipse id="ellipse2191" cx="1477.5" cy="842.5" fill="#1a034b" fill-opacity="1" stroke="#000" stroke-linecap="round" stroke-linejoin="round" paint-order="fill markers stroke" rx="6" ry="5.9"/><g id="g2234" fill-opacity="1" stroke-linecap="round" stroke-linejoin="round" paint-order="fill markers stroke" transform="matrix(1 .31531 -.569 .80456 433.9 -159.5)"><path id="path2207" fill="#ff0" stroke="navy" d="M1491 171a44.3 44.3 0 01-48.2 26.6 44.3 44.3 0 01-37-40.9 44.3 44.3 0 0131.4-45.3 44.3 44.3 0 0151.2 20.1l-38.3 22.3z"/><circle id="path2209" cx="1572.6" cy="155.1" r="12.4" fill="#fff" stroke="#ff0"/><circle id="circle2211" cx="1613.7" cy="155.1" r="12.4" fill="#fff" stroke="#ff0"/><circle id="circle2213" cx="1654.8" cy="155.1" r="12.4" fill="#fff" stroke="#ff0"/><circle id="circle2215" cx="1695.9" cy="155.1" r="12.4" fill="#fff" stroke="#ff0"/><circle id="circle2217" cx="1695.9" cy="195.9" r="12.4" fill="#fff" stroke="#ff0"/><circle id="circle2219" cx="1695.9" cy="236.6" r="12.4" fill="#fff" stroke="#ff0"/><circle id="circle2221" cx="1695.9" cy="277.3" r="12.4" fill="#fff" stroke="#ff0"/><circle id="circle2223" cx="1531.6" cy="155.1" r="12.4" fill="#fff" stroke="#ff0"/></g><g id="g2469" fill-opacity="1" stroke="#ff0" stroke-linecap="round" stroke-linejoin="round" paint-order="fill markers stroke" transform="matrix(.68353 .2516 0 .67257 1198.4 -662.5)"><use xlink:href="#rect2336"/><use xlink:href="#rect2338"/><use xlink:href="#rect2340"/><use xlink:href="#rect2342"/><use xlink:href="#rect2344"/><use xlink:href="#rect2346"/><use xlink:href="#rect2348"/><use xlink:href="#rect2350"/><use xlink:href="#rect2356"/><use xlink:href="#rect2358"/><use transform="scale(-1 1)" xlink:href="#rect2362"/><use transform="scale(-1 1)" xlink:href="#rect2364"/><use transform="scale(-1 1)" xlink:href="#rect2366"/><use transform="scale(-1 1)" xlink:href="#rect2368"/><use transform="scale(-1 1)" xlink:href="#rect2370"/><use transform="scale(-1 1)" xlink:href="#rect2372"/><use transform="scale(-1 1)" xlink:href="#rect2374"/><use transform="scale(-1 1)" xlink:href="#rect2378"/><use xlink:href="#path2448"/></g><ellipse id="ellipse2591" cx="1514.6" cy="52.8" fill="#6dd4f1" fill-opacity="1" stroke="#000" stroke-linecap="round" stroke-linejoin="round" paint-order="fill markers stroke" rx="11.4" ry="11.2"/><ellipse id="ellipse2593" cx="1346.2" cy="394.8" fill="#e5afa8" fill-opacity="1" stroke="#000" stroke-linecap="round" stroke-linejoin="round" paint-order="fill markers stroke" rx="6" ry="5.9"/><ellipse id="ellipse2595" cx="1415.9" cy="61.6" fill="#f669d1" fill-opacity="1" stroke="#000" stroke-linecap="round" stroke-linejoin="round" paint-order="fill markers stroke" rx="6" ry="5.9"/><g id="g1477" transform="matrix(1 0 0 .98397 168.2 16.5)"><path id="rect2611" fill="#ff0" fill-opacity="1" stroke="#ff0" stroke-linecap="round" stroke-linejoin="round" d="M1210.7 445.3l66 18.2c10.2 2.9 18.7 12.3 18.3 21.1l-1.2 33.8c-.3 8.8 2 26.1-22.9 19l-63.2-18.3c-10.2-2.9-18.5-12.2-18.4-21l.7-37.6c.2-8.9 10.5-18 20.7-15.2z" paint-order="fill markers stroke"/><path id="rect2615" fill="#fc0" fill-opacity="1" stroke="#ff0" stroke-linecap="round" stroke-linejoin="round" d="M1207.4 454.6l55.5 15.6c10.2 2.8 18.4 12.3 18.4 21l-.1 34.3c0 8.9-8.3 13.7-18.5 10.8l-55.5-15.6c-10.2-2.8-18.4-12.2-18.4-21v-34.3c.1-8.8 8.4-13.6 18.6-10.8z" paint-order="fill markers stroke"/><text id="text2619" x="1069.4" y="193.9" fill="#fff" font-family="Microsoft Sans Serif" font-size="64.1" font-stretch="normal" font-style="normal" font-variant="normal" font-weight="400" style="line-height:1.65;-inkscape-font-specification:'Microsoft Sans Serif'" transform="matrix(1.13622 .31845 -.0026 .87939 0 0)" xml:space="preserve"><tspan id="tspan2617" x="1069.4" y="193.9" fill="#fff" stroke-dasharray="none" stroke-miterlimit="4" stroke-width="0" font-family="Microsoft Sans Serif" font-stretch="normal" font-style="normal" font-variant="normal" font-weight="400" style="-inkscape-font-specification:'Microsoft Sans Serif'">?</tspan></text></g><g id="g319" fill-opacity="1" stroke="#ff0" stroke-linecap="round" stroke-linejoin="round" paint-order="fill markers stroke" transform="matrix(1 0 0 .98397 168.2 16.5)"><use xlink:href="#rect2621"/><use xlink:href="#rect2623"/></g><path id="path2627" fill="#ff0" fill-opacity="1" stroke="#ff0" stroke-linecap="round" stroke-linejoin="round" d="M1640.2-25.7c0 18-16 33-39.4 33s-42.2-12.3-42.2-30.4c0-18.1 19-32.8 42.4-32.8 23.5 0 39.2 12 39.2 30.2" paint-order="fill markers stroke" transform="matrix(.96014 .27952 -.00284 1 0 0)"/><ellipse id="circle272" cx="1588.4" cy="3.4" fill="#fc0" fill-opacity="1" stroke="#ff0" stroke-linecap="round" stroke-linejoin="round" paint-order="fill markers stroke" rx="38.1" ry="28" transform="matrix(.96401 .26586 -.003 1 0 0)"/><text id="text276" x="1320.5" y="19" fill="#fcff90" fill-opacity="1" font-family="sans-serif" font-size="50.8" style="line-height:1.65" transform="matrix(1.14544 .31589 -.00261 .8723 0 0)" xml:space="preserve"><tspan id="tspan274" x="1320.5" y="19" fill="#fcff90" fill-opacity="1" stroke-dasharray="none" stroke-miterlimit="4" stroke-width="0">$</tspan></text><path id="rect1107" fill="#ff0" fill-opacity="1" stroke="#000" stroke-linecap="round" stroke-linejoin="round" d="M1532.5 481.5c0 10.8-.7 19.3-1.5 19-.8-.1-1.4-9-1.4-19.8s.7-19.3 1.5-19c.8.2 1.4 9 1.4 19.8z" paint-order="fill markers stroke"/><path id="path1112" fill="#ff0" fill-opacity="1" stroke="#000" stroke-linecap="round" stroke-linejoin="round" d="M1492.6 462.1c0 15.4-.7 27.7-1.5 27.5-.8-.3-1.4-12.8-1.4-28.3 0-15.4.7-27.6 1.5-27.4.8.2 1.4 12.8 1.4 28.2z" paint-order="fill markers stroke"/><path id="path1114" fill="#ff0" fill-opacity="1" stroke="#000" stroke-linecap="round" stroke-linejoin="round" d="M1572.5 484.2c0 15.4-.7 27.6-1.5 27.4-.8-.2-1.4-12.8-1.4-28.2 0-15.5.7-27.7 1.5-27.5.8.2 1.4 12.8 1.4 28.3z" paint-order="fill markers stroke"/><ellipse id="ellipse1343" cx="1250.1" cy="442.9" fill="#1a034b" fill-opacity="1" stroke="#000" stroke-linecap="round" stroke-linejoin="round" paint-order="fill markers stroke" rx="11.4" ry="11.2"/><g id="g1314" stroke="#000" stroke-linecap="round" stroke-linejoin="round" paint-order="fill markers stroke" transform="matrix(1.33452 0 0 1.31312 -464 385.7)"><path id="rect272" fill="#1a1a1a" d="M1298.4 239.6l-58.8 30.3-.8 4 143.9 79.6 62.8-32.9z"/><path id="rect262" fill="#333" d="M-499.4 977.4h67.6v162.3h-67.6z" transform="matrix(-.88612 .46345 .87677 .4809 0 0)"/><path id="rect276" fill="#1a1a1a" d="M1406.7 292.3l-.2 15-31.5 14 .1-15.2z"/><path id="rect244" fill="#4d4d4d" d="M1488.2-492.4h105.9v15.1h-105.9z" transform="matrix(.8655 .5009 .0089 .99996 0 0)"/><g id="g212" transform="matrix(.939 .5215 .01523 .8847 198.7 -1212.8)"><path id="rect208" fill="#000" d="M1053.5 825h272.8v168.6h-272.8z"/><path id="rect206" fill="#00f" d="M1062 830.2h255.7v158H1062z"/></g><path id="rect222" fill="#333" d="M1206 63.8l256.6 141.7 2.5 149.5-6 2.7-254.7-145.2-3.9-145.9z"/><path id="rect214" fill="#000" d="M1385.2-606.2h293V-457h-293z" transform="matrix(.87422 .48553 .0172 .99985 0 0)"/><path id="rect242" fill="#333" fill-opacity="1" d="M1392-600.9h279.8v138.2H1392z" transform="matrix(.87428 .48543 .01774 .99984 0 0)"/><g id="g1158" fill-opacity="1" transform="matrix(.33251 .18655 .0001 .25055 784.8 -250)"><g id="g982" transform="translate(-707.5 19.9)"><path id="rect978" fill="#1a1a1a" d="M1974.9 337.6h158V887h-158z" transform="skewY(-.2)"/><path id="rect980" fill="#333" d="M2133.4 337.8h579.7v549.4h-579.7z" transform="skewY(-.2)"/></g><path id="path984" fill="#fff" d="M1501.8 391.3v-9.2c0-.7 9.6-1.2 21.4-1.3l107.5-.4c11.9 0 21.5.5 21.5 1.1v9.3c0 .6-9.6 1.2-21.5 1.2l-107.5.4c-11.8 0-21.4-.4-21.4-1z"/><path id="path986" fill="#f55" d="M1657.7 390.7v-9.2c0-.7 15-1.2 33.5-1.3l167.7-.6c18.5-.1 33.5.4 33.5 1v9.3c0 .6-15 1.2-33.5 1.3l-167.7.6c-18.6 0-33.5-.4-33.5-1z"/><path id="path988" fill="#fff" d="M1501.8 410.4v-9.2c0-.7 12.6-1.3 28.3-1.3l141.8-.6c15.7 0 28.4.5 28.4 1.1v9.3c0 .6-12.7 1.2-28.4 1.3l-141.8.5c-15.7 0-28.3-.4-28.3-1.1z"/><path id="path990" fill="#2a7fff" d="M1705.1 409.6v-9.2a70 70 0 0118.2-1.3l90.9-.3c10 0 18.1.5 18.1 1.1v9.3a70 70 0 01-18.1 1.2l-91 .4c-10 0-18-.5-18-1.2z"/><path id="path992" fill="#ffd42a" d="M1501.8 429.5v-9.3c0-.6 12.6-1.2 28.3-1.3l141.8-.5c15.7 0 28.4.4 28.4 1.1v9.2c0 .7-12.7 1.3-28.4 1.3l-141.8.6c-15.7 0-28.3-.5-28.3-1.1z"/><path id="path994" fill="#fff" d="M1501.8 448.6v-9.3c0-.6 3.5-1.2 7.9-1.2l39.4-.1c4.4 0 7.9.5 7.9 1.1v9.3c0 .6-3.5 1.2-7.9 1.2l-39.4.1c-4.4 0-8-.5-8-1.1z"/><path id="path996" fill="#fff" d="M1495.5 773v-9.3c0-.7 3.5-1.2 7.8-1.2l39.5-.2c4.3 0 7.9.5 7.9 1.2v9.2c0 .7-3.6 1.2-8 1.2l-39.4.2c-4.3 0-7.8-.5-7.8-1.2z"/><path id="path998" fill="#fff" d="M1520.7 467.6v-9.3a45 45 0 0114.5-1.2l72.6-.3c8 0 14.5.5 14.5 1.1v9.3a45 45 0 01-14.5 1.2l-72.6.3a45 45 0 01-14.5-1.1z"/><path id="path1000" fill="#fff" d="M1520.7 658.4V649a45 45 0 0114.5-1.2l72.6-.3c8 0 14.5.5 14.5 1.1v9.3a45 45 0 01-14.5 1.2l-72.6.3a45 45 0 01-14.5-1.1z"/><path id="path1002" fill="#2a7fff" d="M1554 505.6v-9.2c0-.7 17.3-1.3 38.8-1.4l194.5-.7c21.6 0 38.9.4 38.9 1v9.3c0 .6-17.3 1.2-38.9 1.3l-194.5.7c-21.5.1-38.8-.3-38.8-1z"/><path id="path1004" fill="#f55" d="M1554 524.7v-9.3c0-.6 23.4-1.2 52.5-1.3l263-1a578 578 0 0152.6 1v9.2c0 .7-23.5 1.3-52.6 1.4l-263 1a578 578 0 01-52.5-1z"/><path id="path1006" fill="#ffd42a" d="M1554 543.8v-9.3c0-.6 3-1.2 7-1.2l35-.1c3.8 0 6.9.5 6.9 1.1v9.3c0 .6-3.1 1.2-7 1.2l-35 .1c-3.8 0-7-.5-7-1.1z"/><path id="path1008" fill="#fff" d="M1554 582v-9.3c0-.7 10.2-1.3 23-1.3l115.2-.4c12.8 0 23 .4 23 1v9.3c0 .7-10.2 1.2-23 1.3l-115.2.4c-12.8 0-23-.4-23-1z"/><path id="path1010" fill="#f55" d="M1554 620v-9.2c0-.6 12.1-1.2 27.2-1.3l136.6-.5c15.1 0 27.3.5 27.3 1.1v9.3c0 .6-12.2 1.2-27.3 1.3l-136.6.5c-15 0-27.2-.5-27.2-1.1z"/><path id="path1012" fill="#2a7fff" d="M1611.3 600.8v-9.3c0-.6 12.2-1.2 27.3-1.3l136.5-.5c15 0 27.3.5 27.3 1.1v9.3c0 .6-12.2 1.2-27.3 1.3l-136.5.5c-15.1 0-27.3-.5-27.3-1.1z"/><path id="path1014" fill="#fff" d="M1587 486.4v-9.2c0-.7 11.2-1.3 25.3-1.3l126.7-.5c14 0 25.4.4 25.4 1.1v9.2c0 .7-11.3 1.3-25.4 1.3l-126.7.5c-14 0-25.4-.4-25.4-1.1z"/><path id="path1016" fill="#2a7fff" d="M1536.5 486.6v-9.3c0-.6 2.6-1.2 5.7-1.2h28.1c3.1 0 5.6.4 5.6 1.1v9.2c0 .7-2.5 1.2-5.6 1.3h-28.1c-3.1 0-5.7-.5-5.7-1.1z"/><path id="path1018" fill="#fff" d="M1470.7 887.5v-9.3c0-.6 3-1.2 6.5-1.2h32.6c3.6-.1 6.5.4 6.5 1v9.3c0 .7-2.9 1.2-6.5 1.2l-32.6.2c-3.6 0-6.5-.6-6.5-1.2z"/><path id="path1020" fill="#fff" d="M1470.7 372.4V363c0-.6 3-1.2 6.5-1.2l32.6-.1c3.6 0 6.5.5 6.5 1.2v9.2c0 .6-2.9 1.2-6.5 1.2l-32.6.1c-3.6 0-6.5-.5-6.5-1.1z"/><path id="path1022" fill="#2a7fff" d="M1536.5 639.2V630c0-.7 2.6-1.2 5.7-1.2l28.1-.1c3.1 0 5.6.5 5.6 1.1v9.3c0 .6-2.5 1.2-5.6 1.2h-28.1c-3.1.1-5.7-.4-5.7-1z"/><path id="path1024" fill="#fff" d="M1536.5 677.4V668c0-.6 2.6-1.2 5.7-1.2h28.1c3.1 0 5.6.4 5.6 1v9.3c0 .7-2.5 1.2-5.6 1.2l-28.1.1c-3.1 0-5.7-.5-5.7-1.1z"/><path id="path1026" fill="#fff" d="M1536.5 753.7v-9.2c0-.7 2.6-1.2 5.7-1.3h28.1c3.1 0 5.6.4 5.6 1.1v9.2c0 .7-2.5 1.2-5.6 1.3h-28.1c-3.1 0-5.7-.4-5.7-1.1z"/><path id="path1028" fill="#f55" d="M1588.2 677.2v-9.3a45 45 0 0114.5-1.2l72.5-.3c8 0 14.5.5 14.5 1.2v9.2a45 45 0 01-14.5 1.2l-72.5.3a45 45 0 01-14.5-1.1z"/><path id="path1030" fill="#ffd42a" d="M1699.9 676.8v-9.3c0-.6 1.5-1.2 3.3-1.2h16.9c1.8 0 3.3.5 3.3 1.1v9.3c0 .6-1.5 1.2-3.3 1.2h-16.9c-1.8 0-3.3-.5-3.3-1.1z"/><path id="path1032" fill="#2a7fff" d="M1554 562.8v-9.2c0-.7 4.9-1.2 11-1.2l55.2-.2c6 0 11 .5 11 1.1v9.2c0 .7-5 1.3-11 1.3l-55.2.2c-6.1 0-11-.5-11-1.2z"/><path id="path1034" fill="#f55" d="M1639.6 562.5v-9.2c0-.7 10.5-1.3 23.5-1.3l117.5-.4c13 0 23.4.4 23.4 1v9.3c0 .7-10.4 1.2-23.4 1.3l-117.5.4c-13 0-23.5-.4-23.5-1z"/><path id="path1036" fill="#ffd42a" d="M1554 601v-9.2c0-.7 3-1.2 7-1.3h35c3.8-.1 6.9.4 6.9 1v9.3c0 .7-3.1 1.2-7 1.2l-35 .2c-3.8 0-7-.5-7-1.2z"/><path id="path1038" fill="#2a7fff" d="M1637.2 696v-9.2c0-.6 7.2-1.2 16.1-1.2l80.7-.3c8.9 0 16 .5 16 1.1v9.3c0 .6-7.1 1.2-16 1.2l-80.7.3c-9 0-16.1-.5-16.1-1.1z"/><path id="path1040" fill="#f55" d="M1554 734.5v-9.2c0-.7 12.1-1.2 27.2-1.3l136.6-.5c15.1 0 27.3.4 27.3 1v9.3c0 .7-12.2 1.3-27.3 1.3l-136.6.5c-15 0-27.2-.4-27.2-1z"/><path id="path1042" fill="#2a7fff" d="M1607.6 715.3V706c0-.6 12.2-1.2 27.3-1.3l136.5-.5c15 0 27.2.5 27.2 1.1v9.3c0 .6-12.1 1.2-27.2 1.2l-136.5.6c-15.1 0-27.3-.5-27.3-1.1z"/><path id="path1044" fill="#fff" d="M1554 715.5v-9.3c0-.6 3-1.2 7-1.2l35-.1c3.8 0 6.9.5 6.9 1.1v9.3c0 .6-3.1 1.2-7 1.2l-35 .1c-3.8 0-7-.5-7-1.1z"/><path id="path1046" fill="#2a7fff" d="M1554 696.4v-9.2c0-.7 4.7-1.3 10.6-1.3l53.6-.2c5.9 0 10.7.5 10.7 1.2v9.2c0 .7-4.8 1.2-10.7 1.2l-53.6.2c-5.9 0-10.6-.5-10.6-1.1z"/><path id="path1048" fill="#fff" d="M1495.5 792v-9.2c0-.7 2.3-1.2 5.3-1.2l26.6-.1c3 0 5.4.5 5.4 1.1v9.3c0 .6-2.4 1.2-5.4 1.2h-26.6c-3 0-5.3-.4-5.3-1.1z"/><path id="path1050" fill="#fff" d="M1489.3 868.3v-9.2c0-.7 3.5-1.2 7.9-1.2l39.4-.2c4.4 0 7.9.5 7.9 1.2v9.2c0 .7-3.5 1.2-7.9 1.3l-39.4.1c-4.4 0-8-.5-8-1.2z"/><path id="path1052" fill="#fff" d="M1538.7 791.8v-9.2c0-.7 10.6-1.2 23.8-1.3l119.2-.4c13.2 0 23.8.4 23.8 1v9.3c0 .7-10.6 1.2-23.8 1.3l-119.2.4c-13.2 0-23.8-.4-23.8-1z"/><path id="path1054" fill="#f55" d="M1532.3 811v-9.3c0-.7 5.8-1.2 13-1.2l65-.3c7.3 0 13 .5 13 1.2v9.2c0 .7-5.7 1.2-13 1.2l-65 .3c-7.2 0-13-.5-13-1.2z"/><path id="path1056" fill="#f55" d="M1630.3 810.6v-9.3c0-.6 10.5-1.2 23.5-1.2l117.8-.5c13 0 23.5.5 23.5 1.1v9.3c0 .6-10.5 1.2-23.5 1.2l-117.8.5c-13 0-23.5-.5-23.5-1.1z"/><path id="path1058" fill="#ffd42a" d="M1802 810v-9.3c0-.7 3-1.2 6.7-1.2l33.4-.1c3.7 0 6.7.5 6.7 1.1v9.3c0 .6-3 1.2-6.7 1.2l-33.4.1c-3.7 0-6.6-.5-6.6-1.2z"/><path id="path1060" fill="#2a7fff" d="M1532.3 830v-9.2c0-.7 9.3-1.2 20.8-1.3l104.2-.4c11.6 0 20.8.5 20.8 1.1v9.3c0 .6-9.2 1.2-20.8 1.2l-104.2.4c-11.5 0-20.8-.4-20.8-1z"/><path id="path1062" fill="#ffd42a" d="M1688.3 829.4v-9.2c0-.7 3-1.2 6.6-1.2l33.5-.1c3.7 0 6.6.5 6.6 1.1v9.3c0 .6-3 1.2-6.6 1.2l-33.5.1c-3.7 0-6.6-.5-6.6-1.2z"/><path id="path1064" fill="#fff" d="M1589.2 848.9v-9.3c0-.6 12.2-1.2 27.3-1.2l136.5-.6c15 0 27.2.5 27.2 1.1v9.3c0 .6-12.1 1.2-27.2 1.3l-136.5.5c-15.1 0-27.3-.5-27.3-1.1z"/><path id="path1066" fill="#ffd42a" d="M1531.8 849.1v-9.2c0-.7 3.1-1.2 7-1.3h35c3.8-.1 7 .4 7 1v9.3c0 .7-3.2 1.2-7 1.2l-35 .2c-3.9 0-7-.5-7-1.2z"/><path id="path1068" fill="#fff" d="M1444.4 391.6v-9.3c0-.6 1.2-1.2 2.7-1.2h13.4c1.4 0 2.6.5 2.6 1.2v9.3c0 .6-1.2 1.2-2.6 1.2H1447c-1.5 0-2.7-.5-2.7-1.2z" opacity=".6"/><path id="path1070" fill="#fff" d="M1444.4 410.7v-9.3c0-.7 1.2-1.2 2.7-1.2h13.4c1.4 0 2.6.5 2.6 1.1v9.4c0 .6-1.2 1.2-2.6 1.2H1447c-1.5 0-2.7-.5-2.7-1.2z" opacity=".6"/><path id="path1072" fill="#fff" d="M1444.4 429.8v-9.3c0-.7 1.2-1.2 2.7-1.2h13.4c1.4 0 2.6.5 2.6 1.1v9.4c0 .6-1.2 1.2-2.6 1.2H1447c-1.5 0-2.7-.5-2.7-1.2z" opacity=".6"/><path id="path1074" fill="#fff" d="M1444.4 449v-9.4c0-.7 1.2-1.2 2.7-1.2h13.4c1.4 0 2.6.5 2.6 1.1v9.3c0 .7-1.2 1.3-2.6 1.3H1447c-1.5 0-2.7-.5-2.7-1.2z" opacity=".6"/><path id="path1076" fill="#fff" d="M1444.4 468v-9.3c0-.7 1.2-1.2 2.7-1.2h13.4c1.4 0 2.6.5 2.6 1.1v9.3c0 .7-1.2 1.2-2.6 1.2l-13.4.1c-1.5 0-2.7-.5-2.7-1.2z" opacity=".6"/><path id="path1078" fill="#fff" d="M1444.4 487.1v-9.3c0-.7 1.2-1.2 2.7-1.2h13.4c1.4 0 2.6.4 2.6 1.1v9.3c0 .7-1.2 1.2-2.6 1.2H1447c-1.5.1-2.7-.4-2.7-1.1z" opacity=".6"/><path id="path1080" fill="#fff" d="M1444.4 506.2v-9.3c0-.7 1.2-1.2 2.7-1.2h13.4c1.4 0 2.6.4 2.6 1.1v9.3c0 .7-1.2 1.2-2.6 1.2H1447c-1.5 0-2.7-.4-2.7-1.1z" opacity=".6"/><path id="path1082" fill="#fff" d="M1444.4 525.3V516c0-.7 1.2-1.2 2.7-1.2l13.4-.1c1.4 0 2.6.5 2.6 1.2v9.3c0 .7-1.2 1.2-2.6 1.2H1447c-1.5 0-2.7-.5-2.7-1.1z" opacity=".6"/><path id="path1084" fill="#fff" d="M1444.4 544.4V535c0-.7 1.2-1.2 2.7-1.3h13.4c1.4 0 2.6.5 2.6 1.2v9.3c0 .7-1.2 1.2-2.6 1.2H1447c-1.5 0-2.7-.5-2.7-1.1z" opacity=".6"/><path id="path1086" fill="#fff" d="M1444.4 563.5V554c0-.6 1.2-1.2 2.7-1.2h13.4c1.4 0 2.6.5 2.6 1.2v9.3c0 .7-1.2 1.2-2.6 1.2H1447c-1.5 0-2.7-.5-2.7-1.1z" opacity=".6"/><path id="path1088" fill="#fff" d="M1444.4 582.6v-9.4c0-.6 1.2-1.2 2.7-1.2h13.4c1.4 0 2.6.5 2.6 1.2v9.3c0 .7-1.2 1.2-2.6 1.2H1447c-1.5 0-2.7-.5-2.7-1.1z" opacity=".6"/><path id="path1090" fill="#fff" d="M1444.4 601.6v-9.3c0-.6 1.2-1.2 2.7-1.2h13.4c1.4 0 2.6.5 2.6 1.2v9.3c0 .6-1.2 1.2-2.6 1.2H1447c-1.5 0-2.7-.5-2.7-1.2z" opacity=".6"/><path id="path1092" fill="#fff" d="M1444.4 620.7v-9.3c0-.6 1.2-1.2 2.7-1.2h13.4c1.4 0 2.6.5 2.6 1.2v9.3c0 .6-1.2 1.2-2.6 1.2H1447c-1.5 0-2.7-.5-2.7-1.2z" opacity=".6"/><path id="path1094" fill="#fff" d="M1444.4 659v-9.4c0-.7 1.2-1.2 2.7-1.2h13.4c1.4 0 2.6.5 2.6 1.1v9.4c0 .6-1.2 1.2-2.6 1.2H1447c-1.5 0-2.7-.5-2.7-1.2z" opacity=".6"/><path id="path1096" fill="#fff" d="M1444.4 869v-9.4c0-.7 1.2-1.2 2.7-1.2h13.4c1.4 0 2.6.5 2.6 1.1v9.4c0 .6-1.2 1.2-2.6 1.2H1447c-1.5 0-2.7-.5-2.7-1.2z" opacity=".6"/><path id="path1099" fill="#fff" d="M1444.4 372.5v-9.3c0-.6 1.2-1.2 2.7-1.2h13.4c1.4 0 2.6.5 2.6 1.2v9.3c0 .6-1.2 1.2-2.6 1.2H1447c-1.5 0-2.7-.5-2.7-1.2z" opacity=".6"/><path id="path1101" fill="#fff" d="M1444.4 888v-9.3c0-.7 1.2-1.2 2.7-1.2h13.4c1.4 0 2.6.5 2.6 1.1v9.4c0 .6-1.2 1.2-2.6 1.2H1447c-1.5 0-2.7-.5-2.7-1.2z" opacity=".6"/><path id="path1103" fill="#fff" d="M1444.4 639.8v-9.3c0-.7 1.2-1.2 2.7-1.2h13.4c1.4 0 2.6.5 2.6 1.1v9.4c0 .6-1.2 1.2-2.6 1.2H1447c-1.5 0-2.7-.5-2.7-1.2z" opacity=".6"/><path id="path1105" fill="#fff" d="M1444.4 849.8v-9.3c0-.6 1.2-1.2 2.7-1.2h13.4c1.4 0 2.6.5 2.6 1.2v9.3c0 .6-1.2 1.2-2.6 1.2H1447c-1.5 0-2.7-.5-2.7-1.2z" opacity=".6"/><path id="path1107" fill="#fff" d="M1444.4 830.8v-9.4c0-.6 1.2-1.2 2.7-1.2h13.4c1.4 0 2.6.5 2.6 1.2v9.3c0 .6-1.2 1.2-2.6 1.2H1447c-1.5 0-2.7-.5-2.7-1.1z" opacity=".6"/><path id="path1109" fill="#fff" d="M1444.4 811.7v-9.4c0-.6 1.2-1.2 2.7-1.2h13.4c1.4 0 2.6.5 2.6 1.2v9.3c0 .7-1.2 1.2-2.6 1.2H1447c-1.5 0-2.7-.5-2.7-1.1z" opacity=".6"/><path id="path1111" fill="#fff" d="M1444.4 792.6v-9.4c0-.6 1.2-1.2 2.7-1.2h13.4c1.4 0 2.6.5 2.6 1.2v9.3c0 .7-1.2 1.2-2.6 1.2H1447c-1.5 0-2.7-.5-2.7-1.1z" opacity=".6"/><path id="path1113" fill="#fff" d="M1444.4 773.5v-9.3c0-.7 1.2-1.2 2.7-1.3h13.4c1.4 0 2.6.5 2.6 1.2v9.3c0 .7-1.2 1.2-2.6 1.2H1447c-1.5 0-2.7-.5-2.7-1.1z" opacity=".6"/><path id="path1115" fill="#fff" d="M1444.4 754.4V745c0-.7 1.2-1.2 2.7-1.2l13.4-.1c1.4 0 2.6.5 2.6 1.2v9.3c0 .7-1.2 1.2-2.6 1.2H1447c-1.5 0-2.7-.5-2.7-1.1z" opacity=".6"/><path id="path1117" fill="#fff" d="M1444.4 735.3V726c0-.7 1.2-1.2 2.7-1.2h13.4c1.4 0 2.6.4 2.6 1.1v9.3c0 .7-1.2 1.2-2.6 1.2H1447c-1.5 0-2.7-.4-2.7-1.1z" opacity=".6"/><path id="path1119" fill="#fff" d="M1444.4 716.2v-9.3c0-.7 1.2-1.2 2.7-1.2h13.4c1.4 0 2.6.4 2.6 1.1v9.3c0 .7-1.2 1.2-2.6 1.2H1447c-1.5.1-2.7-.4-2.7-1.1z" opacity=".6"/><path id="path1121" fill="#fff" d="M1444.4 697.1v-9.3c0-.7 1.2-1.2 2.7-1.2h13.4c1.4 0 2.6.5 2.6 1.1v9.3c0 .7-1.2 1.2-2.6 1.2l-13.4.1c-1.5 0-2.7-.5-2.7-1.2z" opacity=".6"/><path id="path1123" fill="#fff" d="M1444.4 678v-9.3c0-.7 1.2-1.2 2.7-1.2h13.4c1.4 0 2.6.5 2.6 1.1v9.3c0 .7-1.2 1.3-2.6 1.3H1447c-1.5 0-2.7-.5-2.7-1.2z" opacity=".6"/><path id="rect1125" fill="#fff" d="M1307.2 433.4h19.6v16.5h-19.6z" opacity=".6" transform="skewY(-.2)"/><path id="rect1128" fill="#fff" d="M1334 437.1h53.2v9.1H1334z" opacity=".6" transform="skewY(-.2)"/><path id="rect1130" fill="#fff" d="M1322.4 410.2h53.2v9.1h-53.2z" opacity=".6" transform="skewY(-.2)"/><path id="rect1132" fill="#fff" d="M1296.1 405.9h19.6v16.5h-19.6z" opacity=".6" transform="skewY(-.2)"/><path id="rect1134" fill="#fff" d="M1315.6 382.4h39.5v9.1h-39.5z" opacity=".6" transform="skewY(-.2)"/><path id="rect1136" fill="#fff" d="M1288.2 378.4h19.6v16.5h-19.6z" opacity=".6" transform="skewY(-.2)"/><path id="rect1138" fill="#fff" d="M1334 464.6h67.9v9.1H1334z" opacity=".6" transform="skewY(-.2)"/><path id="rect1140" fill="#fff" d="M1307.2 460.9h19.6v16.5h-19.6z" opacity=".6" transform="skewY(-.2)"/><path id="rect1142" fill="#fff" d="M1334 492h53.2v9.1H1334z" opacity=".6" transform="skewY(-.2)"/><path id="rect1144" fill="#fff" d="M1307.2 488.3h19.6v16.5h-19.6z" opacity=".6" transform="skewY(-.2)"/><path id="rect1146" fill="#fff" d="M1322.4 520.1h87.9v9.1h-87.9z" opacity=".6" transform="skewY(-.2)"/><path id="rect1148" fill="#fff" d="M1296.1 515.8h19.6v16.5h-19.6z" opacity=".6" transform="skewY(-.2)"/><path id="rect1150" fill="#fff" d="M1315.6 546.6h78.5v9.1h-78.5z" opacity=".6" transform="skewY(-.2)"/><path id="rect1152" fill="#fff" d="M1288.2 543.3h19.6v16.5h-19.6z" opacity=".6" transform="skewY(-.2)"/><path id="rect1154" fill="#fff" d="M1315.6 574.5h53.2v9.1h-53.2z" opacity=".6" transform="skewY(-.2)"/><path id="rect1156" fill="#fff" d="M1288.2 570.7h19.6v16.5h-19.6z" opacity=".6" transform="skewY(-.2)"/></g></g><ellipse id="ellipse1347" cx="1272.2" cy="497.8" fill="#1a034b" fill-opacity="1" stroke="#000" stroke-linecap="round" stroke-linejoin="round" paint-order="fill markers stroke" rx="6" ry="5.9"/><g id="g1341" fill-opacity="1" stroke="#000" transform="matrix(.9958 -.0901 .09156 .97983 95.5 160.3)"><path id="path1180" fill="#9091e3" stroke-linecap="butt" stroke-linejoin="miter" stroke-opacity="1" d="M1676 770.3s-19.2-75.2-86.5-106.3c-60.3 41.2-77.3 90.6-77.3 90.6s37.7 62.1 117.8 69c15.2-30.2 46-53.3 46-53.3z"/><g id="g1160" stroke-linecap="butt" stroke-linejoin="miter" stroke-opacity="1" transform="matrix(1.55061 0 0 1.55061 941.2 -140.2)"><path id="path1156" fill="#c2bfef" d="M431.3 637.3s15 7.6 30.3 12.8l-.2.9c-23.5-1.6-58-24.6-58.2-44.3 15 24 28 30.6 28 30.6z"/><path id="path1154" fill="#8b85dd" d="M444.5 621.4s9 17.3 18.4 25.6l-1.1 3c-15-5-41.8-11-58.6-43.3 28.2 13.3 41.3 14.7 41.3 14.7z"/></g><g id="g1172" stroke-linecap="butt" stroke-linejoin="miter" stroke-opacity="1" transform="matrix(1.55061 0 0 1.55061 941.2 -140.2)"><path id="path1162" fill="#c2bfef" d="M487 572.3s9.7 13.7 17.6 28l1.2-.7c-6.6-22.1-27.7-51.5-53.8-51 26.2 10.4 35 23.7 35 23.7z"/><path id="path1164" fill="#8b85dd" d="M473.5 587s-13.8-29.4-22.3-38.6c23.6 3.2 49.1 33.9 53.5 51.7l-2.8 1.6C483.7 589 473.5 587 473.5 587z"/></g><path id="path1174" fill="#8b85dd" stroke-linecap="butt" stroke-linejoin="miter" stroke-opacity="1" d="M1667.7 802l23 22.7-2.2 2.6-28.3-15.7s6.8-5.4 7.5-9.7z"/><path id="path1178" fill="#342e9a" stroke-linecap="butt" stroke-linejoin="miter" stroke-opacity="1" d="M1675.1 770l4.6 1.5s-2.8 32.2-47 55.8l-3-4.2c23.7-38.1 45.4-53 45.4-53z"/><path id="path1176" fill="#89e7fc" stroke-linecap="butt" stroke-linejoin="miter" stroke-opacity="1" d="M1651.9 813.6s3-10.1 17.3-20c2.6 7.2-7 22.7-17.3 20z"/><path id="path1215" fill="#5e60c4" stroke-linecap="butt" stroke-linejoin="miter" stroke-opacity="1" d="M1607.8 757.4l43 36.8-.7 1-44.7-36z"/><circle id="path1182" cx="1580.4" cy="734.5" r="35.8" fill="#7660c4" stroke-linecap="round" stroke-linejoin="round" paint-order="fill markers stroke"/><circle id="circle1184" cx="1580.4" cy="734.5" r="28" fill="#15d8f6" stroke-linecap="round" stroke-linejoin="round" paint-order="fill markers stroke"/><circle id="circle1186" cx="1629.4" cy="777.6" r="5.3" fill="#feda34" stroke-linecap="round" stroke-linejoin="round" paint-order="fill markers stroke"/><circle id="circle1197" cx="1604.4" cy="754.1" r="1.7" fill="#13eafd" stroke-linecap="round" stroke-linejoin="round" paint-order="fill markers stroke"/><circle id="circle1203" cx="1610.4" cy="729.6" r="1.7" fill="#13eafd" stroke-linecap="round" stroke-linejoin="round" paint-order="fill markers stroke"/><circle id="circle1205" cx="1602.1" cy="712.3" r="1.7" fill="#13eafd" stroke-linecap="round" stroke-linejoin="round" paint-order="fill markers stroke"/><circle id="circle1207" cx="1578.6" cy="702.8" r="1.7" fill="#13eafd" stroke-linecap="round" stroke-linejoin="round" paint-order="fill markers stroke"/><circle id="circle1209" cx="1556.5" cy="713.3" r="1.7" fill="#13eafd" stroke-linecap="round" stroke-linejoin="round" paint-order="fill markers stroke"/><circle id="circle1211" cx="1548.1" cy="738.3" r="1.7" fill="#13eafd" stroke-linecap="round" stroke-linejoin="round" paint-order="fill markers stroke"/><circle id="circle1213" cx="1562.5" cy="760.6" r="1.7" fill="#13eafd" stroke-linecap="round" stroke-linejoin="round" paint-order="fill markers stroke"/><path id="path1217" fill="#5e60c4" stroke-linecap="butt" stroke-linejoin="miter" stroke-opacity="1" d="M1553.5 711.3l-9.1-7.2-1 1 9.3 7.3z"/><path id="path1219" fill="#693db0" stroke-linecap="butt" stroke-linejoin="miter" stroke-opacity="1" d="M1511.4 748.5l2.4 2.4c32.4-61.7 70.2-82.8 70.2-82.8l-1.8-2.6s-40.1 16.1-70.8 83z"/><path id="path1221" fill="#988adc" stroke-linecap="butt" stroke-linejoin="miter" stroke-opacity="1" d="M1509.7 751.8s17.6-55 76.4-89.6c0 0-40.2-15.8-81.8 7.4-17.8 43 5.4 82.2 5.4 82.2z"/><path id="path1225" fill="#e7e6f8" stroke-linecap="butt" stroke-linejoin="miter" stroke-opacity="1" d="M1498.6 696.8s12-24.5 32.8-36.8c0 0-12.5 1.4-27.2 9.7-6.3 15.3-5.6 27-5.6 27z"/><path id="path1227" fill="url(#linearGradient1235)" stroke-linecap="butt" stroke-linejoin="miter" stroke-opacity="1" d="M1669.6 793.5l-16.7 20.3s171.4 185.2 169 208c.3 1 12-1.1 12-1.1s-18.4-163.3-164.3-227.2z"/></g><g id="g1358" fill-opacity="1" stroke="#000" stroke-linecap="butt" stroke-linejoin="miter" stroke-opacity="1" transform="matrix(1.18309 0 0 1.16438 2054.2 135)"><path id="path1349" fill="#985964" d="M-121.4 711.5l44 42.9S1 729 10.3 686.2C7.1 684-56 701.6-56 701.6l3.3-9.3z"/><path id="path1351" fill="#5c254d" d="M-71.4 805.5c-5.5-.6-6-51.7-6-51.7s72-20.3 89-67C29.3 751.6-8.3 789.2-8.3 789.2s-20.4 18.7-63.2 16.3z"/><path id="path1353" fill="#300f2d" d="M-77.7 754.1l-43.7-42s23.3 66.5 49.1 94c-4.3-12.2-5.4-52-5.4-52z"/></g><g id="g325" fill-opacity="1" stroke="#ff0" stroke-linecap="round" stroke-linejoin="round" paint-order="fill markers stroke" transform="matrix(1 0 0 .98397 293.3 53.2)"><use id="path321" xlink:href="#rect2621"/><use id="path323" xlink:href="#rect2623"/></g><g id="g379" fill-opacity="1" stroke="#ff0" stroke-linecap="round" stroke-linejoin="round" paint-order="fill markers stroke" transform="matrix(.68353 .2516 0 .67257 1277.4 -633.4)"><use id="rect341" xlink:href="#rect2336"/><use id="rect343" xlink:href="#rect2338"/><use id="rect345" xlink:href="#rect2340"/><use id="rect347" xlink:href="#rect2342"/><use id="rect349" xlink:href="#rect2344"/><use id="rect351" xlink:href="#rect2346"/><use id="rect353" xlink:href="#rect2348"/><use id="rect355" xlink:href="#rect2350"/><use id="rect357" xlink:href="#rect2356"/><use id="rect359" xlink:href="#rect2358"/><use id="rect361" transform="scale(-1 1)" xlink:href="#rect2362"/><use id="rect363" transform="scale(-1 1)" xlink:href="#rect2364"/><use id="rect365" transform="scale(-1 1)" xlink:href="#rect2366"/><use id="rect367" transform="scale(-1 1)" xlink:href="#rect2368"/><use id="rect369" transform="scale(-1 1)" xlink:href="#rect2370"/><use id="rect371" transform="scale(-1 1)" xlink:href="#rect2372"/><use id="rect373" transform="scale(-1 1)" xlink:href="#rect2374"/><use id="rect375" transform="scale(-1 1)" xlink:href="#rect2378"/><use id="path377" xlink:href="#path2448"/></g><g id="g419" fill-opacity="1" stroke="#ff0" stroke-linecap="round" stroke-linejoin="round" paint-order="fill markers stroke" transform="matrix(.68353 .2516 0 .67257 1356.4 -604.3)"><use id="rect381" xlink:href="#rect2336"/><use id="rect383" xlink:href="#rect2338"/><use id="rect385" xlink:href="#rect2340"/><use id="rect387" xlink:href="#rect2342"/><use id="rect389" xlink:href="#rect2344"/><use id="rect391" xlink:href="#rect2346"/><use id="rect393" xlink:href="#rect2348"/><use id="rect395" xlink:href="#rect2350"/><use id="rect397" xlink:href="#rect2356"/><use id="rect399" xlink:href="#rect2358"/><use id="rect401" transform="scale(-1 1)" xlink:href="#rect2362"/><use id="rect403" transform="scale(-1 1)" xlink:href="#rect2364"/><use id="rect405" transform="scale(-1 1)" xlink:href="#rect2366"/><use id="rect407" transform="scale(-1 1)" xlink:href="#rect2368"/><use id="rect409" transform="scale(-1 1)" xlink:href="#rect2370"/><use id="rect411" transform="scale(-1 1)" xlink:href="#rect2372"/><use id="rect413" transform="scale(-1 1)" xlink:href="#rect2374"/><use id="rect415" transform="scale(-1 1)" xlink:href="#rect2378"/><use id="path417" xlink:href="#path2448"/></g><path id="path1308" fill="#fff" fill-opacity="1" d="M1657.3 304.5c149.4-30.4-.5-210.9-142-158.7 201.3-93.5 356.9 176.6 142 158.7z"/><g id="g2069" fill-opacity="1" stroke="#000" stroke-linecap="round" stroke-linejoin="round" paint-order="fill markers stroke" transform="matrix(1 0 0 .98397 168.2 16.5)"><path id="rect455" fill="#a74301" d="M1064.4-883h15.9v79.9h-15.9z" transform="matrix(.60986 .79251 -.73736 .6755 0 0)"/><ellipse id="path453" cx="1072.3" cy="-797.4" fill="#a80" rx="11.2" ry="13.4" transform="matrix(.60986 .79251 -.73736 .6755 0 0)"/><path id="rect457" fill="#a80" d="M1027.7-899.7h85.7v18.4h-85.7z" transform="matrix(.60986 .79251 -.73736 .6755 0 0)"/><path id="rect467" fill="#cfcfcf" d="M1455 107c-22.6.2-46.3 17-48.8 18.9h0l-99.7 91.2 31.2 40.5 99.3-91v0s0 0 0 0l.3-.3h0c1.5-2 26.2-33 25-58.6-2.5-.5-5-.7-7.4-.6z"/><path id="rect465" fill="#989898" d="M1456.4 113.5c-22 .4-42 16.3-45.2 18.9h0l-.6.5s0 0 0 0v0l-99 90.7 21 27.5 99.2-90.8s0 0 0 0h0l.5-.5h0a99 99 0 0024.1-46.3z"/><path id="rect459" fill="#a80" d="M1040.6-909.9h59.9v18.4h-59.9z" transform="matrix(.60986 .79251 -.73736 .6755 0 0)"/><path id="rect461" fill="#a80" d="M1112.8-904.3h21.2v27.8h-21.2z" transform="matrix(.60986 .79251 -.73736 .6755 0 0)"/><path id="rect463" fill="#a80" d="M1009.5-904.3h21.2v27.8h-21.2z" transform="matrix(.60986 .79251 -.73736 .6755 0 0)"/></g><ellipse id="ellipse1322" cx="1369.3" cy="231.3" fill="#1a034b" fill-opacity="1" stroke="#000" stroke-linecap="round" stroke-linejoin="round" paint-order="fill markers stroke" rx="6" ry="5.9"/><g id="g2443" transform="matrix(1 0 0 .98397 182.9 19.4)"><path id="rect1352" fill="#b3b3b3" fill-opacity="1" stroke="#000" stroke-linecap="round" stroke-linejoin="round" d="M1090.9 412l111.2 62.3a66.5 66.5 0 0129.8 54.4l-2.2 95.8c-.5 20.8-36.8 38.2-53.5 29l-109.7-60c-16.7-9.2-30-33.7-29.8-54.5l.3-95.8c.1-20.8 37.3-40.5 53.9-31.2z" paint-order="fill markers stroke"/><rect id="rect1338" width="187.2" height="162.9" x="1190.4" y="-173.3" fill="#e6e6e6" fill-opacity="1" stroke="#000" stroke-linecap="round" stroke-linejoin="round" paint-order="fill markers stroke" rx="34.4" ry="38.2" transform="skewY(29.5) scale(.8702 1)"/><g id="g1350" transform="matrix(.3893 .63092 -.38394 .3366 1047.7 17)"><path id="path1324" fill="#222c37" d="M598.9 418l34.6-60 16.8 60-16.8 59.9zm-17 9.7l34.7 59.9-60.4-15.5-43.6-44.4zm34.7-79.3L582 408.3h-69.4l43.6-44.5zm49.6 49.2L645 318.9l-79 21-11.7 20.6-23.7-.1-57.8 57.6 57.8 57.6 23.7-.2L566 496l79 21 21.2-78.6-12-20.4z"/><path id="path1340" fill="#fff" fill-opacity="1" stroke="#000" stroke-linecap="round" stroke-linejoin="round" d="M536.8 385.6l20.9-21 27.6-7c15.2-4 27.6-6.6 27.6-5.8 0 .7-7 13.1-15.4 27.4L582 405.3l-33 .6-33.1.5z" paint-order="fill markers stroke"/><path id="path1342" fill="#fff" fill-opacity="1" stroke="#000" stroke-linecap="round" stroke-linejoin="round" d="M583.8 478.2l-26-7-20.9-21-20.9-20.9h65.4l15.8 27.2a598 598 0 0115.8 28.2c0 1.3-.5 1.2-29.2-6.5z" paint-order="fill markers stroke"/><path id="path1344" fill="#fff" fill-opacity="1" stroke="#000" stroke-linecap="round" stroke-linejoin="round" d="M616.4 445.8l-16-27.6 16-28c10.2-17.7 16.6-27 17.5-25.2a382 382 0 018.2 28l6.8 25.2-6.8 24.9c-3.7 13.6-7.4 26-8.2 27.6-1 1.8-7.2-7-17.5-24.9z" paint-order="fill markers stroke"/></g></g><g id="g2503" fill-opacity="1" stroke="#000" stroke-linecap="round" stroke-linejoin="round" paint-order="fill markers stroke" transform="matrix(.7482 0 0 .7362 431.2 215)"><path id="rect2375" fill="#1a1a1a" d="M1324 345.8l401.7-179 20.3 19.7-10 225.4-513.3 29.1-23.2-22.7z" transform="matrix(.86782 .49688 -.89558 .4449 0 0)"/><path id="rect2087" fill="#333" d="M1252.1 255.5H1785v233.2h-532.9z" transform="matrix(.88625 .4632 -.91073 .413 0 0)"/><g id="g2434" fill="#4d4d4d"><g id="g2135" transform="matrix(1 .52266 -1.02444 .46457 1113.3 183.3)"><use xlink:href="#rect2089"/><use xlink:href="#rect2091"/><use xlink:href="#rect2093"/><use xlink:href="#rect2095"/><use xlink:href="#rect2097"/><use xlink:href="#rect2099"/><use xlink:href="#rect2101"/><use xlink:href="#rect2103"/><use xlink:href="#rect2105"/><use xlink:href="#rect2107"/><use xlink:href="#rect2109"/></g><path id="rect2137" d="M1267.4 313.2h34.9v34.7h-34.9z" transform="matrix(.88625 .4632 -.91073 .413 0 0)"/><path id="rect2139" d="M1309.4 313.2h34.9v34.7h-34.9z" transform="matrix(.88625 .4632 -.91073 .413 0 0)"/><path id="rect2141" d="M1351.5 313.2h34.9v34.7h-34.9z" transform="matrix(.88625 .4632 -.91073 .413 0 0)"/><path id="rect2143" d="M1393.6 313.2h34.9v34.7h-34.9z" transform="matrix(.88625 .4632 -.91073 .413 0 0)"/><path id="rect2145" d="M1477.8 313.2h34.9v34.7h-34.9z" transform="matrix(.88625 .4632 -.91073 .413 0 0)"/><path id="rect2147" d="M1519.9 313.2h49.8v34.7h-49.8z" transform="matrix(.88625 .4632 -.91073 .413 0 0)"/><path id="rect2149" d="M1435.7 313.2h34.9v34.7h-34.9z" transform="matrix(.88625 .4632 -.91073 .413 0 0)"/><path id="rect2151" d="M1099 852.8l-31.6 14.4 31 16.1L1130 869z"/><path id="rect2153" d="M1654.3 313.2h34.9v34.7h-34.9z" transform="matrix(.88625 .4632 -.91073 .413 0 0)"/><path id="rect2155" d="M1696.8 313.2h34.9v34.7h-34.9z" transform="matrix(.88625 .4632 -.91073 .413 0 0)"/><path id="rect2157" d="M1739.2 313.2h34.9v34.7h-34.9z" transform="matrix(.88625 .4632 -.91073 .413 0 0)"/><g id="g2183" transform="matrix(1 .52266 -1.02444 .46457 1036.2 218.2)"><use id="rect2161" xlink:href="#rect2089"/><use id="rect2163" xlink:href="#rect2091"/><use id="rect2165" xlink:href="#rect2093"/><use id="rect2167" xlink:href="#rect2095"/><use id="rect2169" xlink:href="#rect2097"/><use id="rect2171" xlink:href="#rect2099"/><use id="rect2173" xlink:href="#rect2101"/><use id="rect2175" xlink:href="#rect2103"/><use id="rect2177" xlink:href="#rect2105"/><use id="rect2179" xlink:href="#rect2107"/><use id="rect2181" xlink:href="#rect2109"/></g><g id="g2207" transform="matrix(1 .52266 -1.02444 .46457 997.7 235.7)"><use id="rect2185" xlink:href="#rect2089"/><use id="rect2187" xlink:href="#rect2091"/><use id="rect2189" xlink:href="#rect2093"/><use id="rect2191" xlink:href="#rect2095"/><use id="rect2193" xlink:href="#rect2097"/><use id="rect2195" xlink:href="#rect2099"/><use id="rect2197" xlink:href="#rect2101"/><use id="rect2199" xlink:href="#rect2103"/><use id="rect2201" xlink:href="#rect2105"/><use id="rect2203" xlink:href="#rect2107"/><use id="rect2205" xlink:href="#rect2109"/></g><path id="rect2209" d="M1267.4 440.1h34.9v34.7h-34.9z" transform="matrix(.88625 .4632 -.91073 .413 0 0)"/><path id="rect2211" d="M1309.4 440.1h34.9v34.7h-34.9z" transform="matrix(.88625 .4632 -.91073 .413 0 0)"/><path id="rect2213" d="M797 807.8L765.3 822l37.4 19.6 4.6 2.4 100.8 52.7 31.6-14.4L839 829.7h0z"/><path id="rect2219" d="M1519.9 440.1h34.9v34.7h-34.9z" transform="matrix(.88625 .4632 -.91073 .413 0 0)"/><path id="rect2223" d="M1561.9 440.1h34.9v34.7h-34.9z" transform="matrix(.88625 .4632 -.91073 .413 0 0)"/><path id="rect2225" d="M1654.3 440.1h34.9v34.7h-34.9z" transform="matrix(.88625 .4632 -.91073 .413 0 0)"/><path id="rect2227" d="M1696.8 440.1h34.9v34.7h-34.9z" transform="matrix(.88625 .4632 -.91073 .413 0 0)"/><path id="rect2229" d="M1739.2 440.1h34.9v34.7h-34.9z" transform="matrix(.88625 .4632 -.91073 .413 0 0)"/></g></g><ellipse id="ellipse2557" cx="1411.3" cy="383.7" fill="#6dd4f1" fill-opacity="1" stroke="#000" stroke-linecap="round" stroke-linejoin="round" paint-order="fill markers stroke" rx="11.4" ry="11.2"/><ellipse id="ellipse2559" cx="2042.6" cy="84.7" fill="#6dd4f1" fill-opacity="1" stroke="#000" stroke-linecap="round" stroke-linejoin="round" paint-order="fill markers stroke" rx="11.4" ry="11.2"/><ellipse id="ellipse2561" cx="1877.4" cy="560.8" fill="#6dd4f1" fill-opacity="1" stroke="#000" stroke-linecap="round" stroke-linejoin="round" paint-order="fill markers stroke" rx="11.4" ry="11.2"/><ellipse id="ellipse2563" cx="1877.4" cy="941" fill="#6dd4f1" fill-opacity="1" stroke="#000" stroke-linecap="round" stroke-linejoin="round" paint-order="fill markers stroke" rx="11.4" ry="11.2"/><ellipse id="ellipse2565" cx="1499.8" cy="627.6" fill="#6dd4f1" fill-opacity="1" stroke="#000" stroke-linecap="round" stroke-linejoin="round" paint-order="fill markers stroke" rx="11.4" ry="11.2"/><ellipse id="ellipse2567" cx="1719.6" cy="322.9" fill="#e5afa8" fill-opacity="1" stroke="#000" stroke-linecap="round" stroke-linejoin="round" paint-order="fill markers stroke" rx="6" ry="5.9"/><ellipse id="ellipse2569" cx="1976.2" cy="247" fill="#e5afa8" fill-opacity="1" stroke="#000" stroke-linecap="round" stroke-linejoin="round" paint-order="fill markers stroke" rx="6" ry="5.9"/><ellipse id="ellipse2571" cx="2022.1" cy="608.2" fill="#e5afa8" fill-opacity="1" stroke="#000" stroke-linecap="round" stroke-linejoin="round" paint-order="fill markers stroke" rx="6" ry="5.9"/><ellipse id="ellipse2573" cx="1838.5" cy="669.8" fill="#e5afa8" fill-opacity="1" stroke="#000" stroke-linecap="round" stroke-linejoin="round" paint-order="fill markers stroke" rx="6" ry="5.9"/><ellipse id="ellipse2575" cx="1611.1" cy="795" fill="#e5afa8" fill-opacity="1" stroke="#000" stroke-linecap="round" stroke-linejoin="round" paint-order="fill markers stroke" rx="6" ry="5.9"/><ellipse id="ellipse2577" cx="1992.9" cy="811.4" fill="#e5afa8" fill-opacity="1" stroke="#000" stroke-linecap="round" stroke-linejoin="round" paint-order="fill markers stroke" rx="6" ry="5.9"/><ellipse id="ellipse2579" cx="1828.1" cy="893.5" fill="#e5afa8" fill-opacity="1" stroke="#000" stroke-linecap="round" stroke-linejoin="round" paint-order="fill markers stroke" rx="6" ry="5.9"/><ellipse id="ellipse2581" cx="1484.8" cy="334.6" fill="#f669d1" fill-opacity="1" stroke="#000" stroke-linecap="round" stroke-linejoin="round" paint-order="fill markers stroke" rx="6" ry="5.9"/><ellipse id="ellipse2583" cx="1914.5" cy="287.4" fill="#f669d1" fill-opacity="1" stroke="#000" stroke-linecap="round" stroke-linejoin="round" paint-order="fill markers stroke" rx="6" ry="5.9"/><ellipse id="ellipse2585" cx="1812.3" cy="523.5" fill="#f669d1" fill-opacity="1" stroke="#000" stroke-linecap="round" stroke-linejoin="round" paint-order="fill markers stroke" rx="6" ry="5.9"/><ellipse id="ellipse2587" cx="1580.7" cy="845.7" fill="#f669d1" fill-opacity="1" stroke="#000" stroke-linecap="round" stroke-linejoin="round" paint-order="fill markers stroke" rx="6" ry="5.9"/></g></g><style id="style2"></style></svg>