<?xml version="1.0" encoding="UTF-8" standalone="no"?><svg xmlns:dc="http://purl.org/dc/elements/1.1/" xmlns:cc="http://creativecommons.org/ns#" xmlns:rdf="http://www.w3.org/1999/02/22-rdf-syntax-ns#" xmlns:svg="http://www.w3.org/2000/svg" xmlns="http://www.w3.org/2000/svg" xmlns:sodipodi="http://sodipodi.sourceforge.net/DTD/sodipodi-0.dtd" xmlns:inkscape="http://www.inkscape.org/namespaces/inkscape" inkscape:version="1.0 (4035a4fb49, 2020-05-01)" sodipodi:docname="go icon.svg" id="svg6" preserveAspectRatio="xMidYMid" version="1.1" viewBox="0 0 374.71399 192" height="192" width="374.71399"><metadata id="metadata12"><rdf:RDF><cc:Work rdf:about=""><dc:format>image/svg+xml</dc:format><dc:type rdf:resource="http://purl.org/dc/dcmitype/StillImage"/><dc:title/></cc:Work></rdf:RDF></metadata><defs id="defs10"/><sodipodi:namedview inkscape:current-layer="svg6" inkscape:window-maximized="1" inkscape:window-y="-8" inkscape:window-x="-8" inkscape:cy="59.364816" inkscape:cx="321.61623" inkscape:zoom="1.3749802" showgrid="false" id="namedview8" inkscape:window-height="705" inkscape:window-width="1366" inkscape:pageshadow="2" inkscape:pageopacity="0" guidetolerance="10" gridtolerance="10" objecttolerance="10" borderopacity="1" bordercolor="#666666" pagecolor="#ffffff"/><path sodipodi:nodetypes="ccccccccccccccccscccccccsccccccccccccccccccccc" d="M155 13l1 1c14 9 23 21 29 35 2 2 1 4-2 4l-5 2-32 8-7 2c-2 0-2 0-5-3-4-4-6-7-11-9l-1-1c-16-7-31-5-45 4a53 53 0 00-26 48c1 19 14 36 34 39 17 2 31-4 42-17l7-9H86c-5 0-6-3-5-7l1-3 12-24v-1c1-2 3-4 6-4h81c3-11 9-22 17-32 18-24 40-36 70-42 25-4 49-2 71 13 19 13 32 32 35 56 4 33-6 61-29 84-16 17-37 27-60 32l-20 2c-22 0-43-7-61-22a78 78 0 01-24-38l-11 16c-18 24-41 39-71 43-24 3-47-2-67-17-41-34-38-91-10-128C38 22 62 7 90 2c23-4 45-2 65 11zm119 36h-1c-23 5-38 20-44 44-4 19 5 39 23 47 14 6 28 5 41-2 20-10 30-26 32-47l-1-9c-5-24-27-38-50-33z" fill="#00acd7" fill-rule="nonzero" id="path2"/></svg>