<?xml version="1.0" encoding="UTF-8"?><svg width="256px" height="288px" viewBox="0 0 256 288" version="1.1" xmlns="http://www.w3.org/2000/svg" xmlns:xlink="http://www.w3.org/1999/xlink" preserveAspectRatio="xMidYMid"><g fill-rule="evenodd"><path d="M152.6 33L211.7 67a25.7 25.7 0 1124.6 42.6V178a25.7 25.7 0 11-25.2 42l-58.8 34a25.7 25.7 0 11-48.9.8l-59.1-34.2A25.7 25.7 0 1119.7 178v-68.3A25.7 25.7 0 1144.3 67l59.1-34.2A25.7 25.7 0 01128 0a25.6 25.6 0 0124.6 33zm-6.2 10.5l59.3 34.2a25.6 25.6 0 0018.5 32V178l-1 .3-77.5-134.1.7-.7zm-36.1.7L32.9 178.3l-1-.3v-68.4a25.5 25.5 0 0018.4-32l59.3-34.1.7.7zm24.9 6l77.4 134.1a25.5 25.5 0 00-7.2 12.6H50.6a25.7 25.7 0 00-7.2-12.5L121 50.3a25.7 25.7 0 0014.3 0zM147 244.8l58.9-34c-.2-.5-.4-1-.5-1.7H50.6c0 .4-.2.7-.3 1l59.2 34.2a25.6 25.6 0 0137.5.5z" fill="#E535AB"/></g></svg>