<svg xmlns="http://www.w3.org/2000/svg" xmlns:xlink="http://www.w3.org/1999/xlink" viewBox="0 0 120.7 132.3"><defs/><defs><linearGradient id="a"><stop offset="0" stop-color="#a3a883"/><stop offset="1" stop-color="#fff"/></linearGradient><linearGradient id="b" x1="41.2" x2="41.4" y1="145.9" y2="159.4" gradientUnits="userSpaceOnUse" xlink:href="#a"/></defs><path fill="#412f1f" stroke="#81c564" stroke-width="11.4" d="M60 126S-11 95 10 17c34-21 95-7 101 0 2 8 22 71-51 109z"/><path fill="#529848" d="M60 18v83s20-11 20-38c0-35-21-39-20-45z"/><path fill="#7cb969" d="M60 18v83S38 90 39 63c1-33 16-35 21-45z"/><path fill="url(#b)" d="M41 158l-1-6 1-6c0-2 0 5 2 6l-1 7-1-1z" transform="translate(-10 -158) scale(1.69782)"/></svg>