<svg xmlns="http://www.w3.org/2000/svg" xmlns:xlink="http://www.w3.org/1999/xlink" viewBox="0 0 120.65 132.292" height="500" width="456"><defs><linearGradient id="a"><stop offset="0" stop-color="#a3a883"/><stop offset="1" stop-color="#fff"/></linearGradient><linearGradient gradientUnits="userSpaceOnUse" y2="159.366" x2="41.394" y1="145.863" x1="41.197" id="b" xlink:href="#a"/></defs><path d="M60.385 126.163S-10.747 94.61 9.681 16.913c34.654-20.428 95.572-7.296 101.408.364 1.46 7.66 21.522 71.132-50.704 108.886z" fill="#412f1f" stroke="#81c564" stroke-width="11.40901065"/><path d="M60.258 17.914c-.904-5.73-.308 83.196-.308 83.196S79.72 89.9 79.854 62.624c.167-34.135-20.366-38.143-19.596-44.71z" fill="#529848"/><path d="M59.958 18.008c.076-1.314.13 83.197.13 83.197s-21.816-10.896-20.73-38.152c.607-32.639 15.181-35.131 20.6-45.045z" fill="#7cb969"/><path d="M40.579 158.429s.123-5.175-.715-6.259c.862-3.301.986-2.291.986-5.765 0-2.44.542 4.83 1.897 5.199-.468 1.084-.887 4.829-.64 7.268.024.468-.986-.394-1.528-.443z" fill="url(#b)" transform="translate(-9.82 -158.493) scale(1.69782)"/></svg>