<?xml version="1.0" encoding="UTF-8" standalone="no"?>
<svg
   xmlns:dc="http://purl.org/dc/elements/1.1/"
   xmlns:cc="http://creativecommons.org/ns#"
   xmlns:rdf="http://www.w3.org/1999/02/22-rdf-syntax-ns#"
   xmlns:svg="http://www.w3.org/2000/svg"
   xmlns="http://www.w3.org/2000/svg"
   xmlns:xlink="http://www.w3.org/1999/xlink"
   xmlns:sodipodi="http://sodipodi.sourceforge.net/DTD/sodipodi-0.dtd"
   xmlns:inkscape="http://www.inkscape.org/namespaces/inkscape"
   sodipodi:docname="MongoDB.svg"
   inkscape:version="1.0 (4035a4fb49, 2020-05-01)"
   id="svg8"
   version="1.1"
   viewBox="0 0 120.65014 132.29167"
   height="500"
   width="456">
  <defs
     id="defs2">
    <linearGradient
       id="linearGradient879"
       inkscape:collect="always">
      <stop
         id="stop875"
         offset="0"
         style="stop-color:#a3a883;stop-opacity:1;" />
      <stop
         id="stop877"
         offset="1"
         style="stop-color:#ffffff;stop-opacity:1" />
    </linearGradient>
    <linearGradient
       gradientUnits="userSpaceOnUse"
       y2="159.36571"
       x2="41.393692"
       y1="145.86348"
       x1="41.196579"
       id="linearGradient881"
       xlink:href="#linearGradient879"
       inkscape:collect="always" />
  </defs>
  <sodipodi:namedview
     units="px"
     inkscape:window-maximized="1"
     inkscape:window-y="-8"
     inkscape:window-x="-8"
     inkscape:window-height="705"
     inkscape:window-width="1366"
     inkscape:snap-global="true"
     showgrid="false"
     inkscape:document-rotation="0"
     inkscape:current-layer="layer1"
     inkscape:document-units="mm"
     inkscape:cy="251.34374"
     inkscape:cx="247.9211"
     inkscape:zoom="0.94914512"
     inkscape:pageshadow="2"
     inkscape:pageopacity="0.0"
     borderopacity="1.0"
     bordercolor="#666666"
     pagecolor="#ffffff"
     id="base" />
  <metadata
     id="metadata5">
    <rdf:RDF>
      <cc:Work
         rdf:about="">
        <dc:format>image/svg+xml</dc:format>
        <dc:type
           rdf:resource="http://purl.org/dc/dcmitype/StillImage" />
        <dc:title></dc:title>
      </cc:Work>
    </rdf:RDF>
  </metadata>
  <g
     id="layer1"
     inkscape:groupmode="layer"
     inkscape:label="Capa 1">
    <g
       transform="matrix(1.8506069,0,0,1.8506069,-256.8976,-180.86018)"
       id="g949">
      <path
         style="fill:#412f1f;fill-opacity:1;stroke:#81c564;stroke-width:6.165;stroke-linecap:butt;stroke-linejoin:miter;stroke-miterlimit:4;stroke-dasharray:none;stroke-opacity:1"
         d="m 171.44795,165.90424 c 0,0 -38.43701,-17.05026 -27.39869,-59.03529 18.72572,-11.038301 51.64357,-3.94225 54.79737,0.19712 0.78845,4.13937 11.62966,38.437 -27.39868,58.83817 z"
         id="path32"
         sodipodi:nodetypes="cccc" />
      <g
         id="g942"
         transform="matrix(0.9174398,0,0,0.9174398,133.51193,12.086381)">
        <path
           sodipodi:nodetypes="ccsc"
           style="fill:#529848;fill-opacity:1;stroke:#000000;stroke-width:0;stroke-linecap:butt;stroke-linejoin:miter;stroke-miterlimit:4;stroke-dasharray:none;stroke-opacity:1"
           d="m 41.274721,103.90185 c -0.53233,-3.37519 -0.181379,49.00202 -0.181379,49.00202 0,0 11.644502,-6.60226 11.723262,-22.66797 0.0986,-20.10551 -11.995078,-22.46608 -11.541883,-26.33405 z"
           id="path861" />
        <path
           sodipodi:nodetypes="cccc"
           id="path863"
           d="m 41.098517,103.95752 c 0.04449,-0.77395 0.07684,49.00202 0.07684,49.00202 0,0 -12.849868,-6.41771 -12.21007,-22.47086 0.357047,-19.22403 8.941355,-20.69201 12.13323,-26.53116 z"
           style="fill:#7cb969;fill-opacity:1;stroke:#000000;stroke-width:0;stroke-linecap:butt;stroke-linejoin:miter;stroke-miterlimit:4;stroke-dasharray:none;stroke-opacity:1" />
        <path
           sodipodi:nodetypes="cccccc"
           id="path867"
           d="m 40.578636,158.4287 c 0,0 0.1232,-5.17421 -0.714536,-6.25833 0.862366,-3.30164 0.985566,-2.29144 0.985566,-5.76555 0,-2.43927 0.54206,4.82927 1.89721,5.19885 -0.46814,1.08412 -0.88701,4.82927 -0.64062,7.26854 0.0246,0.46814 -0.98556,-0.39423 -1.52762,-0.44351 z"
           style="fill:url(#linearGradient881);fill-opacity:1;stroke:#000000;stroke-width:0;stroke-linecap:butt;stroke-linejoin:miter;stroke-miterlimit:4;stroke-dasharray:none;stroke-opacity:1" />
      </g>
    </g>
  </g>
</svg>
