<svg xmlns="http://www.w3.org/2000/svg" id="Layer_2" version="1.1" viewBox="0 0 3618.6 3618.6"><defs/><style id="style2">.st2{fill:none;stroke:#00d8ff;stroke-width:144.7456;stroke-miterlimit:10}</style><circle id="circle6" cx="1806.5" cy="1807.1" r="302.6" fill="#00d8ff"/><path id="path8" d="M1807 1192c406 0 783 58 1068 156 342 118 553 297 553 459 0 169-223 359-591 481-279 92-645 140-1031 140-395 0-769-45-1051-141-356-122-570-314-570-480 0-161 201-338 539-456 286-99 672-159 1082-159z" class="st2"/><path id="path10" d="M1323 1501c203-352 442-649 669-847 273-238 534-331 674-250 146 84 199 373 121 753-59 287-201 628-393 962-198 343-424 644-648 840-283 248-557 337-701 255-139-81-192-344-125-695 56-298 198-662 403-1018z" class="st2"/><path id="path12" d="M1272 2117a3396 3396 0 01-400-1003c-70-356-21-628 119-709 146-85 423 13 713 271 219 195 444 487 638 821 198 342 346 689 404 981 73 369 14 651-130 734-139 80-393-5-664-238a3426 3426 0 01-680-857z" class="st2"/></svg>