<svg xmlns="http://www.w3.org/2000/svg" xmlns:xlink="http://www.w3.org/1999/xlink" viewBox="0 0 1920 1080"><defs/><filter id="a" width="1.05" height="1.07" x="-.03" y="-.03" color-interpolation-filters="sRGB"><feGaussianBlur stdDeviation="7.36"/></filter><filter id="c" width="1.18" height="1.15" x="-.09" y="-.08" color-interpolation-filters="sRGB"><feGaussianBlur stdDeviation="16.03"/></filter><filter id="b" width="1.13" height="1.23" x="-.06" y="-.11" color-interpolation-filters="sRGB"><feGaussianBlur stdDeviation="16.03"/></filter><linearGradient id="e" x1="1259.09" x2="1260.31" y1="874.11" y2="960.81" gradientUnits="userSpaceOnUse"><stop offset="0" stop-color="#a3a883"/><stop offset="1" stop-color="#fff"/></linearGradient><circle cx="1509.99" cy="-360.99" fill="#7577de" stroke="#000" stroke-linecap="round" stroke-linejoin="round" stroke-width="1.01" transform="matrix(.7071 .7071 -.83 .55778 0 0)"/><path fill="#4e63d6" d="M2078.22 10.87c-8.43.65-16.58 1.44-24.39 2.37a499.8 499.8 0 00-23.4 3.36 426.12 426.12 0 00-21.5 4.18 364.63 364.63 0 00-19.7 4.93 314.36 314.36 0 00-18.01 5.63 273.33 273.33 0 00-16.39 6.27 240.6 240.6 0 00-14.86 6.84 215.09 215.09 0 00-13.43 7.35 195.77 195.77 0 00-12.08 7.8 186.9 186.9 0 00-10.83 8.2 172.84 172.84 0 00-18.26 17.3c-5.4 5.93-10.13 12-14.34 18.12-4.2 6.12-7.88 12.3-11.14 18.45a237.3 237.3 0 00-8.68 18.27c-5.12 12.02-9.07 23.59-12.84 34.06a337.92 337.92 0 01-5.62 14.8 112.4 112.4 0 01-6.06 12.66 52.3 52.3 0 01-7.21 10.02 35 35 0 01-4.28 3.86 30.61 30.61 0 01-4.83 3.03 82.13 82.13 0 01-12.42 4.94 114.46 114.46 0 01-13.74 3.3c-4.78.87-9.76 1.5-14.88 1.95s-10.4.71-15.8.84a513.9 513.9 0 01-33.53-.51c-11.47-.49-23.14-1.16-34.74-1.66s-23.12-.83-34.3-.63c-5.6.1-11.1.34-16.47.75-5.39.4-10.64 1-15.75 1.81-5.1.81-10.05 1.85-14.8 3.15a102.1 102.1 0 00-13.68 4.76 79.78 79.78 0 00-12.32 6.63 68.81 68.81 0 00-10.78 8.8 60.02 60.02 0 00-4.85 5.51 74.92 74.92 0 00-4.31 6.18 114.23 114.23 0 00-7.38 14.02 244.88 244.88 0 00-6.29 15.68c-2 5.43-3.94 11.03-5.93 16.68a500 500 0 01-6.29 17.05 214.54 214.54 0 01-7.36 16.75 133.66 133.66 0 01-9.16 15.8 104.61 104.61 0 01-5.47 7.34c-1.94 2.38-4 4.67-6.19 6.87a83.01 83.01 0 01-6.72 6.03 88.54 88.54 0 01-7.3 5.29 104.06 104.06 0 01-16.24 8.54 140.08 140.08 0 01-18.15 6.16 200.2 200.2 0 01-19.73 4.18 299.24 299.24 0 01-21.01 2.61 466.5 466.5 0 01-21.99 1.45c-14.9.66-30.26.82-45.64 1s-30.79.39-45.81 1.16c-7.51.38-14.92.9-22.19 1.64-7.26.74-14.38 1.68-21.3 2.9a201.47 201.47 0 00-20.1 4.56 145.1 145.1 0 00-18.59 6.6 112 112 0 00-16.76 9.08 91.32 91.32 0 00-14.64 11.93 159.88 159.88 0 00-14.03 16.13 185.73 185.73 0 00-12.03 17.93c-3.7 6.25-7.1 12.77-10.24 19.5a284.36 284.36 0 00-8.7 20.82 367.7 367.7 0 00-7.36 21.91 490.17 490.17 0 00-6.28 22.76 832.71 832.71 0 00-10.19 47.13c-3.03 15.9-5.79 31.9-8.58 47.68a1468 1468 0 01-8.81 46.35 623.21 623.21 0 01-5.06 22.07c-1.8 7.2-3.73 14.22-5.82 21.03a293 293 0 01-6.78 19.74 212.06 212.06 0 01-8 18.23 148.66 148.66 0 01-33.03 43.71 172.74 172.74 0 01-13.92 11.49 198.7 198.7 0 01-15.13 10.17 235.5 235.5 0 01-16.2 8.99 286.12 286.12 0 01-17.14 7.95 355.27 355.27 0 01-17.94 7.04 515.37 515.37 0 01-37.7 11.92A1005.65 1005.65 0 01885.6 900c-26.4 6.2-53.04 11.81-78.45 18.28a609.34 609.34 0 00-37 10.53 381.72 381.72 0 00-17.45 6.1 290.98 290.98 0 00-16.57 6.81 227.04 227.04 0 00-15.54 7.7c-5 2.72-9.8 5.61-14.38 8.7a149.45 149.45 0 00-13.08 9.83 128.28 128.28 0 00-11.63 11.12 113.13 113.13 0 00-18.37 26.62 118.77 118.77 0 00-5.89 14.37v110.34h1420.97z"/><g stroke="#000" stroke-linecap="round" stroke-linejoin="round" stroke-width="0"><path d="M2031.8 651.89a273.35 273.35 0 00-22.99 2.74c-3.6.61-7.04 1.28-10.34 2.01a172.65 172.65 0 00-18.15 5.07c-2.75.96-5.38 1.96-7.88 3.01a115.9 115.9 0 00-7.15 3.28 103.57 103.57 0 00-12.27 7.28 87.49 87.49 0 00-9.86 8.02 80.9 80.9 0 00-11.03 12.91 90.47 90.47 0 00-5.37 8.86 113.77 113.77 0 00-4.17 8.77c-2.46 5.76-4.36 11.32-6.18 16.34-.9 2.52-1.78 4.9-2.7 7.1a53.89 53.89 0 01-2.91 6.08 25.1 25.1 0 01-3.48 4.81 14.73 14.73 0 01-4.38 3.3 39.56 39.56 0 01-5.97 2.38c-2.1.65-4.31 1.18-6.61 1.59s-4.7.71-7.16.93-5 .34-7.6.4c-5.19.13-10.61-.01-16.13-.24s-11.13-.55-16.71-.8c-5.58-.24-11.13-.4-16.5-.3-2.7.05-5.34.16-7.93.36s-5.12.48-7.58.87c-2.45.39-4.83.89-7.12 1.51a49.2 49.2 0 00-6.58 2.29 38.4 38.4 0 00-5.93 3.18 33.1 33.1 0 00-5.18 4.22 34.82 34.82 0 00-4.41 5.61 54.78 54.78 0 00-3.55 6.73c-1.07 2.4-2.06 4.92-3.02 7.53-.96 2.6-1.9 5.29-2.86 8a239.6 239.6 0 01-3.02 8.19 102.85 102.85 0 01-3.54 8.04 64.11 64.11 0 01-4.4 7.58 50.2 50.2 0 01-5.62 6.82 39.91 39.91 0 01-6.75 5.43 50.1 50.1 0 01-7.8 4.1 67.5 67.5 0 01-8.74 2.96 96.5 96.5 0 01-9.49 2c-3.27.54-6.65.95-10.1 1.26-3.46.31-7 .53-10.58.7-7.18.31-14.57.39-21.96.47-7.4.09-14.81.19-22.04.56-3.61.18-7.18.44-10.68.79-3.49.35-6.91.8-10.24 1.4-3.33.58-6.56 1.3-9.67 2.18s-6.1 1.92-8.94 3.17a53.4 53.4 0 00-8.07 4.35 46.38 46.38 0 00-7.04 5.73 76.78 76.78 0 00-6.75 7.74c-2.09 2.73-4.01 5.6-5.79 8.6s-3.41 6.13-4.93 9.37a136.3 136.3 0 00-4.18 10 176.22 176.22 0 00-3.54 10.5 234.94 234.94 0 00-3.02 10.93 398.9 398.9 0 00-4.9 22.62c-1.46 7.64-2.79 15.31-4.13 22.89a685.88 685.88 0 01-4.24 22.24 298.7 298.7 0 01-2.44 10.6c-.86 3.45-1.79 6.82-2.8 10.09-1 3.27-2.08 6.43-3.26 9.47a101.64 101.64 0 01-3.84 8.75 71.28 71.28 0 01-15.9 20.98 83.04 83.04 0 01-6.69 5.51 95.56 95.56 0 01-7.28 4.89 113.34 113.34 0 01-7.8 4.31 137.84 137.84 0 01-8.24 3.82 168 168 0 01-8.63 3.38c-5.87 2.12-11.94 4-18.14 5.72a484.74 484.74 0 01-18.86 4.77c-12.7 2.97-25.52 5.66-37.74 8.77a293.62 293.62 0 00-17.8 5.05c-2.86.93-5.66 1.9-8.4 2.93a140.2 140.2 0 00-7.97 3.27 109.3 109.3 0 00-7.48 3.7 86.1 86.1 0 00-6.91 4.17 71.87 71.87 0 00-6.3 4.72 61.64 61.64 0 00-5.6 5.33 55.92 55.92 0 00-8.83 12.78c-1.08 2.17-2 4.5-2.83 6.9v52.96h683.6z" filter="url(#a)" transform="matrix(1.70244 0 0 1.7064 -1380.48 -898.58)"/><path fill="#5523c2" d="M2031.8 651.89a273.35 273.35 0 00-22.99 2.74c-3.6.61-7.04 1.28-10.34 2.01a172.65 172.65 0 00-18.15 5.07c-2.75.96-5.38 1.96-7.88 3.01a115.9 115.9 0 00-7.15 3.28 103.57 103.57 0 00-12.27 7.28 87.49 87.49 0 00-9.86 8.02 80.9 80.9 0 00-11.03 12.91 90.47 90.47 0 00-5.37 8.86 113.77 113.77 0 00-4.17 8.77c-2.46 5.76-4.36 11.32-6.18 16.34-.9 2.52-1.78 4.9-2.7 7.1a53.89 53.89 0 01-2.91 6.08 25.1 25.1 0 01-3.48 4.81 14.73 14.73 0 01-4.38 3.3 39.56 39.56 0 01-5.97 2.38c-2.1.65-4.31 1.18-6.61 1.59s-4.7.71-7.16.93-5 .34-7.6.4c-5.19.13-10.61-.01-16.13-.24s-11.13-.55-16.71-.8c-5.58-.24-11.13-.4-16.5-.3-2.7.05-5.34.16-7.93.36s-5.12.48-7.58.87c-2.45.39-4.83.89-7.12 1.51a49.2 49.2 0 00-6.58 2.29 38.4 38.4 0 00-5.93 3.18 33.1 33.1 0 00-5.18 4.22 34.82 34.82 0 00-4.41 5.61 54.78 54.78 0 00-3.55 6.73c-1.07 2.4-2.06 4.92-3.02 7.53-.96 2.6-1.9 5.29-2.86 8a239.6 239.6 0 01-3.02 8.19 102.85 102.85 0 01-3.54 8.04 64.11 64.11 0 01-4.4 7.58 50.2 50.2 0 01-5.62 6.82 39.91 39.91 0 01-6.75 5.43 50.1 50.1 0 01-7.8 4.1 67.5 67.5 0 01-8.74 2.96 96.5 96.5 0 01-9.49 2c-3.27.54-6.65.95-10.1 1.26-3.46.31-7 .53-10.58.7-7.18.31-14.57.39-21.96.47-7.4.09-14.81.19-22.04.56-3.61.18-7.18.44-10.68.79-3.49.35-6.91.8-10.24 1.4-3.33.58-6.56 1.3-9.67 2.18s-6.1 1.92-8.94 3.17a53.4 53.4 0 00-8.07 4.35 46.38 46.38 0 00-7.04 5.73 76.78 76.78 0 00-6.75 7.74c-2.09 2.73-4.01 5.6-5.79 8.6s-3.41 6.13-4.93 9.37a136.3 136.3 0 00-4.18 10 176.22 176.22 0 00-3.54 10.5 234.94 234.94 0 00-3.02 10.93 398.9 398.9 0 00-4.9 22.62c-1.46 7.64-2.79 15.31-4.13 22.89a685.88 685.88 0 01-4.24 22.24 298.7 298.7 0 01-2.44 10.6c-.86 3.45-1.79 6.82-2.8 10.09-1 3.27-2.08 6.43-3.26 9.47a101.64 101.64 0 01-3.84 8.75 71.28 71.28 0 01-15.9 20.98 83.04 83.04 0 01-6.69 5.51 95.56 95.56 0 01-7.28 4.89 113.34 113.34 0 01-7.8 4.31 137.84 137.84 0 01-8.24 3.82 168 168 0 01-8.63 3.38c-5.87 2.12-11.94 4-18.14 5.72a484.74 484.74 0 01-18.86 4.77c-12.7 2.97-25.52 5.66-37.74 8.77a293.62 293.62 0 00-17.8 5.05c-2.86.93-5.66 1.9-8.4 2.93a140.2 140.2 0 00-7.97 3.27 109.3 109.3 0 00-7.48 3.7 86.1 86.1 0 00-6.91 4.17 71.87 71.87 0 00-6.3 4.72 61.64 61.64 0 00-5.6 5.33 55.92 55.92 0 00-8.83 12.78c-1.08 2.17-2 4.5-2.83 6.9v52.96h683.6z" transform="matrix(1.70244 0 0 1.7064 -1380.48 -898.58)"/></g><path d="M1357.85 695.8s370.89 172.3 369.52 172.82c0 0 10.47 20.6-4.92 37.31-4 4.36-173.69 116.37-173.69 116.37-25.2 11.56-44.56 12.15-64.01 4.28L1124.52 850.8c-11.65-4.6-10.2-28.04-6.35-30.6L1289 705.94c21-14.05 51.5-18.55 68.85-10.14z" filter="url(#b)"/><path fill="#999" d="M1357.85 695.8s370.89 172.3 369.52 172.82c0 0 10.47 20.6-4.92 37.31-4 4.36-173.69 116.37-173.69 116.37-25.2 11.56-44.56 12.15-64.01 4.28L1124.52 850.8c-11.65-4.6-10.2-28.04-6.35-30.6L1289 705.94c21-14.05 51.5-18.55 68.85-10.14z"/><path d="M1380.25 366.33l380.5 188.18c8.99 14.87 11.42 18.83 9.36 37.42 0 0-15.04 189.19-19.25 242.53-3.04 22.23-19.85 34.2-40.7 24.18L1353.53 687.3c-16.57-8.36-20.85-29.48-19.12-46.63l20.63-261.77c8.1-13.66 7.3-15.94 25.2-12.56z" filter="url(#c)"/><path fill="#e6e6e6" d="M1380.25 366.33l380.5 188.18c8.99 14.87 11.42 18.83 9.36 37.42 0 0-15.04 189.19-19.25 242.53-3.04 22.23-19.85 34.2-40.7 24.18L1353.53 687.3c-16.57-8.36-20.85-29.48-19.12-46.63l20.63-261.77c8.1-13.66 7.3-15.94 25.2-12.56z"/><path fill="#333" d="M1542.45 457.04v311.29l159.65 78.03c15.15 7.41 30.58 2.1 34.75-12.17 3.86-29.8 17.43-242.6 17.43-242.6 4.17-14.26-4.62-31.8-19.7-39.32z"/><path fill="#1a1a1a" d="M1375.27 377.45c-4.92.61-6.9 5.23-9.99 14.4l-19.6 246.88c-1.56 15.42 2.33 34.41 17.42 41.93l179.35 87.67V457l-154.24-76.44c-5.96-2.4-9.98-3.47-12.94-3.1z"/><path fill="#ccc" d="M1358.82 687.04l360.9 175.59c16.9 8.22 14 25.82-6.47 39.45l-158.1 105.3c-20.49 13.64-50.57 18-67.47 9.78l-360.89-175.6c-16.9-8.21-14.01-25.8 6.46-39.45l158.12-105.3c20.47-13.63 50.56-18 67.45-9.77z"/><path d="M1335.07 852.94l106.8 53.17c5 2.5 4.09 7.7-2.05 11.67l-47.38 30.7c-6.14 3.97-15.1 5.17-20.1 2.68l-106.8-53.17c-5-2.49-4.1-7.7 2.04-11.67l47.4-30.7c6.13-3.97 15.1-5.17 20.1-2.68z"/><g stroke="#fff" stroke-width="0" transform="translate(134.15 -88.09) scale(1.39406)"><path id="d" stroke-linecap="round" stroke-linejoin="round" d="M1093.16 677.36a4 5.47 69.2 01-7.4.21 4 5.47 69.2 011.28-5.96 4 5.47 69.2 017.4-.21 4 5.47 69.2 01-1.28 5.96z"/><use width="100%" height="100%" transform="translate(13.99 6.75)" xlink:href="#d"/><use width="100%" height="100%" transform="translate(27.52 13.58)" xlink:href="#d"/></g><path d="M1289.28 795.93l21.4 10.83-23.09 15.2-21.14-10.7zM1317.41 810.16l21.4 10.82-23.08 15.2-21.14-10.69zM1458.1 881.29l21.4 10.82-23.09 15.2-21.14-10.69zM1486.23 895.51l21.4 10.83-23.08 15.2-21.14-10.7zM1514.37 909.74l21.4 10.82-23.09 15.2-21.14-10.69zM1542.5 923.97l21.4 10.82-23.08 15.2-21.14-10.7zM1319.2 775.89l21.4 10.82-23.08 15.2-21.14-10.69zM1347.34 790.12l21.4 10.82-23.09 15.2-21.14-10.7zM1375.47 804.34l21.4 10.83-23.08 15.2-21.14-10.7zM1403.61 818.57l21.4 10.82-23.08 15.2-21.14-10.69zM1431.75 832.8l21.4 10.82-23.09 15.2-21.14-10.7zM1459.88 847.02l21.4 10.82-23.08 15.2-21.14-10.69zM1488.02 861.25l21.4 10.82-23.09 15.2-21.13-10.7zM1516.15 875.47l21.4 10.83-23.08 15.2-21.14-10.7zM1544.3 889.7l21.4 10.82-23.1 15.2-21.13-10.69zM1572.43 903.92l21.4 10.83-23.09 15.2-21.14-10.7zM1349.13 755.85l21.4 10.82-23.09 15.2-21.14-10.69zM1377.26 770.07l21.4 10.83-23.08 15.2-21.14-10.7zM1405.4 784.3l21.4 10.83-23.09 15.2-21.14-10.7zM1433.53 798.53l21.4 10.82-23.08 15.2-21.14-10.7zM1461.67 812.75l21.4 10.83-23.08 15.2-21.14-10.7zM1489.8 826.98l21.4 10.82-23.08 15.2-21.14-10.69zM1517.94 841.2l21.4 10.83-23.08 15.2-21.14-10.7zM1546.08 855.43l21.4 10.83-23.09 15.2-21.13-10.7zM1574.21 869.66l21.4 10.82-23.08 15.2-21.14-10.69zM1602.35 883.88l21.4 10.83-23.08 15.2-21.14-10.7z"/><g stroke="#000" stroke-linecap="round" stroke-linejoin="round" stroke-width="0"><path d="M1139.96 825.03l16.81 9.15-16.3 12.9-16.6-9.05zM1161.06 808.03l16.81 9.15-16.3 12.9-16.6-9.05zM1182.16 791.03l16.81 9.15-16.3 12.9-16.6-9.05zM1203.26 774.03l16.8 9.15-16.29 12.9-16.6-9.05z" transform="matrix(1.33167 .00118 -.10745 1.18036 -168.26 -193.47)"/></g><path d="M1379.05 735.8l21.4 10.83-23.09 15.2-21.13-10.69zM1407.18 750.03l21.4 10.83-23.08 15.2-21.14-10.7zM1435.32 764.26l21.4 10.82-23.08 15.2-21.14-10.69zM1463.46 778.48l21.4 10.83-23.09 15.2-21.14-10.7zM1491.6 792.71l21.4 10.83-23.1 15.2-21.13-10.7zM1519.73 806.94l21.4 10.82-23.08 15.2-21.14-10.69zM1547.87 821.16l21.4 10.83-23.09 15.2-21.14-10.7zM1576 835.39l21.4 10.82-23.08 15.2-21.14-10.69zM1604.14 849.62l21.4 10.82-23.09 15.2-21.14-10.7zM1632.27 863.84l21.4 10.83-23.08 15.2-21.14-10.7zM1346.8 825.13l105.42 53.07-22.56 15.5-105.68-53.23z"/><g stroke-width="0"><g stroke="#000" stroke-linecap="round" stroke-linejoin="round"><path d="M1382.56 957.25l16.8 9.15-16.29 12.9-16.6-9.05zM1404.16 940.61l16.81 9.15-16.3 12.9-16.6-9.04zM1425.77 923.97l16.8 9.16-16.29 12.89-16.6-9.04zM1447.37 907.33l16.81 9.16-16.3 12.9-16.6-9.05z" transform="matrix(1.33167 .00118 -.10745 1.18036 -168.26 -193.47)"/></g><g stroke="#000" stroke-linecap="round" stroke-linejoin="round"><path d="M1119.85 813.85l16.8 9.15-16.29 12.9-16.6-9.04zM1140.21 797.21l16.81 9.16-16.3 12.89-16.6-9.04zM1160.57 780.57l16.81 9.16-16.3 12.9-16.6-9.05zM1180.94 763.94l16.8 9.15-16.29 12.9-16.6-9.05z" transform="matrix(1.33167 .00118 -.10745 1.18036 -168.26 -193.47)"/></g><g stroke="#000" stroke-linecap="round" stroke-linejoin="round"><path fill="#1a1a1a" d="M1974.87 337.62h158.04v549.45h-158.04z" transform="matrix(.5127 .25422 -.0376 .4665 369.44 -264.52)"/><path fill="#333" d="M2133.36 337.85h579.71V887.3h-579.71z" transform="matrix(.5127 .25422 -.0376 .4665 369.44 -264.52)"/><path fill="#fff" d="M1501.78 391.32v-9.24c0-.66 9.57-1.22 21.47-1.27l107.45-.4c11.89-.04 21.46.45 21.46 1.11v9.24c0 .66-9.57 1.23-21.46 1.27l-107.45.4c-11.9.05-21.47-.45-21.47-1.1z" transform="matrix(.51257 .25593 -.0376 .4665 732.83 -92.72)"/><path fill="#f55" d="M1657.71 390.74v-9.24c0-.66 14.94-1.24 33.5-1.31l167.67-.63c18.56-.07 33.5.4 33.5 1.07v9.24c0 .65-14.94 1.24-33.5 1.31l-167.67.63c-18.56.07-33.5-.4-33.5-1.07z" transform="matrix(.51257 .25593 -.0376 .4665 732.83 -92.72)"/><path fill="#fff" d="M1501.78 410.4v-9.24c0-.66 12.64-1.23 28.33-1.3l141.83-.52c15.7-.06 28.33.42 28.33 1.08v9.24c0 .66-12.64 1.24-28.33 1.3l-141.83.53c-15.7.06-28.33-.43-28.33-1.09z" transform="matrix(.51257 .25593 -.0376 .4665 732.83 -92.72)"/><path fill="#2a7fff" d="M1705.13 409.64v-9.24c0-.66 8.1-1.22 18.15-1.25l90.89-.34c10.06-.04 18.15.46 18.15 1.12v9.24c0 .66-8.1 1.22-18.15 1.26l-90.89.34c-10.06.03-18.15-.47-18.15-1.13z" transform="matrix(.51257 .25593 -.0376 .4665 732.83 -92.72)"/><path fill="#ffd42a" d="M1501.78 429.48v-9.24c0-.66 12.64-1.24 28.33-1.3l141.83-.52c15.7-.06 28.33.42 28.33 1.08v9.24c0 .66-12.64 1.24-28.33 1.3l-141.83.53c-15.7.05-28.33-.43-28.33-1.09z" transform="matrix(.51257 .25593 -.0376 .4665 732.83 -92.72)"/><path fill="#fff" d="M1501.78 448.56v-9.24c0-.66 3.52-1.2 7.88-1.22l39.44-.15c4.37-.01 7.88.5 7.88 1.16v9.24c0 .66-3.51 1.2-7.88 1.22l-39.44.15c-4.36.02-7.88-.5-7.88-1.16zM1495.46 772.92v-9.24c0-.66 3.51-1.2 7.88-1.22l39.44-.14c4.37-.02 7.88.5 7.88 1.16v9.24c0 .66-3.51 1.2-7.88 1.22l-39.44.14c-4.37.02-7.88-.5-7.88-1.16zM1520.75 467.57v-9.24c0-.66 6.46-1.22 14.5-1.25l72.56-.27c8.03-.03 14.5.48 14.5 1.14v9.24c0 .66-6.47 1.21-14.5 1.24l-72.57.27c-8.03.03-14.5-.47-14.5-1.13zM1520.75 658.36v-9.24c0-.66 6.46-1.22 14.5-1.25l72.56-.27c8.03-.03 14.5.48 14.5 1.14v9.24c0 .66-6.47 1.21-14.5 1.24l-72.57.27c-8.03.03-14.5-.47-14.5-1.13z" transform="matrix(.51257 .25593 -.0376 .4665 732.83 -92.72)"/><path fill="#2a7fff" d="M1553.96 505.6v-9.24c0-.66 17.33-1.25 38.86-1.33l194.52-.73c21.53-.08 38.86.39 38.86 1.05v9.24c0 .65-17.33 1.25-38.86 1.33l-194.52.73c-21.53.08-38.86-.39-38.86-1.05z" transform="matrix(.51257 .25593 -.0376 .4665 732.83 -92.72)"/><path fill="#f55" d="M1553.96 524.68v-9.24c0-.66 23.43-1.28 52.54-1.39l263.03-.98c29.11-.1 52.54.34 52.54 1v9.24c0 .66-23.43 1.27-52.54 1.38l-263.03.98c-29.1.11-52.54-.33-52.54-.99z" transform="matrix(.51257 .25593 -.0376 .4665 732.83 -92.72)"/><path fill="#ffd42a" d="M1553.96 543.76v-9.24c0-.66 3.11-1.2 6.98-1.22l34.97-.13c3.86-.01 6.98.5 6.98 1.17v9.24c0 .66-3.12 1.2-6.98 1.21l-34.97.13c-3.87.02-6.98-.5-6.98-1.16z" transform="matrix(.51257 .25593 -.0376 .4665 732.83 -92.72)"/><path fill="#fff" d="M1553.96 581.92v-9.24c0-.66 10.27-1.23 23.02-1.28l115.27-.43c12.75-.05 23.02.45 23.02 1.1v9.24c0 .66-10.27 1.23-23.02 1.28l-115.27.43c-12.75.05-23.02-.44-23.02-1.1z" transform="matrix(.51257 .25593 -.0376 .4665 732.83 -92.72)"/><path fill="#f55" d="M1553.96 620.07v-9.24c0-.65 12.17-1.23 27.28-1.29l136.55-.5c15.12-.06 27.28.42 27.28 1.08v9.24c0 .66-12.16 1.24-27.28 1.3l-136.55.5c-15.11.06-27.28-.43-27.28-1.09z" transform="matrix(.51257 .25593 -.0376 .4665 732.83 -92.72)"/><path fill="#2a7fff" d="M1611.32 600.78v-9.24c0-.66 12.16-1.23 27.27-1.29l136.5-.51c15.1-.06 27.26.43 27.26 1.09v9.24c0 .66-12.16 1.23-27.27 1.29l-136.49.51c-15.1.06-27.27-.43-27.27-1.09z" transform="matrix(.51257 .25593 -.0376 .4665 732.83 -92.72)"/><path fill="#fff" d="M1586.95 486.4v-9.24c0-.66 11.3-1.23 25.32-1.28l126.77-.48c14.03-.05 25.33.44 25.33 1.1v9.24c0 .66-11.3 1.23-25.33 1.28l-126.77.48c-14.03.05-25.32-.44-25.32-1.1z" transform="matrix(.51257 .25593 -.0376 .4665 732.83 -92.72)"/><path fill="#2a7fff" d="M1536.55 486.59v-9.24c0-.66 2.5-1.2 5.62-1.21l28.15-.1c3.12-.02 5.63.5 5.63 1.16v9.24c0 .66-2.51 1.2-5.63 1.21l-28.15.1c-3.11.02-5.62-.5-5.62-1.16z" transform="matrix(.51257 .25593 -.0376 .4665 732.83 -92.72)"/><path fill="#fff" d="M1470.73 887.49v-9.24c0-.66 2.9-1.2 6.5-1.22l32.58-.12c3.6-.01 6.5.5 6.5 1.17v9.24c0 .66-2.9 1.2-6.5 1.21l-32.57.12c-3.6.02-6.5-.5-6.5-1.16zM1470.73 372.36v-9.24c0-.66 2.9-1.2 6.5-1.21l32.58-.13c3.6 0 6.5.51 6.5 1.17v9.24c0 .66-2.9 1.2-6.5 1.22l-32.57.12c-3.6.01-6.5-.51-6.5-1.17z" transform="matrix(.51257 .25593 -.0376 .4665 732.83 -92.72)"/><path fill="#2a7fff" d="M1536.55 639.22v-9.24c0-.66 2.5-1.2 5.62-1.21l28.15-.1c3.12-.02 5.63.5 5.63 1.16v9.24c0 .66-2.51 1.2-5.63 1.21l-28.15.1c-3.11.02-5.62-.5-5.62-1.16z" transform="matrix(.51257 .25593 -.0376 .4665 732.83 -92.72)"/><path fill="#fff" d="M1536.55 677.38v-9.24c0-.66 2.5-1.2 5.62-1.22l28.15-.1c3.12-.01 5.63.51 5.63 1.17v9.24c0 .66-2.51 1.2-5.63 1.21l-28.15.1c-3.11.02-5.62-.5-5.62-1.16zM1536.55 753.7v-9.25c0-.66 2.5-1.2 5.62-1.21l28.15-.1c3.12-.02 5.63.5 5.63 1.16v9.24c0 .66-2.51 1.2-5.63 1.22l-28.15.1c-3.11.01-5.62-.51-5.62-1.17z" transform="matrix(.51257 .25593 -.0376 .4665 732.83 -92.72)"/><path fill="#f55" d="M1588.17 677.18v-9.24c0-.66 6.47-1.21 14.5-1.24l72.57-.27c8.03-.03 14.5.47 14.5 1.13v9.24c0 .66-6.47 1.22-14.5 1.25l-72.57.27c-8.03.03-14.5-.48-14.5-1.14z" transform="matrix(.51257 .25593 -.0376 .4665 732.83 -92.72)"/><path fill="#ffd42a" d="M1699.85 676.77v-9.24c0-.66 1.5-1.2 3.37-1.2l16.86-.07c1.87 0 3.37.52 3.37 1.18v9.24c0 .66-1.5 1.2-3.37 1.2l-16.86.06c-1.86.01-3.37-.51-3.37-1.17z" transform="matrix(.51257 .25593 -.0376 .4665 732.83 -92.72)"/><path fill="#2a7fff" d="M1553.96 562.84v-9.24c0-.66 4.92-1.21 11.02-1.23l55.2-.2c6.1-.03 11.02.48 11.02 1.14v9.24c0 .66-4.92 1.2-11.03 1.23l-55.19.2c-6.1.03-11.02-.48-11.02-1.14z" transform="matrix(.51257 .25593 -.0376 .4665 732.83 -92.72)"/><path fill="#f55" d="M1639.63 562.52v-9.24c0-.66 10.47-1.23 23.47-1.28l117.47-.44c13-.05 23.47.45 23.47 1.1v9.24c0 .66-10.47 1.23-23.47 1.28l-117.47.44c-13 .05-23.47-.44-23.47-1.1z" transform="matrix(.51257 .25593 -.0376 .4665 732.83 -92.72)"/><path fill="#ffd42a" d="M1553.96 601v-9.24c0-.66 3.11-1.2 6.98-1.22l34.97-.13c3.86-.02 6.98.5 6.98 1.16v9.24c0 .66-3.12 1.2-6.98 1.22l-34.97.13c-3.87.01-6.98-.5-6.98-1.16z" transform="matrix(.51257 .25593 -.0376 .4665 732.83 -92.72)"/><path fill="#2a7fff" d="M1637.2 696.08v-9.24c0-.66 7.18-1.22 16.1-1.25l80.67-.3c8.93-.04 16.11.47 16.11 1.13v9.24c0 .66-7.18 1.21-16.11 1.25l-80.66.3c-8.93.03-16.12-.47-16.12-1.13z" transform="matrix(.51257 .25593 -.0376 .4665 732.83 -92.72)"/><path fill="#f55" d="M1553.96 734.55v-9.24c0-.66 12.17-1.24 27.28-1.3l136.55-.5c15.12-.06 27.28.42 27.28 1.08v9.24c0 .66-12.16 1.24-27.28 1.3l-136.55.5c-15.11.06-27.28-.42-27.28-1.08z" transform="matrix(.51257 .25593 -.0376 .4665 732.83 -92.72)"/><path fill="#2a7fff" d="M1607.6 715.27v-9.24c0-.66 12.16-1.24 27.26-1.3l136.5-.5c15.1-.06 27.27.43 27.27 1.09v9.23c0 .66-12.17 1.24-27.27 1.3l-136.5.5c-15.1.06-27.26-.42-27.26-1.08z" transform="matrix(.51257 .25593 -.0376 .4665 732.83 -92.72)"/><path fill="#fff" d="M1553.96 715.47v-9.24c0-.66 3.11-1.2 6.98-1.22l34.97-.13c3.86-.01 6.98.5 6.98 1.17v9.24c0 .66-3.12 1.2-6.98 1.21l-34.97.13c-3.87.02-6.98-.5-6.98-1.16z" transform="matrix(.51257 .25593 -.0376 .4665 732.83 -92.72)"/><path fill="#2a7fff" d="M1553.96 696.39v-9.24c0-.66 4.77-1.2 10.69-1.23l53.51-.2c5.93-.02 10.7.5 10.7 1.15v9.24c0 .66-4.77 1.2-10.7 1.23l-53.51.2c-5.92.02-10.7-.5-10.7-1.15z" transform="matrix(.51257 .25593 -.0376 .4665 732.83 -92.72)"/><path fill="#fff" d="M1495.46 792v-9.24c0-.66 2.37-1.2 5.32-1.2l26.65-.1c2.95-.02 5.32.5 5.32 1.16v9.24c0 .66-2.37 1.2-5.32 1.21l-26.65.1c-2.95.01-5.32-.5-5.32-1.17zM1489.28 868.34v-9.24c0-.66 3.52-1.2 7.88-1.22l39.45-.15c4.36-.01 7.88.5 7.88 1.16v9.24c0 .66-3.52 1.2-7.88 1.22l-39.45.15c-4.36.02-7.88-.5-7.88-1.16zM1538.66 791.84v-9.24c0-.66 10.62-1.23 23.82-1.28l119.24-.44c13.2-.05 23.82.44 23.82 1.1v9.24c0 .66-10.63 1.23-23.82 1.28l-119.24.44c-13.2.05-23.82-.44-23.82-1.1z" transform="matrix(.51257 .25593 -.0376 .4665 732.83 -92.72)"/><path fill="#f55" d="M1532.33 810.94v-9.24c0-.66 5.8-1.2 13-1.24l65.04-.24c7.2-.03 12.99.48 12.99 1.14v9.24c0 .66-5.8 1.22-13 1.24l-65.03.24c-7.2.03-13-.48-13-1.14zM1630.32 810.58v-9.24c0-.66 10.49-1.23 23.52-1.28l117.73-.44c13.03-.05 23.52.44 23.52 1.1v9.24c0 .66-10.49 1.23-23.52 1.28l-117.73.44c-13.03.05-23.52-.44-23.52-1.1z" transform="matrix(.51257 .25593 -.0376 .4665 732.83 -92.72)"/><path fill="#ffd42a" d="M1802.05 809.94v-9.24c0-.66 2.98-1.2 6.68-1.22l33.42-.12c3.7-.02 6.68.5 6.68 1.16v9.24c0 .66-2.98 1.2-6.68 1.22l-33.42.12c-3.7.02-6.68-.5-6.68-1.16z" transform="matrix(.51257 .25593 -.0376 .4665 732.83 -92.72)"/><path fill="#2a7fff" d="M1532.33 830.02v-9.24c0-.66 9.29-1.22 20.82-1.27l104.18-.38c11.53-.05 20.82.45 20.82 1.1v9.25c0 .66-9.29 1.22-20.82 1.27l-104.18.38c-11.53.05-20.82-.45-20.82-1.1z" transform="matrix(.51257 .25593 -.0376 .4665 732.83 -92.72)"/><path fill="#ffd42a" d="M1688.26 829.44v-9.24c0-.66 2.98-1.2 6.68-1.22l33.42-.12c3.7-.01 6.68.5 6.68 1.17v9.24c0 .65-2.98 1.2-6.68 1.21l-33.42.13c-3.7 0-6.68-.51-6.68-1.17z" transform="matrix(.51257 .25593 -.0376 .4665 732.83 -92.72)"/><path fill="#fff" d="M1589.2 848.89v-9.24c0-.66 12.16-1.24 27.26-1.3l136.5-.5c15.1-.06 27.26.43 27.26 1.09v9.24c0 .65-12.16 1.23-27.26 1.29l-136.5.5c-15.1.06-27.26-.42-27.26-1.08z" transform="matrix(.51257 .25593 -.0376 .4665 732.83 -92.72)"/><path fill="#ffd42a" d="M1531.83 849.1v-9.24c0-.66 3.12-1.2 6.99-1.21l34.96-.13c3.87-.02 6.98.5 6.98 1.16v9.24c0 .66-3.11 1.2-6.98 1.22l-34.96.13c-3.87.01-6.99-.5-6.99-1.17z" transform="matrix(.51257 .25593 -.0376 .4665 732.83 -92.72)"/><g fill="#fff"><path d="M1444.45 391.64v-9.32c0-.66 1.19-1.2 2.66-1.21l13.35-.05c1.48 0 2.67.53 2.67 1.2v9.31c0 .66-1.19 1.2-2.67 1.21l-13.35.05c-1.47 0-2.66-.53-2.66-1.19zM1444.45 410.73v-9.32c0-.66 1.19-1.2 2.66-1.2l13.35-.06c1.48 0 2.67.53 2.67 1.2v9.31c0 .67-1.19 1.2-2.67 1.21l-13.35.05c-1.47 0-2.66-.52-2.66-1.19zM1444.45 429.82v-9.32c0-.66 1.19-1.2 2.66-1.2l13.35-.06c1.48 0 2.67.53 2.67 1.2v9.31c0 .67-1.19 1.2-2.67 1.21l-13.35.05c-1.47.01-2.66-.52-2.66-1.19zM1444.45 448.91v-9.31c0-.67 1.19-1.2 2.66-1.21l13.35-.05c1.48-.01 2.67.52 2.67 1.19v9.32c0 .66-1.19 1.2-2.67 1.2l-13.35.06c-1.47 0-2.66-.53-2.66-1.2zM1444.45 468v-9.31c0-.67 1.19-1.2 2.66-1.21l13.35-.05c1.48 0 2.67.52 2.67 1.19v9.32c0 .66-1.19 1.2-2.67 1.2l-13.35.06c-1.47 0-2.66-.53-2.66-1.2zM1444.45 487.1v-9.32c0-.67 1.19-1.2 2.66-1.21l13.35-.05c1.48 0 2.67.53 2.67 1.19v9.32c0 .66-1.19 1.2-2.67 1.2l-13.35.06c-1.47 0-2.66-.53-2.66-1.2zM1444.45 506.19v-9.32c0-.66 1.19-1.2 2.66-1.2l13.35-.06c1.48 0 2.67.53 2.67 1.2v9.31c0 .67-1.19 1.2-2.67 1.21l-13.35.05c-1.47 0-2.66-.52-2.66-1.19zM1444.45 525.28v-9.32c0-.66 1.19-1.2 2.66-1.2l13.35-.06c1.48 0 2.67.53 2.67 1.2v9.31c0 .67-1.19 1.2-2.67 1.21l-13.35.05c-1.47 0-2.66-.52-2.66-1.19zM1444.45 544.37v-9.31c0-.67 1.19-1.21 2.66-1.22l13.35-.04c1.48-.01 2.67.52 2.67 1.19v9.31c0 .67-1.19 1.2-2.67 1.21l-13.35.05c-1.47.01-2.66-.52-2.66-1.19zM1444.45 563.47v-9.32c0-.67 1.19-1.2 2.66-1.21l13.35-.05c1.48 0 2.67.52 2.67 1.19v9.32c0 .66-1.19 1.2-2.67 1.2l-13.35.06c-1.47 0-2.66-.53-2.66-1.2zM1444.45 582.56v-9.32c0-.67 1.19-1.2 2.66-1.21l13.35-.05c1.48 0 2.67.52 2.67 1.19v9.32c0 .66-1.19 1.2-2.67 1.2l-13.35.06c-1.47 0-2.66-.53-2.66-1.2zM1444.45 601.65v-9.32c0-.66 1.19-1.2 2.66-1.21l13.35-.05c1.48 0 2.67.53 2.67 1.2v9.3c0 .67-1.19 1.21-2.67 1.22l-13.35.05c-1.47 0-2.66-.53-2.66-1.2zM1444.45 620.74v-9.32c0-.66 1.19-1.2 2.66-1.2l13.35-.06c1.48 0 2.67.53 2.67 1.2v9.31c0 .67-1.19 1.2-2.67 1.21l-13.35.05c-1.47 0-2.66-.52-2.66-1.19zM1444.45 658.92v-9.31c0-.67 1.19-1.2 2.66-1.21l13.35-.05c1.48-.01 2.67.52 2.67 1.19v9.31c0 .67-1.19 1.21-2.67 1.22l-13.35.05c-1.47 0-2.66-.53-2.66-1.2zM1444.45 868.93v-9.31c0-.67 1.19-1.21 2.66-1.22l13.35-.05c1.48 0 2.67.53 2.67 1.2v9.31c0 .67-1.19 1.2-2.67 1.21l-13.35.05c-1.47.01-2.66-.52-2.66-1.19zM1444.45 372.55v-9.32c0-.67 1.19-1.2 2.66-1.21l13.35-.05c1.48 0 2.67.52 2.67 1.19v9.32c0 .66-1.19 1.2-2.67 1.2l-13.35.06c-1.47 0-2.66-.53-2.66-1.2zM1444.45 888.03v-9.32c0-.67 1.19-1.2 2.66-1.21l13.35-.05c1.48-.01 2.67.52 2.67 1.19v9.32c0 .66-1.19 1.2-2.67 1.2l-13.35.06c-1.47 0-2.66-.53-2.66-1.2zM1444.45 639.83v-9.32c0-.66 1.19-1.2 2.66-1.2l13.35-.06c1.48 0 2.67.53 2.67 1.2v9.31c0 .67-1.19 1.2-2.67 1.21l-13.35.05c-1.47 0-2.66-.52-2.66-1.19zM1444.45 849.84v-9.32c0-.66 1.19-1.2 2.66-1.2l13.35-.06c1.48 0 2.67.53 2.67 1.2v9.31c0 .67-1.19 1.2-2.67 1.21l-13.35.05c-1.47 0-2.66-.52-2.66-1.19zM1444.45 830.75v-9.32c0-.66 1.19-1.2 2.66-1.2l13.35-.06c1.48 0 2.67.53 2.67 1.2v9.31c0 .67-1.19 1.2-2.67 1.21l-13.35.05c-1.47 0-2.66-.52-2.66-1.19zM1444.45 811.66v-9.32c0-.67 1.19-1.2 2.66-1.21l13.35-.05c1.48 0 2.67.52 2.67 1.19v9.32c0 .66-1.19 1.2-2.67 1.2l-13.35.06c-1.47 0-2.66-.53-2.66-1.2zM1444.45 792.57v-9.32c0-.67 1.19-1.2 2.66-1.21l13.35-.05c1.48 0 2.67.52 2.67 1.19v9.32c0 .66-1.19 1.2-2.67 1.2l-13.35.06c-1.47 0-2.66-.53-2.66-1.2zM1444.45 773.47v-9.31c0-.67 1.19-1.2 2.66-1.21l13.35-.05c1.48-.01 2.67.52 2.67 1.19v9.32c0 .66-1.19 1.2-2.67 1.2l-13.35.06c-1.47 0-2.66-.53-2.66-1.2zM1444.45 754.38v-9.32c0-.66 1.19-1.2 2.66-1.2l13.35-.06c1.48 0 2.67.53 2.67 1.2v9.31c0 .67-1.19 1.2-2.67 1.21l-13.35.05c-1.47.01-2.66-.52-2.66-1.19zM1444.45 735.3v-9.33c0-.66 1.19-1.2 2.66-1.2l13.35-.06c1.48 0 2.67.53 2.67 1.2v9.31c0 .67-1.19 1.2-2.67 1.21l-13.35.05c-1.47 0-2.66-.52-2.66-1.19zM1444.45 716.2v-9.32c0-.66 1.19-1.2 2.66-1.2l13.35-.06c1.48 0 2.67.53 2.67 1.2v9.31c0 .67-1.19 1.2-2.67 1.21l-13.35.05c-1.47 0-2.66-.53-2.66-1.19zM1444.45 697.1v-9.31c0-.67 1.19-1.2 2.66-1.21l13.35-.05c1.48 0 2.67.52 2.67 1.19v9.32c0 .66-1.19 1.2-2.67 1.2l-13.35.06c-1.47 0-2.66-.53-2.66-1.2zM1444.45 678.02v-9.32c0-.67 1.19-1.2 2.66-1.21l13.35-.05c1.48 0 2.67.52 2.67 1.19v9.32c0 .66-1.19 1.2-2.67 1.2l-13.35.06c-1.47 0-2.66-.53-2.66-1.2z" opacity=".6" transform="matrix(.51257 .25593 -.0376 .4665 732.83 -92.72)"/><path d="M1307.18 433.39h19.55v16.55h-19.55zM1334.02 437.11h53.18v9.09h-53.18zM1322.43 410.17h53.18v9.09h-53.18zM1296.11 405.92h19.55v16.55h-19.55zM1315.58 382.4h39.48v9.09h-39.48zM1288.21 378.45h19.55V395h-19.55zM1334.02 464.58h67.93v9.09h-67.93zM1307.18 460.85h19.55v16.55h-19.55zM1334.02 492.05h53.18v9.09h-53.18zM1307.18 488.32h19.55v16.55h-19.55zM1322.43 520.12h87.95v9.09h-87.95zM1296.11 515.79h19.55v16.55h-19.55zM1315.58 546.61h78.47v9.09h-78.47zM1288.21 543.26h19.55v16.55h-19.55zM1315.58 574.45h53.18v9.09h-53.18zM1288.21 570.73h19.55v16.55h-19.55z" opacity=".6" transform="matrix(.5127 .25422 -.0376 .4665 732.83 -92.72)"/></g></g><g transform="matrix(.62797 .069 0 .6252 725.04 93.04)"><rect width="222.49" height="218.62" x="788.57" y="54.01" fill="#e44d26" stroke="#fff" stroke-linecap="round" stroke-linejoin="round" rx="26.12" ry="50.05" transform="skewY(15.49) scale(.96367 1)"/><rect width="206.7" height="199.66" x="784.54" y="81.49" fill="#f16529" stroke="#fff" stroke-linecap="round" stroke-linejoin="round" rx="26.1" ry="50.05" transform="skewY(15) scale(.96593 1)"/><path fill="#ebebeb" d="M791.9 320.65L857.5 338v26.12l-36.94-9.76 2.42 27.4 34.53 9.12v26.07l-58.47-15.45m1.15 13.42l26.24 6.94 1.84 21.37 29.24 15.56v27.27l-53.64-29.13"/><path fill="#fff" d="M922.88 355.26l-65.49-17.3v26.12l63.07 16.67m-2.36 26.13l-60.71-16.04v26.13l32.23 8.51-3.05 33.15-29.18.11v27.17l53.52-.7"/></g><g transform="matrix(.6691 .15571 0 .6691 1007.9 -22.58)"><rect width="222.49" height="218.62" x="506.77" y="50.19" fill="#264de4" stroke="#fff" stroke-linecap="round" stroke-linejoin="round" rx="24.36" ry="46.76" transform="skewY(15.49) scale(.96367 1)"/><rect width="206.7" height="199.66" x="503.4" y="75.17" fill="#2965f1" stroke="#fff" stroke-linecap="round" stroke-linejoin="round" rx="24.38" ry="46.76" transform="skewY(15) scale(.96593 1)"/><path fill="#ebebeb" d="M528.04 297.11l2.35 26.74 58.58 15.7v-26.12zm60.92-36.53L523.33 243l2.38 26.75 63.25 16.95zm0 147.83v-27.17h-.1L559.7 365.6l-1.87-21.33-26.28-7.04 3.67 41.98 53.62 29.21z"/><path fill="#fff" d="M621.1 348.16l-3.03 33.05-29.2.04v27.17l53.67-.47.39-4.3 6.15-67.1.64-6.84 4.72-51.58-65.57-17.57v26.11l36.89 9.88-2.38 26.1-34.5-9.24v26.11z"/></g><g transform="matrix(.65512 .09628 .01704 .64838 1370.63 -92.58)"><rect width="222.49" height="218.62" x="497.89" y="297.97" fill="#c4b008" stroke="#fff" stroke-linecap="round" stroke-linejoin="round" rx="25.11" ry="48.09" transform="skewY(15.49) scale(.96367 1)"/><rect width="206.7" height="199.66" x="494.55" y="322.87" fill="#f7df1e" stroke="#fff" stroke-linecap="round" stroke-linejoin="round" rx="25.11" ry="48.09" transform="skewY(15) scale(.96593 1)"/><path d="M594.74 604.54c4.27 9.42 9.81 16.98 19.62 19.61 8.23 2.21 13.5-1.28 13.5-8.04 0-8.11-5.41-12.43-14.48-19.58l-4.97-3.87c-14.35-11.11-23.88-22.77-23.88-42.02 0-17.74 11.37-28.2 29.12-23.44 12.64 3.39 21.73 11.06 28.28 26.51l-15.48 7.68c-3.41-8.19-7.09-12.04-12.8-13.57-5.82-1.56-9.51 1.85-9.51 7.59 0 7.1 3.7 10.95 12.22 17.63l4.97 3.87c16.9 13.14 26.43 24.48 26.43 44.23 0 21.29-14.06 29.18-32.94 24.12-18.47-4.95-30.4-18.6-36.23-33.89zm-70.23-16.77c3.12 7.43 5.96 13.76 12.8 15.59 6.53 1.75 10.65-.19 10.65-12v-80.41l19.88 5.33V597c0 24.49-12.07 32.4-29.69 27.68-15.92-4.27-25.14-16.54-29.82-29.6z"/></g></g><g transform="translate(51.03 -16.26)"><rect width="176.17" height="161.23" x="1628.23" y="-372.58" rx="17.79" ry="31.29" transform="skewY(26.16) scale(.89754 1)"/><rect width="163.46" height="147.24" x="1620.62" y="-344.01" fill="#1a1a1a" rx="17.78" ry="31.29" transform="skewY(25.74) scale(.9008 1)"/><g stroke-width="153.23" transform="matrix(.04112 .01982 0 .03981 1460.34 359.52)"><circle cx="1806.5" cy="1807.1" r="302.6" fill="#00d8ff"/><g fill="none" stroke="#00d8ff" stroke-miterlimit="10" stroke-width="144.75"><path d="M1806.5 1191.9c406.2 0 783.6 58.3 1068.1 156.2 342.8 118 553.6 296.9 553.6 458.9 0 168.8-223.4 358.9-591.5 480.8-278.3 92.2-644.6 140.4-1030.2 140.4-395.4 0-769.7-45.2-1051.2-141.4-356.1-121.7-570.6-314.2-570.6-479.8 0-160.7 201.3-338.2 539.3-456 285.6-99.5 672.3-159.1 1082.5-159.1z"/><path d="M1322.74 1501.3c202.9-351.9 442-649.7 669-847.2 273.5-238 533.8-331.2 674.1-250.3 146.2 84.3 199.3 372.8 121 752.7-59.2 287.2-200.4 628.5-393.1 962.6-197.5 342.5-423.7 644.2-647.6 840-283.3 247.7-557.3 337.3-700.7 254.6-139.2-80.3-192.4-343.3-125.7-695 56.4-297.4 198-662.1 403-1017.4z"/><path d="M1271.5 2116.66c-203.5-351.6-342.1-707.4-399.9-1002.7-69.6-355.8-20.4-627.9 119.8-709 146.1-84.6 422.5 13.5 712.5 271 219.3 194.7 444.4 487.5 637.6 821.3 198.1 342.2 346.6 688.8 404.3 980.5 73.1 369.2 13.9 651.3-129.4 734.2-139.1 80.5-393.5-4.7-664.9-238.2-229.2-197.3-474.5-502.1-680-857.1z"/></g></g></g><g stroke-width="0" transform="matrix(.77873 .07786 0 .77873 1165.8 -213.84)"><rect width="222.49" height="218.62" x="776.99" y="586.43" fill="#81c564" stroke="#fff" stroke-linecap="round" stroke-linejoin="round" rx="21.98" ry="40.18" transform="skewY(15.49) scale(.96367 1)"/><rect width="206.7" height="199.66" x="773" y="613.8" fill="#412f1f" stroke="#fff" stroke-linecap="round" stroke-linejoin="round" rx="21.98" ry="40.18" transform="skewY(15) scale(.96593 1)"/><path fill="#529848" d="M847.93 853.56c-2.09-11.43-.71 157.6-.71 157.6s45.72-9.02 46.03-60.67c.38-64.63-47.1-84.95-45.32-96.93z"/><path fill="#7cb969" d="M847.24 853.55c.18-2.44.3 157.87.3 157.87s-50.45-34.18-47.94-85.2c1.41-61.53 35.1-57.23 47.64-72.67z"/><path fill="url(#e)" d="M1255.1 954.77s.8-33.21-4.58-40.17c5.53-21.18 6.33-14.7 6.33-37 0-15.65 3.47 31 12.17 33.37-3 6.96-5.7 30.99-4.1 46.64.15 3-6.34-2.53-9.81-2.84z" transform="matrix(.61182 .16394 0 .5018 77.3 343.54)"/></g><path d="M1346.35 824.67l21.4 10.82-23.09 15.2-21.14-10.69z"/></svg>