<?xml version="1.0" encoding="UTF-8" standalone="no"?>
<svg
   xmlns:dc="http://purl.org/dc/elements/1.1/"
   xmlns:cc="http://creativecommons.org/ns#"
   xmlns:rdf="http://www.w3.org/1999/02/22-rdf-syntax-ns#"
   xmlns:svg="http://www.w3.org/2000/svg"
   xmlns="http://www.w3.org/2000/svg"
   xmlns:sodipodi="http://sodipodi.sourceforge.net/DTD/sodipodi-0.dtd"
   xmlns:inkscape="http://www.inkscape.org/namespaces/inkscape"
   height="900"
   width="1920"
   inkscape:version="1.0 (4035a4fb49, 2020-05-01)"
   sodipodi:docname="web_cover.svg"
   id="svg197"
   version="1.1"
   viewBox="0 0 1920 900">
  <metadata
     id="metadata203">
    <rdf:RDF>
      <cc:Work
         rdf:about="">
        <dc:format>image/svg+xml</dc:format>
        <dc:type
           rdf:resource="http://purl.org/dc/dcmitype/StillImage" />
        <dc:title></dc:title>
      </cc:Work>
    </rdf:RDF>
  </metadata>
  <defs
     id="defs201">
    <inkscape:path-effect
       message="Utilice la regla de relleno parimpar en el diálogo &lt;b&gt;Relleno y borde&lt;/b&gt; si el resultado no está aplanada después de convertir el recorte en trayectos."
       hide_clip="false"
       flatten="false"
       inverse="true"
       lpeversion="1"
       is_visible="true"
       id="path-effect152"
       effect="powerclip" />
    <inkscape:path-effect
       effect="powerclip"
       id="path-effect2805"
       is_visible="true"
       lpeversion="1"
       inverse="true"
       flatten="false"
       hide_clip="false"
       message="Utilice la regla de relleno parimpar en el diálogo &lt;b&gt;Relleno y borde&lt;/b&gt; si el resultado no está aplanada después de convertir el recorte en trayectos." />
    <inkscape:path-effect
       message="Utilice la regla de relleno parimpar en el diálogo &lt;b&gt;Relleno y borde&lt;/b&gt; si el resultado no está aplanada después de convertir el recorte en trayectos."
       hide_clip="false"
       flatten="false"
       inverse="true"
       lpeversion="1"
       is_visible="true"
       id="path-effect2518"
       effect="powerclip" />
    <rect
       id="rect1575"
       height="227.95284"
       width="613.71918"
       y="89.86602"
       x="462.48123" />
    <filter
       height="1.579419"
       y="-0.28970951"
       width="1.3581862"
       x="-0.17909317"
       id="filter2357"
       style="color-interpolation-filters:sRGB"
       inkscape:collect="always">
      <feGaussianBlur
         id="feGaussianBlur2359"
         stdDeviation="26.87411"
         inkscape:collect="always" />
    </filter>
    <clipPath
       id="clipPath2514"
       clipPathUnits="userSpaceOnUse">
      <ellipse
         ry="23.066916"
         rx="22.901297"
         cy="367.32541"
         cx="2202.73"
         id="ellipse2516"
         style="display:block;fill:#9ba4b4;fill-opacity:1;stroke:#f1f6f9;stroke-width:0;stroke-miterlimit:4;stroke-dasharray:none;stroke-opacity:1" />
    </clipPath>
    <clipPath
       clipPathUnits="userSpaceOnUse"
       id="clipath_lpe_path-effect2805">
      <ellipse
         style="display:none;fill:#9ba4b4;fill-opacity:1;stroke:#f1f6f9;stroke-width:0;stroke-miterlimit:4;stroke-dasharray:none;stroke-opacity:1"
         id="ellipse2807"
         cx="2202.73"
         cy="367.32541"
         rx="22.901297"
         ry="23.066916" />
      <path
         id="lpe_path-effect2805"
         style="fill:#9ba4b4;fill-opacity:1;stroke:#f1f6f9;stroke-width:0;stroke-miterlimit:4;stroke-dasharray:none;stroke-opacity:1"
         class="powerclip"
         d="m 2155.7479,337.22716 h 93.9642 v 77.38691 h -93.9642 z m 69.8834,30.09825 a 22.901297,23.066916 0 0 0 -22.9013,-23.06692 22.901297,23.066916 0 0 0 -22.9013,23.06692 22.901297,23.066916 0 0 0 22.9013,23.06691 22.901297,23.066916 0 0 0 22.9013,-23.06691" />
    </clipPath>
    <clipPath
       id="clipath_lpe_path-effect152"
       clipPathUnits="userSpaceOnUse">
      <ellipse
         ry="23.066916"
         rx="22.901297"
         cy="367.32541"
         cx="2202.73"
         id="ellipse154"
         style="display:none;fill:#9ba4b4;fill-opacity:1;stroke:#f1f6f9;stroke-width:0;stroke-miterlimit:4;stroke-dasharray:none;stroke-opacity:1" />
      <path
         d="m 2176.3731,371.65596 h 72.3042 v 42.95524 h -72.3042 z m 49.2582,-4.33055 a 22.901297,23.066916 0 0 0 -22.9013,-23.06692 22.901297,23.066916 0 0 0 -22.9013,23.06692 22.901297,23.066916 0 0 0 22.9013,23.06691 22.901297,23.066916 0 0 0 22.9013,-23.06691"
         class="powerclip"
         style="fill:#9ba4b4;fill-opacity:1;stroke:#f1f6f9;stroke-width:0;stroke-miterlimit:4;stroke-dasharray:none;stroke-opacity:1"
         id="lpe_path-effect152" />
    </clipPath>
  </defs>
  <sodipodi:namedview
     inkscape:current-layer="svg197"
     inkscape:window-maximized="1"
     inkscape:window-y="-8"
     inkscape:window-x="-8"
     inkscape:cy="421.22708"
     inkscape:cx="588.95331"
     inkscape:zoom="0.3221395"
     inkscape:snap-global="false"
     showgrid="false"
     id="namedview199"
     inkscape:window-height="705"
     inkscape:window-width="1366"
     inkscape:pageshadow="2"
     inkscape:pageopacity="0"
     guidetolerance="10"
     gridtolerance="10"
     objecttolerance="10"
     borderopacity="1"
     bordercolor="#666666"
     pagecolor="#ffffff"
     inkscape:document-rotation="0" />
  <filter
     id="a"
     width="1.05"
     height="1.0700001"
     x="-0.029999999"
     y="-0.029999999"
     color-interpolation-filters="sRGB">
    <feGaussianBlur
       id="feGaussianBlur2"
       stdDeviation="7.36" />
  </filter>
  <filter
     id="c"
     width="1.1799999"
     height="1.15"
     x="-0.090000004"
     y="-0.079999998"
     color-interpolation-filters="sRGB">
    <feGaussianBlur
       id="feGaussianBlur5"
       stdDeviation="16.03" />
  </filter>
  <filter
     id="b"
     width="1.13"
     height="1.23"
     x="-0.059999999"
     y="-0.11"
     color-interpolation-filters="sRGB">
    <feGaussianBlur
       id="feGaussianBlur8"
       stdDeviation="16.03" />
  </filter>
  <linearGradient
     id="e"
     x1="1259.09"
     x2="1260.3101"
     y1="874.10999"
     y2="960.81"
     gradientUnits="userSpaceOnUse">
    <stop
       id="stop11"
       offset="0"
       stop-color="#a3a883" />
    <stop
       id="stop13"
       offset="1"
       stop-color="#fff" />
  </linearGradient>
  <circle
     r="0"
     id="circle16"
     cx="1509.99"
     cy="-360.98999"
     fill="#7577de"
     stroke="#000000"
     stroke-linecap="round"
     stroke-linejoin="round"
     stroke-width="1.01"
     transform="matrix(0.7071,0.7071,-0.83,0.55778,0,0)" />
  <circle
     r="0"
     cx="2934.9094"
     cy="-2248.655"
     fill="#7577de"
     stroke="#000000"
     stroke-linecap="round"
     stroke-linejoin="round"
     stroke-width="1.01"
     transform="matrix(0.70710678,0.70710678,-0.82999231,0.55777483,0,0)"
     id="circle53" />
  <text
     transform="translate(1928.8593,171.79287)"
     xml:space="preserve"
     id="text1573"
     style="font-size:40px;line-height:1.25;font-family:Poppins;-inkscape-font-specification:Poppins;white-space:pre;shape-inside:url(#rect1575);" />
  <g
     transform="translate(-161.42075,-15.521226)"
     id="g1277">
    <rect
       style="fill:#9ba4b4;fill-opacity:1;stroke:#f1f6f9;stroke-width:0;stroke-miterlimit:4;stroke-dasharray:none;stroke-opacity:1"
       id="rect2484"
       width="256.58215"
       height="175.95915"
       x="1109.3171"
       y="665.80042"
       ry="5.9697418" />
    <rect
       ry="17.748592"
       style="fill:#0a1427;fill-opacity:1;stroke:#000000;stroke-width:0;filter:url(#filter2357)"
       id="rect2039"
       width="360.13583"
       height="222.62944"
       x="1267.5568"
       y="481.49313"
       transform="matrix(1.270283,0,0,1.270283,-223.01757,-132.64704)" />
    <g
       style="fill:#383542;fill-opacity:1;stroke:#f1f6f9;stroke-opacity:1"
       transform="matrix(0.25141596,-0.05510314,0.05510314,0.25141596,1456.7234,572.71467)"
       id="g1243">
      <path
         id="path1235"
         style="fill:#383542;fill-opacity:1;stroke:#f1f6f9;stroke-width:0;stroke-miterlimit:4;stroke-dasharray:none;stroke-opacity:1"
         d="m 1607.6427,103.24767 c -2.5537,4.77779 -4.5219,13.06517 -6.0083,23.85408 a 122.72787,122.72787 0 0 0 -14.0711,4.01987 c -6.3381,-8.92811 -11.2746,-15.47862 -14.0546,-18.56496 l -35.6768,20.59809 c 0.9961,3.72221 4.2586,11.42089 9.1284,21.80273 a 122.72787,122.72787 0 0 0 -11.8641,12.04136 c -10.1629,-4.66675 -17.8629,-7.93862 -21.869,-9.23939 l -20.5981,35.67673 c 2.7635,2.76531 9.5762,7.8987 19.2046,14.59646 a 122.72787,122.72787 0 0 0 -4.2038,16.18882 c -11.1517,1.04097 -19.4684,2.05712 -23.5923,2.93454 v 41.19618 c 3.7772,1.01342 12.2483,2.05403 23.9419,3.04059 a 122.72787,122.72787 0 0 0 4.3927,15.97176 c -9.3295,6.60539 -16.1538,11.73818 -19.3288,14.59811 l 20.5981,35.67673 c 3.8206,-1.02242 11.7953,-4.41219 22.5997,-9.49954 a 122.72787,122.72787 0 0 0 11.5873,11.48462 c -4.8564,10.54537 -8.2491,18.51207 -9.5824,22.61796 l 35.6751,20.59809 c 2.8141,-2.81231 8.0667,-9.79097 14.9395,-19.69171 a 122.72787,122.72787 0 0 0 15.8011,4.20214 c 1.0571,11.40502 2.0905,19.89604 2.9809,24.08108 h 41.1962 c 1.018,-3.79438 2.0633,-12.31623 3.0538,-24.09268 a 122.72787,122.72787 0 0 0 13.6453,-3.5062 c 6.5522,8.93172 12.1645,15.53552 16.3861,18.89635 l 35.6767,-20.59642 c -0.1809,-5.52292 -2.708,-13.89574 -6.966,-24.26336 a 122.72787,122.72787 0 0 0 8.3496,-8.32971 c 9.9447,4.35434 17.9587,7.19971 23.2211,7.98836 l 20.5964,-35.67673 c -2.8744,-4.62214 -9.109,-10.50324 -17.7729,-17.22444 a 122.72787,122.72787 0 0 0 3.1251,-11.5857 c 10.772,-1.20078 19.1217,-2.74326 24.0678,-4.6893 V 227.156 c -4.7987,-2.56482 -13.1349,-4.53787 -23.9932,-6.02649 a 122.72787,122.72787 0 0 0 -3.1433,-11.75968 c 8.5414,-6.30945 14.867,-11.72288 18.1308,-15.82263 l -20.5981,-35.67673 c -5.3736,0.17603 -13.4535,2.58027 -23.4348,6.63129 a 122.72787,122.72787 0 0 0 -8.8186,-8.79202 c 4.1627,-9.58517 6.8823,-17.31901 7.6504,-22.44397 l -35.6767,-20.59809 c -4.5372,2.82151 -10.2881,8.88807 -16.855,17.30398 a 122.72787,122.72787 0 0 0 -12.0132,-3.16651 c -1.1925,-10.52449 -2.7161,-18.68976 -4.6313,-23.55748 z" />
      <g
         id="g1241"
         transform="translate(254.85898,-27.314302)"
         style="fill:#383542;fill-opacity:1;stroke:#f1f6f9;stroke-opacity:1">
        <circle
           style="fill:#383542;fill-opacity:1;stroke:#f1f6f9;stroke-width:5;stroke-miterlimit:4;stroke-dasharray:none;stroke-opacity:1"
           id="circle1237"
           cx="1373.2708"
           cy="274.65414"
           r="96.030792" />
        <circle
           r="38.312569"
           cy="274.65414"
           cx="1373.2708"
           id="circle1239"
           style="fill:#383542;fill-opacity:1;stroke:#f1f6f9;stroke-width:10;stroke-miterlimit:4;stroke-dasharray:none;stroke-opacity:1" />
      </g>
    </g>
    <g
       id="g1253"
       transform="matrix(0.14515932,-0.01503986,0.01503986,0.14515932,1545.1264,459.2759)"
       style="fill:#383542;fill-opacity:1;stroke:#f1f6f9;stroke-opacity:1">
      <path
         d="m 1607.6427,103.24767 c -2.5537,4.77779 -4.5219,13.06517 -6.0083,23.85408 a 122.72787,122.72787 0 0 0 -14.0711,4.01987 c -6.3381,-8.92811 -11.2746,-15.47862 -14.0546,-18.56496 l -35.6768,20.59809 c 0.9961,3.72221 4.2586,11.42089 9.1284,21.80273 a 122.72787,122.72787 0 0 0 -11.8641,12.04136 c -10.1629,-4.66675 -17.8629,-7.93862 -21.869,-9.23939 l -20.5981,35.67673 c 2.7635,2.76531 9.5762,7.8987 19.2046,14.59646 a 122.72787,122.72787 0 0 0 -4.2038,16.18882 c -11.1517,1.04097 -19.4684,2.05712 -23.5923,2.93454 v 41.19618 c 3.7772,1.01342 12.2483,2.05403 23.9419,3.04059 a 122.72787,122.72787 0 0 0 4.3927,15.97176 c -9.3295,6.60539 -16.1538,11.73818 -19.3288,14.59811 l 20.5981,35.67673 c 3.8206,-1.02242 11.7953,-4.41219 22.5997,-9.49954 a 122.72787,122.72787 0 0 0 11.5873,11.48462 c -4.8564,10.54537 -8.2491,18.51207 -9.5824,22.61796 l 35.6751,20.59809 c 2.8141,-2.81231 8.0667,-9.79097 14.9395,-19.69171 a 122.72787,122.72787 0 0 0 15.8011,4.20214 c 1.0571,11.40502 2.0905,19.89604 2.9809,24.08108 h 41.1962 c 1.018,-3.79438 2.0633,-12.31623 3.0538,-24.09268 a 122.72787,122.72787 0 0 0 13.6453,-3.5062 c 6.5522,8.93172 12.1645,15.53552 16.3861,18.89635 l 35.6767,-20.59642 c -0.1809,-5.52292 -2.708,-13.89574 -6.966,-24.26336 a 122.72787,122.72787 0 0 0 8.3496,-8.32971 c 9.9447,4.35434 17.9587,7.19971 23.2211,7.98836 l 20.5964,-35.67673 c -2.8744,-4.62214 -9.109,-10.50324 -17.7729,-17.22444 a 122.72787,122.72787 0 0 0 3.1251,-11.5857 c 10.772,-1.20078 19.1217,-2.74326 24.0678,-4.6893 V 227.156 c -4.7987,-2.56482 -13.1349,-4.53787 -23.9932,-6.02649 a 122.72787,122.72787 0 0 0 -3.1433,-11.75968 c 8.5414,-6.30945 14.867,-11.72288 18.1308,-15.82263 l -20.5981,-35.67673 c -5.3736,0.17603 -13.4535,2.58027 -23.4348,6.63129 a 122.72787,122.72787 0 0 0 -8.8186,-8.79202 c 4.1627,-9.58517 6.8823,-17.31901 7.6504,-22.44397 l -35.6767,-20.59809 c -4.5372,2.82151 -10.2881,8.88807 -16.855,17.30398 a 122.72787,122.72787 0 0 0 -12.0132,-3.16651 c -1.1925,-10.52449 -2.7161,-18.68976 -4.6313,-23.55748 z"
         style="fill:#383542;fill-opacity:1;stroke:#f1f6f9;stroke-width:0;stroke-miterlimit:4;stroke-dasharray:none;stroke-opacity:1"
         id="path1245" />
      <g
         style="fill:#383542;fill-opacity:1;stroke:#f1f6f9;stroke-opacity:1"
         transform="translate(254.85898,-27.314302)"
         id="g1251">
        <circle
           r="96.030792"
           cy="274.65414"
           cx="1373.2708"
           id="circle1247"
           style="fill:#383542;fill-opacity:1;stroke:#f1f6f9;stroke-width:5;stroke-miterlimit:4;stroke-dasharray:none;stroke-opacity:1" />
        <circle
           style="fill:#383542;fill-opacity:1;stroke:#f1f6f9;stroke-width:10;stroke-miterlimit:4;stroke-dasharray:none;stroke-opacity:1"
           id="circle1249"
           cx="1373.2708"
           cy="274.65414"
           r="38.312569" />
      </g>
    </g>
    <path
       id="path1255"
       style="fill:#394867;fill-opacity:1;stroke:#f1f6f9;stroke-width:0;stroke-miterlimit:4;stroke-dasharray:none;stroke-opacity:1"
       d="m 1318.4559,378.41232 a 59.164158,59.164158 0 0 0 -54.1526,35.43394 59.164158,59.164158 0 0 0 -30.2491,-8.31749 59.164158,59.164158 0 0 0 -59.1638,59.16373 59.164158,59.164158 0 0 0 0.3786,6.69292 59.164158,59.164158 0 0 0 -58.4825,59.15951 59.164158,59.164158 0 0 0 59.1636,59.16373 59.164158,59.164158 0 0 0 6.8474,-0.39768 h 73.0826 a 59.164158,59.164158 0 0 0 6.8388,0.39768 59.164158,59.164158 0 0 0 6.8496,-0.39768 h 179.9682 v -0.002 a 59.164158,59.164158 0 0 0 6.8642,0.3998 59.164158,59.164158 0 0 0 59.1638,-59.16374 59.164158,59.164158 0 0 0 -50.6495,-58.54817 59.164158,59.164158 0 0 0 -58.8719,-53.29792 59.164158,59.164158 0 0 0 -29.42,7.83519 59.164158,59.164158 0 0 0 -58.1229,-48.1217 59.164158,59.164158 0 0 0 -0.044,0 z" />
    <path
       style="fill:#b7b7b7;fill-opacity:1;stroke:#000000;stroke-width:0;stroke-linecap:butt;stroke-linejoin:miter;stroke-miterlimit:4;stroke-dasharray:none;stroke-opacity:1"
       d="m 1508.1961,832.67868 32.345,-10.65253 148.167,0.38736 27.1154,10.26517 v 3.87364 h -207.6274 z"
       id="path1165"
       sodipodi:nodetypes="ccccccc" />
    <path
       id="rect1145"
       style="fill:#2b2f3b;fill-opacity:1;stroke:#000000;stroke-width:0"
       d="m 1556.8767,730.80154 -25.7407,95.40224 h 161.8093 l -26.4272,-95.40224 z"
       sodipodi:nodetypes="ccccc" />
    <g
       transform="matrix(1.0830503,0,0,1.0830503,48.025184,-21.653984)"
       id="g2474">
      <rect
         ry="6.8298845"
         y="649.51196"
         x="993.50653"
         height="45.577236"
         width="208.8739"
         id="rect2383"
         style="fill:#394867;fill-opacity:1;stroke:#f1f6f9;stroke-width:0;stroke-miterlimit:4;stroke-dasharray:none;stroke-opacity:1" />
      <rect
         ry="7.7207341"
         y="659.14954"
         x="1164.0002"
         height="26.302055"
         width="26.302055"
         id="rect2385"
         style="fill:#00a3de;fill-opacity:1;stroke:#f1f6f9;stroke-width:0;stroke-miterlimit:4;stroke-dasharray:none;stroke-opacity:1" />
      <g
         style="fill:#00a3de;fill-opacity:1"
         transform="translate(0.640228,-35.07294)"
         id="g2396">
        <rect
           style="fill:#00a3de;fill-opacity:1;stroke:#f1f6f9;stroke-width:0;stroke-miterlimit:4;stroke-dasharray:none;stroke-opacity:1"
           id="rect2387"
           width="124.42895"
           height="6.0697041"
           x="1002.0071"
           y="693.9696"
           ry="3.034852" />
        <rect
           ry="3.034852"
           y="704.33868"
           x="1002.0071"
           height="6.0697041"
           width="124.42895"
           id="rect2389"
           style="fill:#00a3de;fill-opacity:1;stroke:#f1f6f9;stroke-width:0;stroke-miterlimit:4;stroke-dasharray:none;stroke-opacity:1" />
        <rect
           style="fill:#00a3de;fill-opacity:1;stroke:#f1f6f9;stroke-width:0;stroke-miterlimit:4;stroke-dasharray:none;stroke-opacity:1"
           id="rect2391"
           width="124.42895"
           height="6.0697041"
           x="1002.0071"
           y="714.70776"
           ry="3.034852" />
      </g>
    </g>
    <g
       id="g2466"
       transform="matrix(1.0830503,0,0,1.0830503,48.025184,-22.235031)">
      <rect
         style="fill:#394867;fill-opacity:1;stroke:#f1f6f9;stroke-width:0;stroke-miterlimit:4;stroke-dasharray:none;stroke-opacity:1"
         id="rect2398"
         width="208.8739"
         height="45.577236"
         x="993.50653"
         y="695.2926"
         ry="6.8298845" />
      <rect
         style="fill:#00a3de;fill-opacity:1;stroke:#f1f6f9;stroke-width:0;stroke-miterlimit:4;stroke-dasharray:none;stroke-opacity:1"
         id="rect2400"
         width="26.302055"
         height="26.302055"
         x="1164.0002"
         y="704.93018"
         ry="7.7207341" />
      <g
         style="fill:#00a3de;fill-opacity:1"
         id="g2408"
         transform="translate(0.640228,10.70764)">
        <rect
           ry="3.034852"
           y="693.9696"
           x="1002.0071"
           height="6.0697041"
           width="124.42895"
           id="rect2402"
           style="fill:#00a3de;fill-opacity:1;stroke:#f1f6f9;stroke-width:0;stroke-miterlimit:4;stroke-dasharray:none;stroke-opacity:1" />
        <rect
           style="fill:#00a3de;fill-opacity:1;stroke:#f1f6f9;stroke-width:0;stroke-miterlimit:4;stroke-dasharray:none;stroke-opacity:1"
           id="rect2404"
           width="124.42895"
           height="6.0697041"
           x="1002.0071"
           y="704.33868"
           ry="3.034852" />
        <rect
           ry="3.034852"
           y="714.70776"
           x="1002.0071"
           height="6.0697041"
           width="124.42895"
           id="rect2406"
           style="fill:#00a3de;fill-opacity:1;stroke:#f1f6f9;stroke-width:0;stroke-miterlimit:4;stroke-dasharray:none;stroke-opacity:1" />
      </g>
    </g>
    <g
       id="g2482"
       transform="matrix(1.0830503,0,0,1.0830503,48.025184,-23.590807)">
      <rect
         ry="6.8298845"
         y="741.78851"
         x="993.50653"
         height="45.577236"
         width="208.8739"
         id="rect2410"
         style="fill:#394867;fill-opacity:1;stroke:#f1f6f9;stroke-width:0;stroke-miterlimit:4;stroke-dasharray:none;stroke-opacity:1" />
      <rect
         ry="7.7207341"
         y="751.42609"
         x="1164.0002"
         height="26.302055"
         width="26.302055"
         id="rect2412"
         style="fill:#00a3de;fill-opacity:1;stroke:#f1f6f9;stroke-width:0;stroke-miterlimit:4;stroke-dasharray:none;stroke-opacity:1" />
      <g
         style="fill:#00a3de;fill-opacity:1"
         transform="translate(0.640228,57.20354)"
         id="g2420">
        <rect
           style="fill:#00a3de;fill-opacity:1;stroke:#f1f6f9;stroke-width:0;stroke-miterlimit:4;stroke-dasharray:none;stroke-opacity:1"
           id="rect2414"
           width="124.42895"
           height="6.0697041"
           x="1002.0071"
           y="693.9696"
           ry="3.034852" />
        <rect
           ry="3.034852"
           y="704.33868"
           x="1002.0071"
           height="6.0697041"
           width="124.42895"
           id="rect2416"
           style="fill:#00a3de;fill-opacity:1;stroke:#f1f6f9;stroke-width:0;stroke-miterlimit:4;stroke-dasharray:none;stroke-opacity:1" />
        <rect
           style="fill:#00a3de;fill-opacity:1;stroke:#f1f6f9;stroke-width:0;stroke-miterlimit:4;stroke-dasharray:none;stroke-opacity:1"
           id="rect2418"
           width="124.42895"
           height="6.0697041"
           x="1002.0071"
           y="714.70776"
           ry="3.034852" />
      </g>
    </g>
    <g
       id="g1233"
       transform="matrix(0.42674727,0,0,0.42674727,1164.7472,348.98847)"
       style="fill:#383542;fill-opacity:1;stroke:#f1f6f9;stroke-opacity:1">
      <path
         d="m 1607.6427,103.24767 c -2.5537,4.77779 -4.5219,13.06517 -6.0083,23.85408 a 122.72787,122.72787 0 0 0 -14.0711,4.01987 c -6.3381,-8.92811 -11.2746,-15.47862 -14.0546,-18.56496 l -35.6768,20.59809 c 0.9961,3.72221 4.2586,11.42089 9.1284,21.80273 a 122.72787,122.72787 0 0 0 -11.8641,12.04136 c -10.1629,-4.66675 -17.8629,-7.93862 -21.869,-9.23939 l -20.5981,35.67673 c 2.7635,2.76531 9.5762,7.8987 19.2046,14.59646 a 122.72787,122.72787 0 0 0 -4.2038,16.18882 c -11.1517,1.04097 -19.4684,2.05712 -23.5923,2.93454 v 41.19618 c 3.7772,1.01342 12.2483,2.05403 23.9419,3.04059 a 122.72787,122.72787 0 0 0 4.3927,15.97176 c -9.3295,6.60539 -16.1538,11.73818 -19.3288,14.59811 l 20.5981,35.67673 c 3.8206,-1.02242 11.7953,-4.41219 22.5997,-9.49954 a 122.72787,122.72787 0 0 0 11.5873,11.48462 c -4.8564,10.54537 -8.2491,18.51207 -9.5824,22.61796 l 35.6751,20.59809 c 2.8141,-2.81231 8.0667,-9.79097 14.9395,-19.69171 a 122.72787,122.72787 0 0 0 15.8011,4.20214 c 1.0571,11.40502 2.0905,19.89604 2.9809,24.08108 h 41.1962 c 1.018,-3.79438 2.0633,-12.31623 3.0538,-24.09268 a 122.72787,122.72787 0 0 0 13.6453,-3.5062 c 6.5522,8.93172 12.1645,15.53552 16.3861,18.89635 l 35.6767,-20.59642 c -0.1809,-5.52292 -2.708,-13.89574 -6.966,-24.26336 a 122.72787,122.72787 0 0 0 8.3496,-8.32971 c 9.9447,4.35434 17.9587,7.19971 23.2211,7.98836 l 20.5964,-35.67673 c -2.8744,-4.62214 -9.109,-10.50324 -17.7729,-17.22444 a 122.72787,122.72787 0 0 0 3.1251,-11.5857 c 10.772,-1.20078 19.1217,-2.74326 24.0678,-4.6893 V 227.156 c -4.7987,-2.56482 -13.1349,-4.53787 -23.9932,-6.02649 a 122.72787,122.72787 0 0 0 -3.1433,-11.75968 c 8.5414,-6.30945 14.867,-11.72288 18.1308,-15.82263 l -20.5981,-35.67673 c -5.3736,0.17603 -13.4535,2.58027 -23.4348,6.63129 a 122.72787,122.72787 0 0 0 -8.8186,-8.79202 c 4.1627,-9.58517 6.8823,-17.31901 7.6504,-22.44397 l -35.6767,-20.59809 c -4.5372,2.82151 -10.2881,8.88807 -16.855,17.30398 a 122.72787,122.72787 0 0 0 -12.0132,-3.16651 c -1.1925,-10.52449 -2.7161,-18.68976 -4.6313,-23.55748 z"
         style="fill:#383542;fill-opacity:1;stroke:#f1f6f9;stroke-width:0;stroke-miterlimit:4;stroke-dasharray:none;stroke-opacity:1"
         id="path1173" />
      <g
         style="fill:#383542;fill-opacity:1;stroke:#f1f6f9;stroke-opacity:1"
         transform="translate(254.85898,-27.314302)"
         id="g1227">
        <circle
           r="96.030792"
           cy="274.65414"
           cx="1373.2708"
           id="circle1171"
           style="fill:#383542;fill-opacity:1;stroke:#f1f6f9;stroke-width:5;stroke-miterlimit:4;stroke-dasharray:none;stroke-opacity:1" />
        <circle
           style="fill:#383542;fill-opacity:1;stroke:#f1f6f9;stroke-width:10;stroke-miterlimit:4;stroke-dasharray:none;stroke-opacity:1"
           id="path1169"
           cx="1373.2708"
           cy="274.65414"
           r="38.312569" />
      </g>
    </g>
    <rect
       y="471.38071"
       x="1374.8363"
       height="298.01208"
       width="482.07834"
       id="rect1143"
       style="fill:#2b2f3b;fill-opacity:1;stroke:#000000;stroke-width:0"
       ry="23.758291" />
    <g
       style="stroke-width:0"
       id="g133"
       stroke="none"
       stroke-linecap="round"
       stroke-linejoin="round"
       transform="matrix(1.1608911,-0.48247676,0.09471152,0.97106593,-239.81957,772.48748)">
      <path
         id="path57"
         fill="#1a1a1a"
         d="m 1369.26,395.03 81.03,40.18 -20.66,256.32 -81.03,-40.18 z" />
      <path
         id="path59"
         fill="#333333"
         d="M 1450.51,435.43 1747.73,582.8 1727.07,839.12 1429.85,691.75 Z" />
      <path
         id="path61"
         fill="#ffffff"
         d="m 1487.88,474.18 0.35,-4.3 c 0.03,-0.32 4.95,1.87 11.05,4.9 l 55.1,27.3 c 6.09,3.03 10.98,5.7 10.95,6.02 l -0.34,4.3 c -0.03,0.31 -4.96,-1.87 -11.05,-4.9 l -55.1,-27.3 c -6.1,-3.03 -10.98,-5.71 -10.96,-6.01 z" />
      <path
         id="path63"
         fill="#ff5555"
         d="m 1567.83,513.82 0.35,-4.31 c 0.02,-0.31 7.7,3.24 17.22,7.96 l 85.96,42.62 c 9.52,4.72 17.16,8.76 17.14,9.07 l -0.35,4.31 c -0.03,0.3 -7.7,-3.24 -17.22,-7.96 l -85.97,-42.62 c -9.51,-4.72 -17.15,-8.76 -17.13,-9.07 z" />
      <path
         id="path65"
         fill="#ffffff"
         d="m 1487.17,483.08 0.34,-4.3 c 0.03,-0.32 6.53,2.65 14.57,6.64 l 72.72,36.05 c 8.05,4 14.5,7.45 14.48,7.76 l -0.35,4.3 c -0.02,0.31 -6.52,-2.65 -14.57,-6.64 l -72.71,-36.05 c -8.05,-3.99 -14.5,-7.45 -14.48,-7.76 z" />
      <path
         id="path67"
         fill="#2a7fff"
         d="m 1591.43,534.77 0.34,-4.3 c 0.03,-0.32 4.2,1.5 9.35,4.05 l 46.6,23.1 c 5.16,2.56 9.29,4.87 9.26,5.17 l -0.34,4.31 c -0.03,0.31 -4.2,-1.5 -9.35,-4.05 l -46.6,-23.1 c -5.16,-2.57 -9.29,-4.87 -9.26,-5.18 z" />
      <path
         id="path69"
         fill="#ffd42a"
         d="m 1486.45,491.98 0.35,-4.3 c 0.02,-0.32 6.52,2.65 14.57,6.64 l 72.71,36.05 c 8.05,4 14.5,7.45 14.48,7.76 l -0.34,4.3 c -0.03,0.32 -6.53,-2.65 -14.57,-6.64 l -72.72,-36.05 c -8.05,-4 -14.5,-7.45 -14.48,-7.76 z" />
      <path
         id="path71"
         fill="#ffffff"
         d="m 1485.73,500.88 0.35,-4.3 c 0.02,-0.31 1.85,0.33 4.08,1.44 l 20.23,10.02 c 2.24,1.12 4.02,2.25 4,2.56 l -0.36,4.31 c -0.02,0.31 -1.84,-0.34 -4.08,-1.44 l -20.22,-10.03 c -2.24,-1.1 -4.02,-2.25 -4,-2.56 z m -15.43,149.7 0.34,-4.31 c 0.03,-0.3 1.85,0.34 4.09,1.45 l 20.22,10.03 c 2.24,1.1 4.02,2.25 4,2.55 l -0.35,4.31 c -0.03,0.31 -1.85,-0.33 -4.09,-1.44 l -20.22,-10.03 c -2.24,-1.11 -4.02,-2.25 -4,-2.56 z m 24.44,-135.97 0.35,-4.31 c 0.02,-0.31 3.35,1.08 7.48,3.12 l 37.2,18.45 c 4.12,2.04 7.41,3.93 7.39,4.24 l -0.35,4.31 c -0.02,0.31 -3.36,-1.09 -7.48,-3.13 l -37.2,-18.45 c -4.12,-2.04 -7.42,-3.93 -7.4,-4.24 z m -7.17,89 0.34,-4.31 c 0.03,-0.3 3.36,1.08 7.48,3.13 l 37.2,18.44 c 4.12,2.04 7.42,3.94 7.4,4.25 l -0.35,4.3 c -0.03,0.31 -3.36,-1.09 -7.48,-3.13 l -37.2,-18.44 c -4.13,-2.05 -7.42,-3.93 -7.4,-4.24 z" />
      <path
         id="path73"
         fill="#2a7fff"
         d="m 1510.33,540.85 0.35,-4.31 c 0.02,-0.31 8.93,3.85 19.97,9.32 l 99.73,49.44 c 11.04,5.48 19.9,10.13 19.88,10.44 l -0.35,4.31 c -0.02,0.3 -8.93,-3.85 -19.97,-9.32 l -99.73,-49.45 c -11.04,-5.47 -19.9,-10.12 -19.88,-10.43 z" />
      <path
         id="path75"
         fill="#ff5555"
         d="m 1509.62,549.75 0.34,-4.31 c 0.03,-0.31 12.06,5.4 26.99,12.8 l 134.85,66.86 c 14.93,7.4 26.92,13.6 26.9,13.9 l -0.35,4.32 c -0.03,0.3 -12.06,-5.4 -26.98,-12.8 l -134.86,-66.86 c -14.92,-7.4 -26.92,-13.6 -26.9,-13.91 z" />
      <path
         id="path77"
         fill="#ffd42a"
         d="m 1508.9,558.65 0.35,-4.31 c 0.02,-0.3 1.63,0.23 3.62,1.22 l 17.93,8.89 c 1.98,0.98 3.56,2.01 3.53,2.33 l -0.35,4.3 c -0.02,0.32 -1.64,-0.23 -3.62,-1.21 l -17.93,-8.9 c -1.98,-0.97 -3.56,-2.01 -3.53,-2.32 z" />
      <path
         id="path79"
         fill="#ffffff"
         d="m 1507.46,576.45 0.35,-4.31 c 0.03,-0.3 5.31,2.05 11.85,5.3 l 59.1,29.3 c 6.54,3.23 11.78,6.1 11.76,6.4 l -0.35,4.31 c -0.03,0.3 -5.31,-2.05 -11.85,-5.3 l -59.1,-29.3 c -6.54,-3.23 -11.78,-6.1 -11.76,-6.4 z" />
      <path
         id="path81"
         fill="#ff5555"
         d="m 1506.03,594.25 0.35,-4.31 c 0.02,-0.3 6.28,2.54 14.03,6.38 l 70,34.71 c 7.76,3.84 13.97,7.18 13.95,7.49 l -0.35,4.3 c -0.02,0.32 -6.28,-2.53 -14.03,-6.37 l -70,-34.71 c -7.76,-3.84 -13.98,-7.18 -13.95,-7.5 z" />
      <path
         id="path83"
         fill="#2a7fff"
         d="m 1536.15,599.93 0.35,-4.31 c 0.03,-0.3 6.28,2.54 14.03,6.38 l 69.98,34.7 c 7.75,3.83 13.96,7.17 13.94,7.48 l -0.35,4.3 c -0.03,0.32 -6.28,-2.53 -14.03,-6.37 l -69.98,-34.7 c -7.74,-3.83 -13.96,-7.17 -13.94,-7.48 z" />
      <path
         id="path85"
         fill="#ffffff"
         d="m 1527.96,540.33 0.35,-4.3 c 0.03,-0.31 5.84,2.31 13.03,5.88 l 65,32.22 c 7.19,3.56 12.96,6.68 12.94,7 l -0.35,4.3 c -0.03,0.31 -5.84,-2.32 -13.03,-5.88 l -65,-32.22 c -7.2,-3.57 -12.96,-6.69 -12.94,-7 z" />
      <path
         id="path87"
         fill="#2a7fff"
         d="m 1502.12,527.52 0.35,-4.3 c 0.03,-0.31 1.33,0.07 2.93,0.87 l 14.43,7.15 c 1.6,0.8 2.87,1.68 2.84,1.99 l -0.35,4.3 c -0.02,0.32 -1.33,-0.08 -2.93,-0.87 l -14.43,-7.16 c -1.6,-0.78 -2.86,-1.67 -2.84,-1.98 z" />
      <path
         id="path89"
         fill="#ffffff"
         d="m 1453.31,697.7 0.35,-4.31 c 0.02,-0.31 1.53,0.18 3.38,1.1 l 16.7,8.27 c 1.85,0.92 3.31,1.9 3.29,2.21 l -0.35,4.31 c -0.02,0.31 -1.53,-0.18 -3.38,-1.1 l -16.7,-8.27 c -1.84,-0.92 -3.3,-1.9 -3.28,-2.2 z m 19.37,-240.31 0.35,-4.31 c 0.02,-0.3 1.53,0.18 3.38,1.1 l 16.7,8.28 c 1.85,0.92 3.31,1.9 3.29,2.2 l -0.35,4.32 c -0.02,0.3 -1.53,-0.19 -3.38,-1.1 l -16.7,-8.28 c -1.84,-0.91 -3.3,-1.9 -3.28,-2.2 z" />
      <path
         id="path91"
         fill="#2a7fff"
         d="m 1496.38,598.73 0.35,-4.32 c 0.03,-0.3 1.33,0.08 2.93,0.88 l 14.43,7.16 c 1.6,0.79 2.87,1.67 2.84,1.98 l -0.34,4.3 c -0.03,0.32 -1.34,-0.07 -2.94,-0.87 l -14.43,-7.16 c -1.6,-0.78 -2.86,-1.67 -2.84,-1.97 z" />
      <path
         id="path93"
         fill="#ffffff"
         d="m 1494.95,616.53 0.35,-4.31 c 0.02,-0.31 1.32,0.08 2.92,0.87 l 14.44,7.15 c 1.6,0.8 2.86,1.68 2.84,1.99 l -0.35,4.31 c -0.02,0.3 -1.33,-0.08 -2.93,-0.88 l -14.43,-7.15 c -1.6,-0.79 -2.86,-1.68 -2.84,-1.98 z m -2.87,35.6 0.35,-4.31 c 0.02,-0.31 1.32,0.08 2.92,0.87 l 14.44,7.16 c 1.6,0.79 2.86,1.67 2.84,1.98 l -0.35,4.3 c -0.02,0.32 -1.33,-0.07 -2.93,-0.86 l -14.43,-7.16 c -1.6,-0.8 -2.86,-1.68 -2.84,-1.98 z" />
      <path
         id="path95"
         fill="#ff5555"
         d="m 1521.42,629.64 0.34,-4.3 c 0.03,-0.31 3.37,1.09 7.48,3.13 l 37.21,18.44 c 4.12,2.04 7.41,3.93 7.39,4.24 l -0.35,4.31 c -0.02,0.31 -3.36,-1.08 -7.48,-3.13 l -37.2,-18.44 c -4.12,-2.04 -7.42,-3.94 -7.4,-4.25 z" />
      <path
         id="path97"
         fill="#ffd42a"
         d="m 1578.68,658.04 0.34,-4.31 c 0.03,-0.31 0.82,-0.18 1.78,0.3 l 8.64,4.28 c 0.96,0.48 1.7,1.1 1.68,1.41 l -0.34,4.31 c -0.03,0.31 -0.82,0.18 -1.78,-0.3 l -8.64,-4.29 c -0.95,-0.47 -1.7,-1.1 -1.68,-1.4 z" />
      <path
         id="path99"
         fill="#2a7fff"
         d="m 1508.18,567.55 0.35,-4.31 c 0.02,-0.3 2.57,0.7 5.7,2.25 l 28.3,14.03 c 3.12,1.55 5.62,3.04 5.6,3.35 l -0.35,4.31 c -0.02,0.31 -2.56,-0.7 -5.7,-2.25 l -28.3,-14.03 c -3.12,-1.55 -5.62,-3.04 -5.6,-3.35 z" />
      <path
         id="path101"
         fill="#ff5555"
         d="m 1552.1,589.33 0.35,-4.31 c 0.03,-0.31 5.41,2.1 12.08,5.4 l 60.23,29.86 c 6.66,3.3 12.01,6.22 11.99,6.52 l -0.35,4.31 c -0.03,0.31 -5.41,-2.1 -12.08,-5.4 l -60.23,-29.86 c -6.66,-3.3 -12.01,-6.22 -11.99,-6.52 z" />
      <path
         id="path103"
         fill="#ffd42a"
         d="m 1506.75,585.35 0.34,-4.3 c 0.03,-0.32 1.64,0.23 3.63,1.2 l 17.93,8.9 c 1.98,0.98 3.56,2.02 3.53,2.33 l -0.35,4.3 c -0.02,0.31 -1.64,-0.23 -3.62,-1.21 l -17.93,-8.9 c -1.98,-0.98 -3.56,-2.01 -3.53,-2.32 z" />
      <path
         id="path105"
         fill="#2a7fff"
         d="m 1545.84,651.01 0.34,-4.31 c 0.03,-0.3 3.73,1.27 8.3,3.54 l 41.36,20.5 c 4.58,2.27 8.24,4.35 8.22,4.65 l -0.35,4.31 c -0.02,0.31 -3.72,-1.27 -8.3,-3.54 l -41.36,-20.5 c -4.58,-2.27 -8.24,-4.34 -8.22,-4.65 z" />
      <path
         id="path107"
         fill="#ff5555"
         d="m 1501.72,647.65 0.35,-4.3 c 0.03,-0.32 6.29,2.53 14.03,6.37 l 70.01,34.71 c 7.76,3.84 13.97,7.18 13.95,7.49 l -0.35,4.3 c -0.03,0.32 -6.28,-2.53 -14.03,-6.37 l -70.01,-34.71 c -7.75,-3.84 -13.97,-7.18 -13.95,-7.49 z" />
      <path
         id="path109"
         fill="#2a7fff"
         d="m 1529.94,652.39 0.35,-4.31 c 0.03,-0.31 6.28,2.53 14.02,6.37 l 69.99,34.7 c 7.74,3.83 13.96,7.18 13.93,7.49 l -0.34,4.3 c -0.03,0.3 -6.29,-2.54 -14.03,-6.37 l -69.98,-34.7 c -7.75,-3.84 -13.96,-7.18 -13.94,-7.48 z" />
      <path
         id="path111"
         fill="#ffffff"
         d="m 1502.44,638.75 0.35,-4.3 c 0.02,-0.32 1.64,0.23 3.62,1.2 l 17.93,8.9 c 1.98,0.98 3.56,2.02 3.54,2.33 l -0.35,4.31 c -0.03,0.3 -1.65,-0.24 -3.62,-1.22 l -17.93,-8.9 c -1.99,-0.97 -3.56,-2.01 -3.54,-2.32 z" />
      <path
         id="path113"
         fill="#2a7fff"
         d="m 1503.16,629.85 0.35,-4.31 c 0.02,-0.3 2.49,0.66 5.52,2.16 l 27.44,13.6 c 3.04,1.51 5.46,2.98 5.44,3.28 l -0.35,4.3 c -0.02,0.32 -2.49,-0.65 -5.53,-2.16 l -27.43,-13.6 c -3.04,-1.5 -5.47,-2.97 -5.45,-3.27 z" />
      <path
         id="path115"
         fill="#ffffff"
         d="m 1469.58,659.48 0.35,-4.3 c 0.02,-0.32 1.26,0.04 2.77,0.8 l 13.66,6.77 c 1.51,0.74 2.71,1.6 2.69,1.9 l -0.35,4.3 c -0.03,0.32 -1.26,-0.04 -2.77,-0.79 l -13.67,-6.77 c -1.51,-0.75 -2.7,-1.6 -2.68,-1.9 z m -6.04,34.03 0.35,-4.3 c 0.02,-0.32 1.85,0.33 4.08,1.44 l 20.23,10.03 c 2.23,1.1 4.02,2.25 4,2.55 l -0.35,4.31 c -0.03,0.31 -1.85,-0.34 -4.09,-1.44 l -20.22,-10.03 c -2.24,-1.1 -4.02,-2.25 -4,-2.56 z m 28.19,-23.05 0.35,-4.3 c 0.02,-0.32 5.48,2.14 12.25,5.5 l 61.14,30.3 c 6.77,3.36 12.2,6.3 12.17,6.61 l -0.35,4.31 c -0.03,0.31 -5.5,-2.14 -12.26,-5.5 l -61.13,-30.3 c -6.77,-3.36 -12.2,-6.3 -12.17,-6.62 z" />
      <path
         id="path117"
         fill="#ff5555"
         d="m 1487.77,677.75 0.34,-4.3 c 0.03,-0.32 3.02,0.92 6.71,2.74 l 33.35,16.53 c 3.7,1.83 6.64,3.55 6.61,3.86 l -0.34,4.31 c -0.03,0.3 -3.02,-0.91 -6.71,-2.75 l -33.34,-16.53 c -3.7,-1.83 -6.65,-3.55 -6.62,-3.86 z m 50.24,24.91 0.34,-4.3 c 0.03,-0.31 5.43,2.1 12.1,5.42 l 60.37,29.92 c 6.68,3.31 12.04,6.23 12.01,6.53 l -0.35,4.31 c -0.02,0.31 -5.42,-2.1 -12.1,-5.42 l -60.36,-29.92 c -6.68,-3.32 -12.04,-6.23 -12.01,-6.54 z" />
      <path
         id="path119"
         fill="#ffd42a"
         d="m 1626.05,746.32 0.35,-4.31 c 0.03,-0.31 1.57,0.2 3.47,1.14 l 17.13,8.5 c 1.9,0.93 3.41,1.94 3.39,2.24 l -0.35,4.31 c -0.03,0.31 -1.57,-0.2 -3.47,-1.14 l -17.14,-8.5 c -1.9,-0.93 -3.4,-1.94 -3.38,-2.24 z" />
      <path
         id="path121"
         fill="#2a7fff"
         d="m 1487.05,686.65 0.35,-4.3 c 0.02,-0.31 4.8,1.8 10.71,4.73 l 53.42,26.48 c 5.91,2.93 10.65,5.54 10.63,5.85 l -0.35,4.31 c -0.02,0.3 -4.8,-1.8 -10.72,-4.73 l -53.41,-26.49 c -5.91,-2.93 -10.66,-5.54 -10.63,-5.84 z" />
      <path
         id="path123"
         fill="#ffd42a"
         d="m 1567,726.29 0.34,-4.31 c 0.03,-0.3 1.57,0.2 3.47,1.14 l 17.14,8.5 c 1.9,0.94 3.4,1.94 3.38,2.25 l -0.35,4.31 c -0.03,0.3 -1.57,-0.2 -3.47,-1.14 l -17.14,-8.5 c -1.9,-0.94 -3.4,-1.94 -3.38,-2.25 z" />
      <path
         id="path125"
         fill="#ffffff"
         d="m 1515.49,710.01 0.35,-4.3 c 0.02,-0.32 6.27,2.52 14.02,6.36 l 69.98,34.7 c 7.74,3.84 13.96,7.18 13.93,7.49 l -0.34,4.3 c -0.03,0.31 -6.28,-2.53 -14.03,-6.37 l -69.98,-34.7 c -7.74,-3.83 -13.96,-7.17 -13.93,-7.48 z" />
      <path
         id="path127"
         fill="#ffd42a"
         d="m 1486.07,695.43 0.35,-4.31 c 0.03,-0.31 1.65,0.23 3.63,1.22 l 17.92,8.89 c 1.99,0.98 3.56,2.02 3.54,2.32 l -0.35,4.32 c -0.02,0.3 -1.64,-0.24 -3.62,-1.22 l -17.93,-8.89 c -1.98,-0.98 -3.56,-2.02 -3.54,-2.33 z" />
      <g
         id="g131"
         fill="#ffffff">
        <path
           id="path129"
           d="m 1458.49,459.66 0.35,-4.35 c 0.02,-0.3 0.65,-0.25 1.4,0.12 l 6.85,3.39 c 0.76,0.38 1.35,0.93 1.32,1.24 l -0.35,4.35 c -0.02,0.3 -0.65,0.25 -1.41,-0.12 l -6.85,-3.4 c -0.75,-0.37 -1.34,-0.92 -1.31,-1.23 z m -0.72,8.9 0.35,-4.34 c 0.02,-0.31 0.65,-0.26 1.4,0.12 l 6.85,3.39 c 0.76,0.37 1.35,0.93 1.33,1.24 l -0.35,4.34 c -0.03,0.31 -0.66,0.26 -1.42,-0.12 l -6.84,-3.39 c -0.76,-0.38 -1.35,-0.92 -1.32,-1.24 z m -0.72,8.9 0.35,-4.34 c 0.03,-0.3 0.66,-0.25 1.4,0.12 l 6.85,3.4 c 0.76,0.37 1.35,0.92 1.33,1.23 l -0.35,4.35 c -0.03,0.31 -0.66,0.25 -1.42,-0.12 l -6.84,-3.4 c -0.75,-0.37 -1.34,-0.92 -1.32,-1.23 z m -0.72,8.91 0.35,-4.34 c 0.03,-0.31 0.66,-0.25 1.41,0.12 l 6.85,3.4 c 0.76,0.37 1.35,0.92 1.32,1.23 l -0.35,4.35 c -0.03,0.3 -0.66,0.25 -1.41,-0.13 l -6.85,-3.38 c -0.75,-0.38 -1.34,-0.93 -1.32,-1.25 z m -0.72,8.91 0.35,-4.34 c 0.03,-0.32 0.66,-0.26 1.41,0.11 l 6.85,3.4 c 0.76,0.38 1.35,0.92 1.32,1.24 l -0.35,4.34 c -0.02,0.31 -0.65,0.26 -1.41,-0.12 l -6.85,-3.39 c -0.75,-0.38 -1.34,-0.93 -1.32,-1.24 z m -0.71,8.91 0.35,-4.35 c 0.02,-0.31 0.65,-0.25 1.4,0.12 l 6.85,3.4 c 0.76,0.37 1.35,0.92 1.32,1.23 l -0.35,4.35 c -0.02,0.3 -0.65,0.25 -1.4,-0.13 l -6.85,-3.38 c -0.76,-0.38 -1.35,-0.93 -1.32,-1.24 z m -0.72,8.9 0.35,-4.34 c 0.02,-0.31 0.65,-0.26 1.4,0.12 l 6.85,3.39 c 0.76,0.38 1.35,0.93 1.33,1.24 l -0.35,4.34 c -0.03,0.32 -0.66,0.26 -1.42,-0.12 l -6.84,-3.39 c -0.76,-0.37 -1.35,-0.92 -1.32,-1.23 z m -0.72,8.91 0.35,-4.35 c 0.03,-0.3 0.66,-0.25 1.41,0.12 l 6.85,3.4 c 0.75,0.37 1.34,0.92 1.32,1.24 l -0.35,4.34 c -0.03,0.31 -0.66,0.25 -1.42,-0.12 l -6.84,-3.4 c -0.75,-0.37 -1.34,-0.92 -1.32,-1.23 z m -0.72,8.9 0.35,-4.34 c 0.03,-0.3 0.66,-0.26 1.41,0.12 l 6.85,3.4 c 0.76,0.37 1.35,0.92 1.32,1.23 l -0.35,4.34 c -0.02,0.32 -0.65,0.26 -1.41,-0.11 l -6.85,-3.4 c -0.75,-0.37 -1.34,-0.92 -1.32,-1.23 z m -0.71,8.92 0.35,-4.35 c 0.02,-0.31 0.65,-0.26 1.4,0.12 l 6.85,3.39 c 0.76,0.38 1.35,0.92 1.32,1.24 l -0.35,4.34 c -0.02,0.31 -0.65,0.26 -1.41,-0.12 l -6.85,-3.39 c -0.75,-0.37 -1.34,-0.93 -1.31,-1.24 z m -0.72,8.9 0.35,-4.35 c 0.02,-0.3 0.65,-0.25 1.4,0.12 l 6.85,3.4 c 0.76,0.37 1.35,0.92 1.33,1.23 l -0.36,4.35 c -0.02,0.3 -0.65,0.26 -1.4,-0.12 l -6.85,-3.4 c -0.76,-0.37 -1.35,-0.92 -1.32,-1.23 z m -0.72,8.9 0.35,-4.34 c 0.02,-0.3 0.66,-0.26 1.4,0.12 l 6.85,3.39 c 0.76,0.38 1.35,0.93 1.33,1.24 l -0.35,4.34 c -0.03,0.31 -0.66,0.26 -1.42,-0.11 l -6.84,-3.4 c -0.76,-0.37 -1.35,-0.92 -1.32,-1.24 z m -0.72,8.91 0.35,-4.34 c 0.03,-0.31 0.66,-0.26 1.41,0.12 l 6.85,3.39 c 0.75,0.37 1.34,0.93 1.32,1.24 l -0.35,4.34 c -0.03,0.31 -0.66,0.26 -1.41,-0.12 l -6.85,-3.4 c -0.75,-0.37 -1.34,-0.91 -1.32,-1.23 z m -1.43,17.81 0.35,-4.34 c 0.02,-0.31 0.65,-0.25 1.4,0.12 l 6.85,3.4 c 0.76,0.36 1.35,0.92 1.32,1.23 l -0.35,4.34 c -0.02,0.31 -0.65,0.26 -1.41,-0.11 l -6.85,-3.4 c -0.75,-0.37 -1.34,-0.92 -1.31,-1.24 z m -7.9,97.97 0.35,-4.34 c 0.03,-0.31 0.66,-0.26 1.4,0.11 l 6.85,3.4 c 0.76,0.37 1.35,0.93 1.33,1.24 l -0.35,4.34 c -0.03,0.31 -0.66,0.26 -1.42,-0.12 l -6.84,-3.39 c -0.76,-0.37 -1.35,-0.92 -1.32,-1.24 z m 18.66,-231.56 0.35,-4.35 c 0.03,-0.3 0.66,-0.25 1.41,0.12 l 6.85,3.4 c 0.76,0.37 1.35,0.92 1.32,1.23 l -0.35,4.35 c -0.02,0.3 -0.65,0.26 -1.41,-0.12 l -6.85,-3.4 c -0.75,-0.37 -1.34,-0.92 -1.32,-1.23 z m -19.38,240.47 0.35,-4.34 c 0.03,-0.32 0.66,-0.26 1.41,0.11 l 6.85,3.4 c 0.75,0.37 1.34,0.92 1.32,1.23 l -0.35,4.35 c -0.03,0.31 -0.66,0.26 -1.41,-0.12 l -6.85,-3.39 c -0.75,-0.38 -1.34,-0.93 -1.32,-1.24 z m 9.33,-115.78 0.35,-4.35 c 0.03,-0.3 0.66,-0.25 1.41,0.12 l 6.85,3.4 c 0.76,0.37 1.35,0.92 1.32,1.23 l -0.35,4.35 c -0.02,0.3 -0.65,0.25 -1.41,-0.12 l -6.85,-3.4 c -0.75,-0.37 -1.34,-0.92 -1.32,-1.23 z m -7.9,97.97 0.36,-4.35 c 0.02,-0.3 0.65,-0.25 1.4,0.12 l 6.85,3.39 c 0.76,0.38 1.35,0.93 1.33,1.24 l -0.35,4.35 c -0.03,0.3 -0.66,0.25 -1.42,-0.12 l -6.84,-3.4 c -0.76,-0.37 -1.35,-0.92 -1.32,-1.23 z m 0.73,-8.9 0.35,-4.35 c 0.02,-0.31 0.65,-0.26 1.4,0.12 l 6.85,3.38 c 0.76,0.38 1.35,0.94 1.32,1.25 l -0.35,4.34 c -0.02,0.31 -0.65,0.26 -1.41,-0.12 l -6.85,-3.4 c -0.75,-0.37 -1.34,-0.91 -1.31,-1.23 z m 0.71,-8.91 0.35,-4.35 c 0.03,-0.31 0.66,-0.26 1.41,0.12 l 6.85,3.39 c 0.76,0.38 1.35,0.93 1.32,1.24 l -0.35,4.35 c -0.02,0.3 -0.65,0.25 -1.41,-0.13 l -6.85,-3.39 c -0.75,-0.37 -1.34,-0.92 -1.32,-1.24 z m 0.72,-8.9 0.35,-4.36 c 0.03,-0.3 0.66,-0.25 1.41,0.12 l 6.85,3.4 c 0.75,0.37 1.34,0.92 1.32,1.23 l -0.35,4.35 c -0.03,0.3 -0.66,0.26 -1.42,-0.12 l -6.84,-3.4 c -0.75,-0.37 -1.34,-0.92 -1.32,-1.23 z m 0.72,-8.92 0.35,-4.34 c 0.02,-0.31 0.65,-0.26 1.4,0.12 l 6.85,3.39 c 0.76,0.37 1.35,0.92 1.33,1.24 l -0.35,4.34 c -0.03,0.31 -0.66,0.26 -1.42,-0.12 l -6.84,-3.39 c -0.76,-0.37 -1.35,-0.93 -1.32,-1.24 z m 0.72,-8.9 0.35,-4.35 c 0.02,-0.3 0.65,-0.26 1.4,0.12 l 6.85,3.39 c 0.76,0.38 1.35,0.93 1.32,1.24 l -0.35,4.34 c -0.02,0.32 -0.65,0.26 -1.41,-0.11 l -6.84,-3.4 c -0.76,-0.37 -1.35,-0.92 -1.32,-1.23 z m 0.71,-8.9 0.36,-4.36 c 0.02,-0.3 0.65,-0.25 1.4,0.12 l 6.85,3.4 c 0.76,0.37 1.35,0.92 1.32,1.24 l -0.35,4.34 c -0.02,0.31 -0.65,0.25 -1.41,-0.12 l -6.85,-3.4 c -0.75,-0.37 -1.34,-0.92 -1.32,-1.23 z m 0.72,-8.91 0.35,-4.35 c 0.03,-0.31 0.66,-0.26 1.41,0.12 l 6.85,3.39 c 0.76,0.38 1.35,0.93 1.32,1.24 l -0.35,4.34 c -0.03,0.32 -0.66,0.26 -1.41,-0.12 l -6.85,-3.39 c -0.75,-0.37 -1.34,-0.93 -1.32,-1.23 z m 0.72,-8.91 0.35,-4.35 c 0.03,-0.31 0.66,-0.25 1.41,0.12 l 6.84,3.4 c 0.76,0.37 1.35,0.92 1.33,1.23 l -0.35,4.35 c -0.03,0.3 -0.66,0.25 -1.42,-0.13 l -6.84,-3.38 c -0.75,-0.38 -1.34,-0.93 -1.32,-1.24 z m 0.72,-8.9 0.35,-4.35 c 0.02,-0.32 0.65,-0.26 1.4,0.11 l 6.85,3.4 c 0.76,0.38 1.35,0.92 1.33,1.23 l -0.35,4.35 c -0.03,0.31 -0.66,0.26 -1.42,-0.12 l -6.84,-3.39 c -0.76,-0.38 -1.35,-0.93 -1.32,-1.24 z m -60.99,-151.49 10.02,4.97 -0.62,7.72 -10.03,-4.97 z m 13.62,8.56 27.26,13.52 -0.34,4.24 -27.27,-13.52 z m -4.93,-15.52 27.26,13.52 -0.34,4.24 -27.26,-13.52 z m -13.34,-8.67 10.03,4.97 -0.63,7.72 -10.02,-4.97 z m 10.87,-6.02 20.24,10.03 -0.34,4.24 -20.24,-10.03 z m -13.88,-8.8 10.02,4.97 -0.62,7.72 -10.03,-4.97 z m 20.24,51.82 34.83,17.27 -0.34,4.24 -34.83,-17.27 z m -13.62,-8.56 10.03,4.97 -0.63,7.72 -10.02,-4.97 z m 12.6,21.38 27.26,13.52 -0.35,4.24 -27.26,-13.52 z m -13.63,-8.57 10.02,4.97 -0.62,7.72 -10.02,-4.97 z m 6.62,18.71 45.1,22.36 -0.35,4.24 -45.09,-22.36 z m -13.33,-8.7 10.03,4.96 -0.63,7.72 -10.02,-4.97 z m 8.83,19.32 40.23,19.95 -0.34,4.24 -40.24,-19.95 z m -13.91,-8.52 10.02,4.97 -0.62,7.72 -10.02,-4.97 z m 12.86,21.5 27.26,13.53 -0.34,4.24 -27.26,-13.52 z m -13.9,-8.69 10.03,4.97 -0.62,7.72 -10.03,-4.97 z"
           opacity="0.6" />
      </g>
    </g>
    <rect
       style="fill:#2b2f3b;fill-opacity:1;stroke:#000000;stroke-width:0"
       id="rect1163"
       width="208.1702"
       height="5.7658358"
       x="1507.9556"
       y="832.91089" />
    <g
       transform="matrix(1.0830503,0,0,1.0830503,113.68282,279.91456)"
       id="g268">
      <path
         id="rect526"
         style="fill:#383542;fill-opacity:1;stroke:#000000;stroke-width:0;stroke-linecap:round;stroke-linejoin:round;stroke-miterlimit:4;stroke-dasharray:none;paint-order:fill markers stroke"
         d="m 1662.2445,284.93288 h 92.0226 c 10.9589,0 19.7813,9.91156 19.7813,22.2232 v 186.53599 c 0,12.31165 -8.8224,22.22319 -19.7813,22.22319 h -92.0226 c -10.9589,0 -19.7814,-9.91154 -19.7814,-22.22319 V 307.15608 c 0,-12.31164 8.8225,-22.2232 19.7814,-22.2232 z" />
      <path
         id="rect530"
         style="fill:#f1f6f9;fill-opacity:1;stroke:#000000;stroke-width:0;stroke-linecap:round;stroke-linejoin:round;stroke-miterlimit:4;stroke-dasharray:none;paint-order:fill markers stroke"
         d="m 1648.6554,320.65699 h 119.2007 v 162.44328 h -119.2007 z" />
      <ellipse
         style="fill:#222834;fill-opacity:1;stroke:#000000;stroke-width:0;stroke-linecap:round;stroke-linejoin:round;stroke-miterlimit:4;stroke-dasharray:none;paint-order:fill markers stroke"
         id="path1357"
         cx="1708.2556"
         cy="498.99911"
         rx="9.918788"
         ry="9.9099045" />
      <path
         id="rect1359"
         style="fill:#222834;fill-opacity:1;stroke:#000000;stroke-width:0;stroke-linecap:round;stroke-linejoin:round;stroke-miterlimit:4;stroke-dasharray:none;paint-order:fill markers stroke"
         d="m 1688.0667,302.96402 h 40.378 c 0.7752,0 1.3991,0.49434 1.3991,1.10841 v 1.16117 c 0,0.61406 -0.6239,1.1084 -1.3991,1.1084 h -40.378 c -0.775,0 -1.3991,-0.49434 -1.3991,-1.1084 v -1.16117 c 0,-0.61407 0.6241,-1.10841 1.3991,-1.10841 z" />
      <path
         d="m 1655.3429,326.29421 h 105.8255 v 43.67936 h -105.8255 z"
         style="fill:#264b95;fill-opacity:1;stroke:#000000;stroke-width:0;stroke-linecap:round;stroke-linejoin:round;stroke-miterlimit:4;stroke-dasharray:none;paint-order:fill markers stroke"
         id="path1363" />
      <path
         id="path1365"
         style="fill:#9ba4b4;fill-opacity:1;stroke:#000000;stroke-width:0;stroke-linecap:round;stroke-linejoin:round;stroke-miterlimit:4;stroke-dasharray:none;paint-order:fill markers stroke"
         d="m 1648.8136,374.77284 h 118.8843 v 43.67936 h -118.8843 z" />
      <path
         id="path1367"
         style="fill:#264b95;fill-opacity:1;stroke:#000000;stroke-width:0;stroke-linecap:round;stroke-linejoin:round;stroke-miterlimit:4;stroke-dasharray:none;paint-order:fill markers stroke"
         d="m 1655.3429,428.1025 h 50.7242 v 47.45592 h -50.7242 z" />
      <path
         d="m 1710.4443,428.1025 h 50.7241 v 47.45592 h -50.7241 z"
         style="fill:#264b95;fill-opacity:1;stroke:#000000;stroke-width:0;stroke-linecap:round;stroke-linejoin:round;stroke-miterlimit:4;stroke-dasharray:none;paint-order:fill markers stroke"
         id="path1369" />
      <ellipse
         cy="396.61252"
         cx="1743.1488"
         id="circle1371"
         style="fill:#525c6f;fill-opacity:1;stroke:#000000;stroke-width:0;stroke-linecap:round;stroke-linejoin:round;stroke-miterlimit:4;stroke-dasharray:none;paint-order:fill markers stroke"
         rx="14.958699"
         ry="14.945303" />
      <path
         d="m 1654.3379,389.53447 h 40.3781 c 0.7752,0 1.3991,0.49434 1.3991,1.1084 v 1.16118 c 0,0.61406 -0.6239,1.1084 -1.3991,1.1084 h -40.3781 c -0.775,0 -1.3991,-0.49434 -1.3991,-1.1084 v -1.16118 c 0,-0.61406 0.6241,-1.1084 1.3991,-1.1084 z"
         style="fill:#525c6f;fill-opacity:1;stroke:#000000;stroke-width:0;stroke-linecap:round;stroke-linejoin:round;stroke-miterlimit:4;stroke-dasharray:none;paint-order:fill markers stroke"
         id="path1373" />
      <path
         id="path1375"
         style="fill:#525c6f;fill-opacity:1;stroke:#000000;stroke-width:0;stroke-linecap:round;stroke-linejoin:round;stroke-miterlimit:4;stroke-dasharray:none;paint-order:fill markers stroke"
         d="m 1654.0363,398.24962 h 31.6766 c 0.6082,0 1.0977,0.49434 1.0977,1.1084 v 1.16118 c 0,0.61406 -0.4895,1.1084 -1.0977,1.1084 h -31.6766 c -0.6079,0 -1.0975,-0.49434 -1.0975,-1.1084 v -1.16118 c 0,-0.61406 0.4896,-1.1084 1.0975,-1.1084 z" />
    </g>
    <path
       style="stroke-width:0.482216"
       id="path1583"
       fill-rule="nonzero"
       fill="#00acd7"
       d="m 1621.4288,348.56443 0.5421,0.36188 c 6.3711,4.20732 10.9391,9.97736 13.9443,16.9495 0.7213,1.08189 0.2404,1.68293 -1.202,2.04356 l -2.4419,0.62462 c -5.5197,1.42208 -9.9001,2.6179 -15.3472,4.03996 l -3.1069,0.8095 c -1.1187,0.27678 -1.4276,0.16044 -2.6175,-1.19445 l -0.1678,-0.19251 c -1.6971,-1.92336 -2.9682,-3.2078 -5.2164,-4.35445 l -0.4334,-0.21351 c -7.5732,-3.7265 -14.906,-2.6446 -21.7579,1.80314 -8.1742,5.2892 -12.3815,13.1028 -12.2613,22.83975 0.1201,9.61675 6.7317,17.55057 16.2282,18.87287 8.1743,1.08188 15.0262,-1.80315 20.4356,-7.93382 1.0819,-1.3223 2.0435,-2.76481 3.2456,-4.44774 h -23.2005 c -2.5242,0 -3.1253,-1.56271 -2.2839,-3.60628 l 0.4169,-0.98095 c 1.5448,-3.59447 3.941,-8.76124 5.4974,-11.71531 l 0.3396,-0.63567 c 0.4153,-0.72053 1.2592,-1.69423 2.8821,-1.69423 l 38.6852,-2.7e-4 c 1.7373,-5.50438 4.5564,-10.70556 8.3166,-15.62694 8.7753,-11.54008 19.3536,-17.55054 33.6586,-20.07494 12.2613,-2.16376 23.8014,-0.96167 34.2597,6.13067 9.4964,6.49131 15.3867,15.26659 16.9494,26.80667 2.0436,16.22825 -2.6446,29.45126 -13.8241,40.75094 -7.9338,8.05402 -17.6707,13.1028 -28.8501,15.38678 -3.2458,0.60105 -6.4913,0.72126 -9.6168,1.08189 -10.939,-0.24042 -20.9164,-3.36587 -29.3311,-10.57842 -5.9183,-5.11581 -9.9951,-11.4035 -12.0208,-18.72336 -1.4055,2.83914 -3.0865,5.55823 -5.0489,8.14496 -8.655,11.41987 -19.9547,18.51222 -34.2597,20.43555 -11.7803,1.56274 -22.7195,-0.72123 -32.3362,-7.93379 -8.8955,-6.73173 -13.9443,-15.62721 -15.2666,-26.68646 -1.5627,-13.10281 2.284,-24.88332 10.2177,-35.22132 8.535,-11.17946 19.8346,-18.2718 33.6587,-20.79621 11.0904,-2.0057 21.7177,-0.76906 31.3133,5.52839 z m 57.1849,17.22578 -0.3847,0.0856 c -11.1796,2.5244 -18.3922,9.61675 -21.0367,20.91642 -2.1638,9.37633 2.4042,18.87285 11.0592,22.71954 6.6116,2.88503 13.223,2.52441 19.5941,-0.72125 9.4966,-4.92857 14.6656,-12.62196 15.2667,-22.95997 -0.1203,-1.56271 -0.1203,-2.76481 -0.3607,-3.9669 -2.1395,-11.767 -12.8581,-18.48051 -24.1379,-16.07343 z m -142.1115,21.96369 c 0.4808,0 0.7212,0.36062 0.7212,0.84146 l -0.2404,2.88503 c 0,0.48083 -0.4808,0.84146 -0.8415,0.84146 l -26.2056,-0.12021 c -0.4808,0 -0.6011,-0.36063 -0.3606,-0.72125 l 1.6828,-3.00523 c 0.2406,-0.36064 0.7213,-0.72126 1.2022,-0.72126 z m 2.6446,-11.05924 c 0.4809,0 0.7212,0.36061 0.6011,0.72123 l -0.9618,2.88503 c -0.1202,0.48083 -0.6011,0.72126 -1.0818,0.72126 l -56.859,0.12021 c -0.4809,0 -0.6011,-0.24042 -0.3606,-0.60104 l 2.5244,-3.24567 c 0.2404,-0.36062 0.8415,-0.60102 1.3222,-0.60102 z m 6.2509,-11.05926 c 0.4808,0 0.601,0.36061 0.3606,0.72124 l -2.0435,3.12545 c -0.2405,0.36063 -0.8416,0.72125 -1.2021,0.72125 l -43.5158,-0.12021 c -0.4809,0 -0.601,-0.24041 -0.3606,-0.60104 l 2.5243,-3.24565 c 0.2405,-0.36063 0.8416,-0.60104 1.3223,-0.60104 z" />
    <path
       style="fill-rule:evenodd;stroke-width:0.612636"
       id="path1597"
       fill="#e535ab"
       d="m 1262.4867,516.18326 36.2351,20.9209 c 1.0202,-1.08075 2.212,-2.03502 3.564,-2.8203 7.5151,-4.32003 17.1002,-1.75502 21.4652,5.76003 4.3201,7.51503 1.755,17.10008 -5.7601,21.4651 -1.3416,0.77126 -2.7507,1.32307 -4.185,1.66645 v 41.85818 c 1.4188,0.34409 2.8123,0.89241 4.1401,1.6556 7.56,4.36502 10.1251,13.95007 5.7599,21.46511 -4.3199,7.51503 -13.95,10.08005 -21.465,5.76003 -1.4962,-0.86008 -2.7962,-1.93062 -3.8846,-3.15303 l -36.014,20.79329 c 0.5147,1.55565 0.7934,3.21972 0.7934,4.94985 0,8.64004 -7.0201,15.70508 -15.7051,15.70508 -8.6851,0 -15.7051,-7.02003 -15.7051,-15.70508 0,-1.54378 0.2218,-3.03497 0.6353,-4.44347 l -36.2253,-20.91534 c -1.0094,1.05954 -2.1847,1.99593 -3.5152,2.7687 -7.5601,4.32002 -17.1451,1.755 -21.4652,-5.76002 -4.3199,-7.51504 -1.7549,-17.10009 5.7601,-21.46511 1.3287,-0.76382 2.7222,-1.3124 4.14,-1.65645 v -41.85734 c -1.4342,-0.34338 -2.8433,-0.89519 -4.185,-1.66644 -7.515,-4.32004 -10.0801,-13.95008 -5.76,-21.4651 4.32,-7.51506 13.95,-10.08006 21.4651,-5.76003 1.3447,0.78102 2.5309,1.72917 3.5474,2.80268 l 36.2448,-20.92656 c -0.4178,-1.41518 -0.642,-2.91413 -0.642,-4.46625 0,-8.68504 7.02,-15.70507 15.7051,-15.70507 8.685,0 15.7051,7.02003 15.7051,15.70507 0,1.56063 -0.2267,3.0675 -0.649,4.48952 z m -3.7753,6.44581 36.3213,20.97073 c -1.1227,3.94322 -0.7107,8.31553 1.4931,12.14916 2.211,3.84613 5.8127,6.39569 9.8101,7.3893 v 41.91056 c -0.2038,0.05 -0.4064,0.10408 -0.6079,0.16209 l -47.4383,-82.16296 c 0.1432,-0.13697 0.2838,-0.27663 0.4217,-0.41888 z m -22.13,0.42837 -47.4374,82.16158 c -0.2052,-0.0596 -0.4114,-0.11496 -0.6188,-0.16615 v -41.91459 c 3.9973,-0.99362 7.5991,-3.54318 9.8101,-7.38931 2.2081,-3.84121 2.6175,-8.22324 1.4865,-12.17256 l 36.311,-20.96481 c 0.1465,0.15159 0.2961,0.30024 0.4486,0.44584 z m 15.2374,3.72217 47.4266,82.14297 c -1.0614,1.01198 -1.9969,2.19117 -2.7646,3.52667 -0.7632,1.32764 -1.3115,2.72131 -1.6556,4.14002 h -94.7885 c -0.3439,-1.41786 -0.8926,-2.8113 -1.6564,-4.14002 -0.7707,-1.32696 -1.7043,-2.49959 -2.7603,-3.50723 l 47.4356,-82.1586 c 1.3883,0.40072 2.8562,0.6154 4.375,0.6154 1.5236,0 2.9959,-0.21605 4.3882,-0.61921 z m 7.2262,119.14439 36.0855,-20.83459 c -0.1083,-0.34 -0.205,-0.68358 -0.2901,-1.0301 h -94.8237 c -0.05,0.20359 -0.1051,0.40618 -0.163,0.60763 l 36.2626,20.9368 c 2.8551,-2.96313 6.8663,-4.80435 11.3143,-4.80435 4.606,0 8.7438,1.97447 11.6144,5.12461 z" />
    <path
       style="stroke-width:0.463852"
       id="path1625"
       fill="#539e43"
       d="m 1345.4223,453.21178 c -1.8439,0 -3.5648,-0.49169 -5.1629,-1.35217 l -16.3491,-9.71111 c -2.4584,-1.3522 -1.2293,-1.8439 -0.4916,-2.08975 3.3189,-1.10633 3.9335,-1.35217 7.3754,-3.31898 0.3688,-0.24586 0.8604,-0.12293 1.2293,0.12292 l 12.5384,7.49845 c 0.4917,0.24586 1.1063,0.24586 1.4751,0 l 49.0472,-28.39578 c 0.4918,-0.24586 0.7377,-0.73755 0.7377,-1.35218 v -56.66867 c 0,-0.61462 -0.2459,-1.10632 -0.7377,-1.35217 l -49.0472,-28.27287 c -0.4917,-0.24585 -1.1064,-0.24585 -1.4751,0 l -49.0474,28.27287 c -0.4916,0.24585 -0.7374,0.86048 -0.7374,1.35217 v 56.66867 c 0,0.49169 0.2458,1.10632 0.7374,1.35218 l 13.399,7.74431 c 7.2526,3.68776 11.8008,-0.61465 11.8008,-4.91703 v -55.9311 c 0,-0.73755 0.6146,-1.47512 1.4751,-1.47512 h 6.2692 c 0.7376,0 1.4752,0.61464 1.4752,1.47512 v 55.9311 c 0,9.71111 -5.2859,15.36569 -14.5053,15.36569 -2.8273,0 -5.0399,0 -11.309,-3.07314 l -12.9073,-7.37552 c -3.1961,-1.84389 -5.1629,-5.2858 -5.1629,-8.97357 v -56.66865 c 0,-3.68778 1.9668,-7.12969 5.1629,-8.97357 l 49.0473,-28.3958 c 3.0731,-1.72096 7.2526,-1.72096 10.3258,0 l 49.0472,28.3958 c 3.1961,1.84388 5.1629,5.28579 5.1629,8.97357 v 56.66865 c 0,3.68777 -1.9668,7.12968 -5.1629,8.97357 l -49.0472,28.39578 c -1.5981,0.73756 -3.442,1.10633 -5.1629,1.10633 z m 15.1198,-38.96737 c -21.512,0 -25.9372,-9.83405 -25.9372,-18.19299 0,-0.73755 0.6145,-1.47511 1.475,-1.47511 h 6.3921 c 0.7376,0 1.3522,0.4917 1.3522,1.22926 0.9834,6.51505 3.8107,9.71111 16.8408,9.71111 10.3258,0 14.7511,-2.33558 14.7511,-7.86723 0,-3.19606 -1.2292,-5.53165 -17.3324,-7.12968 -13.399,-1.35219 -21.7579,-4.30238 -21.7579,-14.9969 0,-9.95697 8.3589,-15.85739 22.3724,-15.85739 15.7344,0 23.4789,5.40872 24.4622,17.20956 0,0.36878 -0.1229,0.73754 -0.3688,1.10633 -0.2458,0.24585 -0.6145,0.4917 -0.9834,0.4917 h -6.3921 c -0.6147,0 -1.2292,-0.4917 -1.3521,-1.10634 -1.4752,-6.76088 -5.2859,-8.97356 -15.3658,-8.97356 -11.3091,0 -12.6613,3.93362 -12.6613,6.88384 0,3.56484 1.598,4.67117 16.8408,6.63798 15.1199,1.96681 22.2495,4.79408 22.2495,15.36569 -0.1229,10.81744 -8.9735,16.96373 -24.5851,16.96373 z" />
    <g
       id="g2367"
       transform="matrix(0.55042394,0,0,0.55042394,1923.6908,425.41088)">
      <polygon
         id="polygon2361"
         points="128,0 256,0 256,128 256,256 128,256 0,256 0,128 0,0 "
         transform="matrix(1,0,0,-1,0,256)"
         fill="#007acc" />
      <path
         id="path2363"
         transform="rotate(180,101.63464,176.14299)"
         fill="#ffffff"
         d="m 146.65813,223.43686 0.0813,-10.48381 H 130.07908 113.41877 V 165.61337 118.27369 H 101.63464 89.850513 v 47.33968 47.33968 H 73.190195 56.529878 v 10.28064 c 0,5.68889 0.121904,10.44317 0.284444,10.56508 0.121905,0.16254 20.39873,0.24381 44.982858,0.20317 l 44.73905,-0.1219 z" />
      <path
         id="path2365"
         transform="matrix(1,0,0,-1,0,352.38048)"
         fill="#ffffff"
         d="m 206.56663,234.27214 c 6.50159,-1.62539 11.45905,-4.51047 16.01016,-9.22412 2.35683,-2.51937 5.85143,-7.11111 6.13587,-8.20826 0.0813,-0.32508 -11.0527,-7.8019 -17.79809,-11.9873 -0.24381,-0.16254 -1.21905,0.89397 -2.31619,2.51937 -3.29143,4.79492 -6.7454,6.8673 -12.02794,7.23301 -7.76127,0.52826 -12.75936,-3.53524 -12.71873,-10.32127 0,-1.99111 0.28444,-3.16952 1.09714,-4.79492 1.70667,-3.53524 4.87619,-5.64825 14.83175,-9.95555 18.32635,-7.88318 26.16889,-13.08445 31.04508,-20.48 5.44508,-8.24889 6.66413,-21.41461 2.96635,-31.20762 -4.06349,-10.64635 -14.14095,-17.87937 -28.32254,-20.27683 -4.38857,-0.77206 -14.79111,-0.65016 -19.50476,0.20318 -10.28064,1.82857 -20.03302,6.90793 -26.04699,13.57206 -2.35682,2.60064 -6.94857,9.38667 -6.66412,9.87429 0.1219,0.16254 1.17841,0.81269 2.35682,1.50349 1.13778,0.65016 5.44508,3.12889 9.50857,5.48571 l 7.35492,4.26667 1.54413,-2.27556 c 2.15365,-3.29143 6.8673,-7.8019 9.71175,-9.30539 8.16761,-4.30731 19.38285,-3.69778 24.9092,1.25968 2.35683,2.15365 3.33207,4.38857 3.33207,7.68 0,2.96635 -0.36572,4.26667 -1.90985,6.50159 -1.99111,2.84444 -6.0546,5.2419 -17.59492,10.24 -13.20635,5.68889 -18.89523,9.22412 -24.0965,14.83174 -3.00699,3.2508 -5.85143,8.45207 -7.02985,12.8 -0.97523,3.61651 -1.21904,12.6781 -0.44698,16.33524 2.72254,12.75937 12.35302,21.65841 26.25016,24.29968 4.51048,0.85334 14.99428,0.52826 19.42349,-0.56889 z" />
    </g>
  </g>
</svg>
