<svg xmlns="http://www.w3.org/2000/svg" xmlns:xlink="http://www.w3.org/1999/xlink" viewBox="0 0 1920 1080"><filter color-interpolation-filters="sRGB" y="-.03" x="-.03" height="1.07" width="1.05" id="a"><feGaussianBlur stdDeviation="7.36"/></filter><filter color-interpolation-filters="sRGB" y="-.08" x="-.09" height="1.15" width="1.18" id="c"><feGaussianBlur stdDeviation="16.03"/></filter><filter color-interpolation-filters="sRGB" y="-.11" x="-.06" height="1.23" width="1.13" id="b"><feGaussianBlur stdDeviation="16.03"/></filter><linearGradient gradientUnits="userSpaceOnUse" y2="960.81" y1="874.11" x2="1260.31" x1="1259.09" id="e"><stop stop-color="#a3a883" offset="0"/><stop stop-color="#fff" offset="1"/></linearGradient><circle transform="matrix(.7071 .7071 -.83 .55778 0 0)" stroke-width="1.01" stroke-linejoin="round" stroke-linecap="round" stroke="#000" fill="#7577de" cy="-360.99" cx="1509.99"/><path d="M2094.28 10.87c-79.17 5.83-185.92 28-229.17 101.56-21.54 31.26-22.64 73.56-48.51 101.79-41.12 25.96-94.56 11.42-140.02 12.67-43.02-3.59-104.58.6-124.2 47.53-18.03 43.23-28.96 101.23-78.71 119.82-86.16 33.4-187.55-6.35-269.44 40.16-55.62 39.27-71.36 112.09-84.46 174.82-17 71.84-16.27 156.7-68.35 214.82-64.16 65.32-163.16 71.49-246.28 94.75-57.44 14.45-126.03 38.14-147.32 99.57-1.37 37.15-.19 74.73-.58 112.04h1437.03l.01-1119.53z" fill="#4e63d6"/><g stroke-width="0" stroke-linejoin="round" stroke-linecap="round" stroke="none"><path transform="matrix(1.70244 0 0 1.7064 -1380.48 -898.58)" filter="url(#a)" d="M2031.8 651.89a273.35 273.35 0 00-22.99 2.74c-3.6.61-7.04 1.28-10.34 2.01a172.65 172.65 0 00-18.15 5.07c-2.75.96-5.38 1.96-7.88 3.01a115.9 115.9 0 00-7.15 3.28 103.57 103.57 0 00-12.27 7.28 87.49 87.49 0 00-9.86 8.02 80.9 80.9 0 00-11.03 12.91 90.47 90.47 0 00-5.37 8.86 113.77 113.77 0 00-4.17 8.77c-2.46 5.76-4.36 11.32-6.18 16.34-.9 2.52-1.78 4.9-2.7 7.1a53.89 53.89 0 01-2.91 6.08 25.1 25.1 0 01-3.48 4.81 14.73 14.73 0 01-4.38 3.3 39.56 39.56 0 01-5.97 2.38c-2.1.65-4.31 1.18-6.61 1.59s-4.7.71-7.16.93-5 .34-7.6.4c-5.19.13-10.61-.01-16.13-.24s-11.13-.55-16.71-.8c-5.58-.24-11.13-.4-16.5-.3-2.7.05-5.34.16-7.93.36s-5.12.48-7.58.87c-2.45.39-4.83.89-7.12 1.51a49.2 49.2 0 00-6.58 2.29 38.4 38.4 0 00-5.93 3.18 33.1 33.1 0 00-5.18 4.22 34.82 34.82 0 00-4.41 5.61 54.78 54.78 0 00-3.55 6.73c-1.07 2.4-2.06 4.92-3.02 7.53-.96 2.6-1.9 5.29-2.86 8a239.6 239.6 0 01-3.02 8.19 102.85 102.85 0 01-3.54 8.04 64.11 64.11 0 01-4.4 7.58 50.2 50.2 0 01-5.62 6.82 39.91 39.91 0 01-6.75 5.43 50.1 50.1 0 01-7.8 4.1 67.5 67.5 0 01-8.74 2.96 96.5 96.5 0 01-9.49 2c-3.27.54-6.65.95-10.1 1.26-3.46.31-7 .53-10.58.7-7.18.31-14.57.39-21.96.47-7.4.09-14.81.19-22.04.56-3.61.18-7.18.44-10.68.79-3.49.35-6.91.8-10.24 1.4-3.33.58-6.56 1.3-9.67 2.18s-6.1 1.92-8.94 3.17a53.4 53.4 0 00-8.07 4.35 46.38 46.38 0 00-7.04 5.73 76.78 76.78 0 00-6.75 7.74c-2.09 2.73-4.01 5.6-5.79 8.6s-3.41 6.13-4.93 9.37a136.3 136.3 0 00-4.18 10 176.22 176.22 0 00-3.54 10.5 234.94 234.94 0 00-3.02 10.93 398.9 398.9 0 00-4.9 22.62c-1.46 7.64-2.79 15.31-4.13 22.89a685.88 685.88 0 01-4.24 22.24 298.7 298.7 0 01-2.44 10.6c-.86 3.45-1.79 6.82-2.8 10.09-1 3.27-2.08 6.43-3.26 9.47a101.64 101.64 0 01-3.84 8.75 71.28 71.28 0 01-15.9 20.98 83.04 83.04 0 01-6.69 5.51 95.56 95.56 0 01-7.28 4.89 113.34 113.34 0 01-7.8 4.31 137.84 137.84 0 01-8.24 3.82 168 168 0 01-8.63 3.38c-5.87 2.12-11.94 4-18.14 5.72a484.74 484.74 0 01-18.86 4.77c-12.7 2.97-25.52 5.66-37.74 8.77a293.62 293.62 0 00-17.8 5.05c-2.86.93-5.66 1.9-8.4 2.93a140.2 140.2 0 00-7.97 3.27 109.3 109.3 0 00-7.48 3.7 86.1 86.1 0 00-6.91 4.17 71.87 71.87 0 00-6.3 4.72 61.64 61.64 0 00-5.6 5.33 55.92 55.92 0 00-8.83 12.78c-1.08 2.17-2 4.5-2.83 6.9v52.96h683.6z"/><path d="M2078.54 213.8a465.36 466.44 0 00-39.14 4.68 358.9 358.9 0 00-17.6 3.43 293.93 294.61 0 00-30.9 8.65 232.67 232.67 0 00-13.42 5.14 197.31 197.77 0 00-12.17 5.6 176.32 176.73 0 00-20.9 12.42 148.95 149.3 0 00-16.78 13.68 137.73 138.05 0 00-18.77 22.03 154.02 154.38 0 00-9.15 15.12 193.69 194.14 0 00-7.1 14.97c-4.18 9.83-7.42 19.31-10.52 27.88a248 248 0 01-4.6 12.11 91.74 91.96 0 01-4.95 10.38 42.73 42.83 0 01-5.92 8.2 25.08 25.14 0 01-7.46 5.64 67.35 67.5 0 01-10.16 4.06c-3.58 1.1-7.34 2.01-11.26 2.71s-8 1.21-12.18 1.59-8.52.58-12.94.68c-8.84.22-18.07-.01-27.46-.4s-18.95-.95-28.45-1.37c-9.5-.41-18.95-.68-28.1-.51-4.59.08-9.08.27-13.5.61s-8.7.82-12.9 1.48c-4.17.67-8.22 1.52-12.12 2.58a83.76 83.95 0 00-11.2 3.9 65.37 65.53 0 00-10.1 5.44 56.35 56.48 0 00-8.81 7.2 59.28 59.42 0 00-7.51 9.57 93.26 93.48 0 00-6.05 11.48c-1.82 4.1-3.5 8.4-5.14 12.85-1.63 4.44-3.23 9.03-4.87 13.65a407.9 408.85 0 01-5.14 13.98 175.1 175.5 0 01-6.02 13.72 109.14 109.4 0 01-7.5 12.93 85.46 85.66 0 01-9.56 11.64 67.94 68.1 0 01-11.5 9.27 85.3 85.5 0 01-13.27 7 114.91 115.18 0 01-14.88 5.04 164.29 164.67 0 01-16.16 3.42 234.2 234.2 0 01-17.2 2.15c-5.88.53-11.91.9-18 1.2-12.23.52-24.81.66-37.4.8-12.59.15-25.2.32-37.51.95-6.15.3-12.23.75-18.18 1.35a224.6 224.6 0 00-17.44 2.39c-5.67.99-11.17 2.21-16.46 3.72s-10.38 3.27-15.22 5.4a90.91 91.12 0 00-13.74 7.43 78.96 79.14 0 00-11.98 9.78 130.71 131.02 0 00-11.5 13.2c-3.55 4.66-6.82 9.56-9.85 14.68s-5.8 10.46-8.4 15.99a232.04 232.58 0 00-7.11 17.06 300 300.7 0 00-6.03 17.92 399.97 400.9 0 00-5.14 18.65 679.1 680.68 0 00-8.34 38.6c-2.49 13.03-4.75 26.12-7.03 39.06a1167.67 1170.39 0 01-7.22 37.95 508.52 509.7 0 01-4.15 18.09 324.33 324.33 0 01-4.77 17.21 233.24 233.24 0 01-5.55 16.16 173.04 173.44 0 01-6.54 14.93 121.35 121.63 0 01-27.07 35.8 141.37 141.7 0 01-11.39 9.4 162.69 163.06 0 01-12.4 8.35 192.95 193.4 0 01-13.27 7.36 234.66 235.21 0 01-14.03 6.51 286.01 286.68 0 01-14.69 5.77c-10 3.62-20.33 6.83-30.88 9.76a825.24 827.16 0 01-32.11 8.14c-21.62 5.07-43.45 9.66-64.25 14.97a499.87 501.03 0 00-30.3 8.61 334.82 334.82 0 00-14.3 5 238.68 239.24 0 00-13.57 5.58 186.08 186.51 0 00-12.74 6.32 146.58 146.92 0 00-11.76 7.11 122.35 122.64 0 00-10.73 8.06 104.94 105.18 0 00-9.53 9.1 95.2 95.42 0 00-15.03 21.8 99.52 99.52 0 00-4.82 11.77v90.38h1163.79z" fill="#5523c2"/></g><path filter="url(#b)" d="M1357.85 695.8s370.89 172.3 369.52 172.82c0 0 10.47 20.6-4.92 37.31-4 4.36-173.69 116.37-173.69 116.37-25.2 11.56-44.56 12.15-64.01 4.28L1124.52 850.8c-11.65-4.6-10.2-28.04-6.35-30.6L1289 705.94c21-14.05 51.5-18.55 68.85-10.14z"/><path d="M1357.85 695.8s370.89 172.3 369.52 172.82c0 0 10.47 20.6-4.92 37.31-4 4.36-173.69 116.37-173.69 116.37-25.2 11.56-44.56 12.15-64.01 4.28L1124.52 850.8c-11.65-4.6-10.2-28.04-6.35-30.6L1289 705.94c21-14.05 51.5-18.55 68.85-10.14z" fill="#999"/><path filter="url(#c)" d="M1380.25 366.33l380.5 188.18c8.99 14.87 11.42 18.83 9.36 37.42 0 0-15.04 189.19-19.25 242.53-3.04 22.23-19.85 34.2-40.7 24.18L1353.53 687.3c-16.57-8.36-20.85-29.48-19.12-46.63l20.63-261.77c8.1-13.66 7.3-15.94 25.2-12.56z"/><path d="M1380.25 366.33l380.5 188.18c8.99 14.87 11.42 18.83 9.36 37.42 0 0-15.04 189.19-19.25 242.53-3.04 22.23-19.85 34.2-40.7 24.18L1353.53 687.3c-16.57-8.36-20.85-29.48-19.12-46.63l20.63-261.77c8.1-13.66 7.3-15.94 25.2-12.56z" fill="#e6e6e6"/><path d="M1542.45 457.04v311.29l159.65 78.03c15.15 7.41 30.58 2.1 34.75-12.17 3.86-29.8 17.43-242.6 17.43-242.6 4.17-14.26-4.62-31.8-19.7-39.32z" fill="#333"/><path d="M1375.27 377.45c-4.92.61-6.9 5.23-9.99 14.4l-19.6 246.88c-1.56 15.42 2.33 34.41 17.42 41.93l179.35 87.67V457l-154.24-76.44c-5.96-2.4-9.98-3.47-12.94-3.1z" fill="#1a1a1a"/><path d="M1358.82 687.04l360.9 175.59c16.9 8.22 14 25.82-6.47 39.45l-158.1 105.3c-20.49 13.64-50.57 18-67.47 9.78l-360.89-175.6c-16.9-8.21-14.01-25.8 6.46-39.45l158.12-105.3c20.47-13.63 50.56-18 67.45-9.77z" fill="#ccc"/><path d="M1335.07 852.94l106.8 53.17c5 2.5 4.09 7.7-2.05 11.67l-47.38 30.7c-6.14 3.97-15.1 5.17-20.1 2.68l-106.8-53.17c-5-2.49-4.1-7.7 2.04-11.67l47.4-30.7c6.13-3.97 15.1-5.17 20.1-2.68z"/><g transform="translate(134.15 -88.09) scale(1.39406)" stroke-width="0" stroke="#fff"><path d="M1093.16 677.36a4 5.47 69.2 01-7.4.21 4 5.47 69.2 011.28-5.96 4 5.47 69.2 017.4-.21 4 5.47 69.2 01-1.28 5.96z" stroke-linejoin="round" stroke-linecap="round" id="d"/><use xlink:href="#d" transform="translate(13.99 6.75)" height="100%" width="100%"/><use xlink:href="#d" transform="translate(27.52 13.58)" height="100%" width="100%"/></g><path d="M1289.28 795.93l21.4 10.83-23.09 15.2-21.14-10.7zm28.13 14.23l21.4 10.82-23.08 15.2-21.14-10.69zm140.69 71.13l21.4 10.82-23.09 15.2-21.14-10.69zm28.13 14.22l21.4 10.83-23.08 15.2-21.14-10.7zm28.14 14.23l21.4 10.82-23.09 15.2-21.14-10.69zm28.13 14.23l21.4 10.82-23.08 15.2-21.14-10.7zm-223.3-148.08l21.4 10.82-23.08 15.2-21.14-10.69zm28.14 14.23l21.4 10.82-23.09 15.2-21.14-10.7zm28.13 14.22l21.4 10.83-23.08 15.2-21.14-10.7zm28.14 14.23l21.4 10.82-23.08 15.2-21.14-10.69zm28.14 14.23l21.4 10.82-23.09 15.2-21.14-10.7zm28.13 14.22l21.4 10.82-23.08 15.2-21.14-10.69zm28.14 14.23l21.4 10.82-23.09 15.2-21.13-10.7zm28.13 14.22l21.4 10.83-23.08 15.2-21.14-10.7zm28.15 14.23l21.4 10.82-23.1 15.2-21.13-10.69zm28.13 14.22l21.4 10.83-23.09 15.2-21.14-10.7zm-223.3-148.07l21.4 10.82-23.09 15.2-21.14-10.69zm28.13 14.22l21.4 10.83-23.08 15.2-21.14-10.7zm28.14 14.23l21.4 10.83-23.09 15.2-21.14-10.7zm28.13 14.23l21.4 10.82-23.08 15.2-21.14-10.7zm28.14 14.22l21.4 10.83-23.08 15.2-21.14-10.7zm28.13 14.23l21.4 10.82-23.08 15.2-21.14-10.69zm28.14 14.22l21.4 10.83-23.08 15.2-21.14-10.7zm28.14 14.23l21.4 10.83-23.09 15.2-21.13-10.7zm28.13 14.23l21.4 10.82-23.08 15.2-21.14-10.69zm28.14 14.22l21.4 10.83-23.08 15.2-21.14-10.7z"/><path d="M1261.14 781.7l21.4 10.83-23.09 15.2-21.13-10.7zm29.93-20.03l21.4 10.82-23.1 15.2-21.13-10.7zm29.92-20.04l21.4 10.82-23.09 15.2-21.13-10.7zm29.93-20.05l21.38 10.82-23.07 15.21-21.14-10.7z" stroke="none" stroke-width="0" stroke-linejoin="round" stroke-linecap="round"/><path d="M1379.05 735.8l21.4 10.83-23.09 15.2-21.13-10.69zm28.13 14.23l21.4 10.83-23.08 15.2-21.14-10.7zm28.14 14.23l21.4 10.82-23.08 15.2-21.14-10.69zm28.14 14.22l21.4 10.83-23.09 15.2-21.14-10.7zm28.14 14.23l21.4 10.83-23.1 15.2-21.13-10.7zm28.13 14.23l21.4 10.82-23.08 15.2-21.14-10.69zm28.14 14.22l21.4 10.83-23.09 15.2-21.14-10.7zm28.13 14.23l21.4 10.82-23.08 15.2-21.14-10.69zm28.14 14.23l21.4 10.82-23.09 15.2-21.14-10.7zm28.13 14.22l21.4 10.83-23.08 15.2-21.14-10.7zm-285.47-38.71l105.42 53.07-22.56 15.5-105.68-53.23z"/><g stroke-width="0"><path d="M1570 938.06l21.39 10.82-23.08 15.2-21.14-10.7zm30.55-19.61l21.4 10.82-23.1 15.2-21.13-10.69zm30.56-19.62l21.4 10.83-23.09 15.2-21.13-10.7zm30.56-19.62l21.4 10.84-23.1 15.2-21.13-10.7zM1235.56 768.49l21.4 10.82-23.09 15.2-21.13-10.69zm28.9-19.62l21.4 10.83-23.09 15.2-21.13-10.7zm28.9-19.62l21.4 10.84-23.09 15.2-21.13-10.7zm28.92-19.6l21.39 10.82-23.08 15.2-21.14-10.7z" stroke="none" stroke-linejoin="round" stroke-linecap="round"/><g stroke-linejoin="round" stroke-linecap="round" stroke="none"><path d="M1369.26 395.03l81.03 40.18-20.66 256.32-81.03-40.18z" fill="#1a1a1a"/><path d="M1450.51 435.43l297.22 147.37-20.66 256.32-297.22-147.37z" fill="#333"/><path d="M1487.88 474.18l.35-4.3c.03-.32 4.95 1.87 11.05 4.9l55.1 27.3c6.09 3.03 10.98 5.7 10.95 6.02l-.34 4.3c-.03.31-4.96-1.87-11.05-4.9l-55.1-27.3c-6.1-3.03-10.98-5.71-10.96-6.01z" fill="#fff"/><path d="M1567.83 513.82l.35-4.31c.02-.31 7.7 3.24 17.22 7.96l85.96 42.62c9.52 4.72 17.16 8.76 17.14 9.07l-.35 4.31c-.03.3-7.7-3.24-17.22-7.96l-85.97-42.62c-9.51-4.72-17.15-8.76-17.13-9.07z" fill="#f55"/><path d="M1487.17 483.08l.34-4.3c.03-.32 6.53 2.65 14.57 6.64l72.72 36.05c8.05 4 14.5 7.45 14.48 7.76l-.35 4.3c-.02.31-6.52-2.65-14.57-6.64l-72.71-36.05c-8.05-3.99-14.5-7.45-14.48-7.76z" fill="#fff"/><path d="M1591.43 534.77l.34-4.3c.03-.32 4.2 1.5 9.35 4.05l46.6 23.1c5.16 2.56 9.29 4.87 9.26 5.17l-.34 4.31c-.03.31-4.2-1.5-9.35-4.05l-46.6-23.1c-5.16-2.57-9.29-4.87-9.26-5.18z" fill="#2a7fff"/><path d="M1486.45 491.98l.35-4.3c.02-.32 6.52 2.65 14.57 6.64l72.71 36.05c8.05 4 14.5 7.45 14.48 7.76l-.34 4.3c-.03.32-6.53-2.65-14.57-6.64l-72.72-36.05c-8.05-4-14.5-7.45-14.48-7.76z" fill="#ffd42a"/><path d="M1485.73 500.88l.35-4.3c.02-.31 1.85.33 4.08 1.44l20.23 10.02c2.24 1.12 4.02 2.25 4 2.56l-.36 4.31c-.02.31-1.84-.34-4.08-1.44l-20.22-10.03c-2.24-1.1-4.02-2.25-4-2.56zm-15.43 149.7l.34-4.31c.03-.3 1.85.34 4.09 1.45l20.22 10.03c2.24 1.1 4.02 2.25 4 2.55l-.35 4.31c-.03.31-1.85-.33-4.09-1.44l-20.22-10.03c-2.24-1.11-4.02-2.25-4-2.56zm24.44-135.97l.35-4.31c.02-.31 3.35 1.08 7.48 3.12l37.2 18.45c4.12 2.04 7.41 3.93 7.39 4.24l-.35 4.31c-.02.31-3.36-1.09-7.48-3.13l-37.2-18.45c-4.12-2.04-7.42-3.93-7.4-4.24zm-7.17 89l.34-4.31c.03-.3 3.36 1.08 7.48 3.13l37.2 18.44c4.12 2.04 7.42 3.94 7.4 4.25l-.35 4.3c-.03.31-3.36-1.09-7.48-3.13l-37.2-18.44c-4.13-2.05-7.42-3.93-7.4-4.24z" fill="#fff"/><path d="M1510.33 540.85l.35-4.31c.02-.31 8.93 3.85 19.97 9.32l99.73 49.44c11.04 5.48 19.9 10.13 19.88 10.44l-.35 4.31c-.02.3-8.93-3.85-19.97-9.32l-99.73-49.45c-11.04-5.47-19.9-10.12-19.88-10.43z" fill="#2a7fff"/><path d="M1509.62 549.75l.34-4.31c.03-.31 12.06 5.4 26.99 12.8l134.85 66.86c14.93 7.4 26.92 13.6 26.9 13.9l-.35 4.32c-.03.3-12.06-5.4-26.98-12.8l-134.86-66.86c-14.92-7.4-26.92-13.6-26.9-13.91z" fill="#f55"/><path d="M1508.9 558.65l.35-4.31c.02-.3 1.63.23 3.62 1.22l17.93 8.89c1.98.98 3.56 2.01 3.53 2.33l-.35 4.3c-.02.32-1.64-.23-3.62-1.21l-17.93-8.9c-1.98-.97-3.56-2.01-3.53-2.32z" fill="#ffd42a"/><path d="M1507.46 576.45l.35-4.31c.03-.3 5.31 2.05 11.85 5.3l59.1 29.3c6.54 3.23 11.78 6.1 11.76 6.4l-.35 4.31c-.03.3-5.31-2.05-11.85-5.3l-59.1-29.3c-6.54-3.23-11.78-6.1-11.76-6.4z" fill="#fff"/><path d="M1506.03 594.25l.35-4.31c.02-.3 6.28 2.54 14.03 6.38l70 34.71c7.76 3.84 13.97 7.18 13.95 7.49l-.35 4.3c-.02.32-6.28-2.53-14.03-6.37l-70-34.71c-7.76-3.84-13.98-7.18-13.95-7.5z" fill="#f55"/><path d="M1536.15 599.93l.35-4.31c.03-.3 6.28 2.54 14.03 6.38l69.98 34.7c7.75 3.83 13.96 7.17 13.94 7.48l-.35 4.3c-.03.32-6.28-2.53-14.03-6.37l-69.98-34.7c-7.74-3.83-13.96-7.17-13.94-7.48z" fill="#2a7fff"/><path d="M1527.96 540.33l.35-4.3c.03-.31 5.84 2.31 13.03 5.88l65 32.22c7.19 3.56 12.96 6.68 12.94 7l-.35 4.3c-.03.31-5.84-2.32-13.03-5.88l-65-32.22c-7.2-3.57-12.96-6.69-12.94-7z" fill="#fff"/><path d="M1502.12 527.52l.35-4.3c.03-.31 1.33.07 2.93.87l14.43 7.15c1.6.8 2.87 1.68 2.84 1.99l-.35 4.3c-.02.32-1.33-.08-2.93-.87l-14.43-7.16c-1.6-.78-2.86-1.67-2.84-1.98z" fill="#2a7fff"/><path d="M1453.31 697.7l.35-4.31c.02-.31 1.53.18 3.38 1.1l16.7 8.27c1.85.92 3.31 1.9 3.29 2.21l-.35 4.31c-.02.31-1.53-.18-3.38-1.1l-16.7-8.27c-1.84-.92-3.3-1.9-3.28-2.2zm19.37-240.31l.35-4.31c.02-.3 1.53.18 3.38 1.1l16.7 8.28c1.85.92 3.31 1.9 3.29 2.2l-.35 4.32c-.02.3-1.53-.19-3.38-1.1l-16.7-8.28c-1.84-.91-3.3-1.9-3.28-2.2z" fill="#fff"/><path d="M1496.38 598.73l.35-4.32c.03-.3 1.33.08 2.93.88l14.43 7.16c1.6.79 2.87 1.67 2.84 1.98l-.34 4.3c-.03.32-1.34-.07-2.94-.87l-14.43-7.16c-1.6-.78-2.86-1.67-2.84-1.97z" fill="#2a7fff"/><path d="M1494.95 616.53l.35-4.31c.02-.31 1.32.08 2.92.87l14.44 7.15c1.6.8 2.86 1.68 2.84 1.99l-.35 4.31c-.02.3-1.33-.08-2.93-.88l-14.43-7.15c-1.6-.79-2.86-1.68-2.84-1.98zm-2.87 35.6l.35-4.31c.02-.31 1.32.08 2.92.87l14.44 7.16c1.6.79 2.86 1.67 2.84 1.98l-.35 4.3c-.02.32-1.33-.07-2.93-.86l-14.43-7.16c-1.6-.8-2.86-1.68-2.84-1.98z" fill="#fff"/><path d="M1521.42 629.64l.34-4.3c.03-.31 3.37 1.09 7.48 3.13l37.21 18.44c4.12 2.04 7.41 3.93 7.39 4.24l-.35 4.31c-.02.31-3.36-1.08-7.48-3.13l-37.2-18.44c-4.12-2.04-7.42-3.94-7.4-4.25z" fill="#f55"/><path d="M1578.68 658.04l.34-4.31c.03-.31.82-.18 1.78.3l8.64 4.28c.96.48 1.7 1.1 1.68 1.41l-.34 4.31c-.03.31-.82.18-1.78-.3l-8.64-4.29c-.95-.47-1.7-1.1-1.68-1.4z" fill="#ffd42a"/><path d="M1508.18 567.55l.35-4.31c.02-.3 2.57.7 5.7 2.25l28.3 14.03c3.12 1.55 5.62 3.04 5.6 3.35l-.35 4.31c-.02.31-2.56-.7-5.7-2.25l-28.3-14.03c-3.12-1.55-5.62-3.04-5.6-3.35z" fill="#2a7fff"/><path d="M1552.1 589.33l.35-4.31c.03-.31 5.41 2.1 12.08 5.4l60.23 29.86c6.66 3.3 12.01 6.22 11.99 6.52l-.35 4.31c-.03.31-5.41-2.1-12.08-5.4l-60.23-29.86c-6.66-3.3-12.01-6.22-11.99-6.52z" fill="#f55"/><path d="M1506.75 585.35l.34-4.3c.03-.32 1.64.23 3.63 1.2l17.93 8.9c1.98.98 3.56 2.02 3.53 2.33l-.35 4.3c-.02.31-1.64-.23-3.62-1.21l-17.93-8.9c-1.98-.98-3.56-2.01-3.53-2.32z" fill="#ffd42a"/><path d="M1545.84 651.01l.34-4.31c.03-.3 3.73 1.27 8.3 3.54l41.36 20.5c4.58 2.27 8.24 4.35 8.22 4.65l-.35 4.31c-.02.31-3.72-1.27-8.3-3.54l-41.36-20.5c-4.58-2.27-8.24-4.34-8.22-4.65z" fill="#2a7fff"/><path d="M1501.72 647.65l.35-4.3c.03-.32 6.29 2.53 14.03 6.37l70.01 34.71c7.76 3.84 13.97 7.18 13.95 7.49l-.35 4.3c-.03.32-6.28-2.53-14.03-6.37l-70.01-34.71c-7.75-3.84-13.97-7.18-13.95-7.49z" fill="#f55"/><path d="M1529.94 652.39l.35-4.31c.03-.31 6.28 2.53 14.02 6.37l69.99 34.7c7.74 3.83 13.96 7.18 13.93 7.49l-.34 4.3c-.03.3-6.29-2.54-14.03-6.37l-69.98-34.7c-7.75-3.84-13.96-7.18-13.94-7.48z" fill="#2a7fff"/><path d="M1502.44 638.75l.35-4.3c.02-.32 1.64.23 3.62 1.2l17.93 8.9c1.98.98 3.56 2.02 3.54 2.33l-.35 4.31c-.03.3-1.65-.24-3.62-1.22l-17.93-8.9c-1.99-.97-3.56-2.01-3.54-2.32z" fill="#fff"/><path d="M1503.16 629.85l.35-4.31c.02-.3 2.49.66 5.52 2.16l27.44 13.6c3.04 1.51 5.46 2.98 5.44 3.28l-.35 4.3c-.02.32-2.49-.65-5.53-2.16l-27.43-13.6c-3.04-1.5-5.47-2.97-5.45-3.27z" fill="#2a7fff"/><path d="M1469.58 659.48l.35-4.3c.02-.32 1.26.04 2.77.8l13.66 6.77c1.51.74 2.71 1.6 2.69 1.9l-.35 4.3c-.03.32-1.26-.04-2.77-.79l-13.67-6.77c-1.51-.75-2.7-1.6-2.68-1.9zm-6.04 34.03l.35-4.3c.02-.32 1.85.33 4.08 1.44l20.23 10.03c2.23 1.1 4.02 2.25 4 2.55l-.35 4.31c-.03.31-1.85-.34-4.09-1.44l-20.22-10.03c-2.24-1.1-4.02-2.25-4-2.56zm28.19-23.05l.35-4.3c.02-.32 5.48 2.14 12.25 5.5l61.14 30.3c6.77 3.36 12.2 6.3 12.17 6.61l-.35 4.31c-.03.31-5.5-2.14-12.26-5.5l-61.13-30.3c-6.77-3.36-12.2-6.3-12.17-6.62z" fill="#fff"/><path d="M1487.77 677.75l.34-4.3c.03-.32 3.02.92 6.71 2.74l33.35 16.53c3.7 1.83 6.64 3.55 6.61 3.86l-.34 4.31c-.03.3-3.02-.91-6.71-2.75l-33.34-16.53c-3.7-1.83-6.65-3.55-6.62-3.86zm50.24 24.91l.34-4.3c.03-.31 5.43 2.1 12.1 5.42l60.37 29.92c6.68 3.31 12.04 6.23 12.01 6.53l-.35 4.31c-.02.31-5.42-2.1-12.1-5.42l-60.36-29.92c-6.68-3.32-12.04-6.23-12.01-6.54z" fill="#f55"/><path d="M1626.05 746.32l.35-4.31c.03-.31 1.57.2 3.47 1.14l17.13 8.5c1.9.93 3.41 1.94 3.39 2.24l-.35 4.31c-.03.31-1.57-.2-3.47-1.14l-17.14-8.5c-1.9-.93-3.4-1.94-3.38-2.24z" fill="#ffd42a"/><path d="M1487.05 686.65l.35-4.3c.02-.31 4.8 1.8 10.71 4.73l53.42 26.48c5.91 2.93 10.65 5.54 10.63 5.85l-.35 4.31c-.02.3-4.8-1.8-10.72-4.73l-53.41-26.49c-5.91-2.93-10.66-5.54-10.63-5.84z" fill="#2a7fff"/><path d="M1567 726.29l.34-4.31c.03-.3 1.57.2 3.47 1.14l17.14 8.5c1.9.94 3.4 1.94 3.38 2.25l-.35 4.31c-.03.3-1.57-.2-3.47-1.14l-17.14-8.5c-1.9-.94-3.4-1.94-3.38-2.25z" fill="#ffd42a"/><path d="M1515.49 710.01l.35-4.3c.02-.32 6.27 2.52 14.02 6.36l69.98 34.7c7.74 3.84 13.96 7.18 13.93 7.49l-.34 4.3c-.03.31-6.28-2.53-14.03-6.37l-69.98-34.7c-7.74-3.83-13.96-7.17-13.93-7.48z" fill="#fff"/><path d="M1486.07 695.43l.35-4.31c.03-.31 1.65.23 3.63 1.22l17.92 8.89c1.99.98 3.56 2.02 3.54 2.32l-.35 4.32c-.02.3-1.64-.24-3.62-1.22l-17.93-8.89c-1.98-.98-3.56-2.02-3.54-2.33z" fill="#ffd42a"/><g fill="#fff"><path opacity=".6" d="M1458.49 459.66l.35-4.35c.02-.3.65-.25 1.4.12l6.85 3.39c.76.38 1.35.93 1.32 1.24l-.35 4.35c-.02.3-.65.25-1.41-.12l-6.85-3.4c-.75-.37-1.34-.92-1.31-1.23zm-.72 8.9l.35-4.34c.02-.31.65-.26 1.4.12l6.85 3.39c.76.37 1.35.93 1.33 1.24l-.35 4.34c-.03.31-.66.26-1.42-.12l-6.84-3.39c-.76-.38-1.35-.92-1.32-1.24zm-.72 8.9l.35-4.34c.03-.3.66-.25 1.4.12l6.85 3.4c.76.37 1.35.92 1.33 1.23l-.35 4.35c-.03.31-.66.25-1.42-.12l-6.84-3.4c-.75-.37-1.34-.92-1.32-1.23zm-.72 8.91l.35-4.34c.03-.31.66-.25 1.41.12l6.85 3.4c.76.37 1.35.92 1.32 1.23l-.35 4.35c-.03.3-.66.25-1.41-.13l-6.85-3.38c-.75-.38-1.34-.93-1.32-1.25zm-.72 8.91l.35-4.34c.03-.32.66-.26 1.41.11l6.85 3.4c.76.38 1.35.92 1.32 1.24l-.35 4.34c-.02.31-.65.26-1.41-.12l-6.85-3.39c-.75-.38-1.34-.93-1.32-1.24zm-.71 8.91l.35-4.35c.02-.31.65-.25 1.4.12l6.85 3.4c.76.37 1.35.92 1.32 1.23l-.35 4.35c-.02.3-.65.25-1.4-.13l-6.85-3.38c-.76-.38-1.35-.93-1.32-1.24zm-.72 8.9l.35-4.34c.02-.31.65-.26 1.4.12l6.85 3.39c.76.38 1.35.93 1.33 1.24l-.35 4.34c-.03.32-.66.26-1.42-.12l-6.84-3.39c-.76-.37-1.35-.92-1.32-1.23zm-.72 8.91l.35-4.35c.03-.3.66-.25 1.41.12l6.85 3.4c.75.37 1.34.92 1.32 1.24l-.35 4.34c-.03.31-.66.25-1.42-.12l-6.84-3.4c-.75-.37-1.34-.92-1.32-1.23zm-.72 8.9l.35-4.34c.03-.3.66-.26 1.41.12l6.85 3.4c.76.37 1.35.92 1.32 1.23l-.35 4.34c-.02.32-.65.26-1.41-.11l-6.85-3.4c-.75-.37-1.34-.92-1.32-1.23zm-.71 8.92l.35-4.35c.02-.31.65-.26 1.4.12l6.85 3.39c.76.38 1.35.92 1.32 1.24l-.35 4.34c-.02.31-.65.26-1.41-.12l-6.85-3.39c-.75-.37-1.34-.93-1.31-1.24zm-.72 8.9l.35-4.35c.02-.3.65-.25 1.4.12l6.85 3.4c.76.37 1.35.92 1.33 1.23l-.36 4.35c-.02.3-.65.26-1.4-.12l-6.85-3.4c-.76-.37-1.35-.92-1.32-1.23zm-.72 8.9l.35-4.34c.02-.3.66-.26 1.4.12l6.85 3.39c.76.38 1.35.93 1.33 1.24l-.35 4.34c-.03.31-.66.26-1.42-.11l-6.84-3.4c-.76-.37-1.35-.92-1.32-1.24zm-.72 8.91l.35-4.34c.03-.31.66-.26 1.41.12l6.85 3.39c.75.37 1.34.93 1.32 1.24l-.35 4.34c-.03.31-.66.26-1.41-.12l-6.85-3.4c-.75-.37-1.34-.91-1.32-1.23zm-1.43 17.81l.35-4.34c.02-.31.65-.25 1.4.12l6.85 3.4c.76.36 1.35.92 1.32 1.23l-.35 4.34c-.02.31-.65.26-1.41-.11l-6.85-3.4c-.75-.37-1.34-.92-1.31-1.24zm-7.9 97.97l.35-4.34c.03-.31.66-.26 1.4.11l6.85 3.4c.76.37 1.35.93 1.33 1.24l-.35 4.34c-.03.31-.66.26-1.42-.12l-6.84-3.39c-.76-.37-1.35-.92-1.32-1.24zm18.66-231.56l.35-4.35c.03-.3.66-.25 1.41.12l6.85 3.4c.76.37 1.35.92 1.32 1.23l-.35 4.35c-.02.3-.65.26-1.41-.12l-6.85-3.4c-.75-.37-1.34-.92-1.32-1.23zm-19.38 240.47l.35-4.34c.03-.32.66-.26 1.41.11l6.85 3.4c.75.37 1.34.92 1.32 1.23l-.35 4.35c-.03.31-.66.26-1.41-.12l-6.85-3.39c-.75-.38-1.34-.93-1.32-1.24zm9.33-115.78l.35-4.35c.03-.3.66-.25 1.41.12l6.85 3.4c.76.37 1.35.92 1.32 1.23l-.35 4.35c-.02.3-.65.25-1.41-.12l-6.85-3.4c-.75-.37-1.34-.92-1.32-1.23zm-7.9 97.97l.36-4.35c.02-.3.65-.25 1.4.12l6.85 3.39c.76.38 1.35.93 1.33 1.24l-.35 4.35c-.03.3-.66.25-1.42-.12l-6.84-3.4c-.76-.37-1.35-.92-1.32-1.23zm.73-8.9l.35-4.35c.02-.31.65-.26 1.4.12l6.85 3.38c.76.38 1.35.94 1.32 1.25l-.35 4.34c-.02.31-.65.26-1.41-.12l-6.85-3.4c-.75-.37-1.34-.91-1.31-1.23zm.71-8.91l.35-4.35c.03-.31.66-.26 1.41.12l6.85 3.39c.76.38 1.35.93 1.32 1.24l-.35 4.35c-.02.3-.65.25-1.41-.13l-6.85-3.39c-.75-.37-1.34-.92-1.32-1.24zm.72-8.9l.35-4.36c.03-.3.66-.25 1.41.12l6.85 3.4c.75.37 1.34.92 1.32 1.23l-.35 4.35c-.03.3-.66.26-1.42-.12l-6.84-3.4c-.75-.37-1.34-.92-1.32-1.23zm.72-8.92l.35-4.34c.02-.31.65-.26 1.4.12l6.85 3.39c.76.37 1.35.92 1.33 1.24l-.35 4.34c-.03.31-.66.26-1.42-.12l-6.84-3.39c-.76-.37-1.35-.93-1.32-1.24zm.72-8.9l.35-4.35c.02-.3.65-.26 1.4.12l6.85 3.39c.76.38 1.35.93 1.32 1.24l-.35 4.34c-.02.32-.65.26-1.41-.11l-6.84-3.4c-.76-.37-1.35-.92-1.32-1.23zm.71-8.9l.36-4.36c.02-.3.65-.25 1.4.12l6.85 3.4c.76.37 1.35.92 1.32 1.24l-.35 4.34c-.02.31-.65.25-1.41-.12l-6.85-3.4c-.75-.37-1.34-.92-1.32-1.23zm.72-8.91l.35-4.35c.03-.31.66-.26 1.41.12l6.85 3.39c.76.38 1.35.93 1.32 1.24l-.35 4.34c-.03.32-.66.26-1.41-.12l-6.85-3.39c-.75-.37-1.34-.93-1.32-1.23zm.72-8.91l.35-4.35c.03-.31.66-.25 1.41.12l6.84 3.4c.76.37 1.35.92 1.33 1.23l-.35 4.35c-.03.3-.66.25-1.42-.13l-6.84-3.38c-.75-.38-1.34-.93-1.32-1.24zm.72-8.9l.35-4.35c.02-.32.65-.26 1.4.11l6.85 3.4c.76.38 1.35.92 1.33 1.23l-.35 4.35c-.03.31-.66.26-1.42-.12l-6.84-3.39c-.76-.38-1.35-.93-1.32-1.24zM1386.73 441.77l10.02 4.97-.62 7.72-10.03-4.97zm13.62 8.56l27.26 13.52-.34 4.24-27.27-13.52zm-4.93-15.52l27.26 13.52-.34 4.24-27.26-13.52zm-13.34-8.67l10.03 4.97-.63 7.72-10.02-4.97zm10.87-6.02l20.24 10.03-.34 4.24-20.24-10.03zm-13.88-8.8l10.02 4.97-.62 7.72-10.03-4.97zm20.24 51.82l34.83 17.27-.34 4.24-34.83-17.27zm-13.62-8.56l10.03 4.97-.63 7.72-10.02-4.97zm12.6 21.38l27.26 13.52-.35 4.24-27.26-13.52zm-13.63-8.57l10.02 4.97-.62 7.72-10.02-4.97zm6.62 18.71l45.1 22.36-.35 4.24-45.09-22.36zm-13.33-8.7l10.03 4.96-.63 7.72-10.02-4.97zm8.83 19.32l40.23 19.95-.34 4.24-40.24-19.95zm-13.91-8.52l10.02 4.97-.62 7.72-10.02-4.97zm12.86 21.5l27.26 13.53-.34 4.24-27.26-13.52zm-13.9-8.69l10.03 4.97-.62 7.72-10.03-4.97z"/></g></g><g transform="matrix(.62797 .069 0 .6252 725.04 93.04)"><rect transform="skewY(15.49) scale(.96367 1)" ry="50.05" rx="26.12" fill="#e44d26" y="54.01" x="788.57" height="218.62" width="222.49"/><rect transform="skewY(15) scale(.96593 1)" ry="50.05" rx="26.1" fill="#f16529" y="81.49" x="784.54" height="199.66" width="206.7"/><path d="M791.9 320.65L857.5 338v26.12l-36.94-9.76 2.42 27.4 34.53 9.12v26.07l-58.47-15.45m1.15 13.42l26.24 6.94 1.84 21.37 29.24 15.56v27.27l-53.64-29.13" fill="#ebebeb"/><path d="M922.88 355.26l-65.49-17.3v26.12l63.07 16.67m-2.36 26.13l-60.71-16.04v26.13l32.23 8.51-3.05 33.15-29.18.11v27.17l53.52-.7" fill="#fff"/></g><g transform="matrix(.6691 .15571 0 .6691 1007.9 -22.58)"><rect transform="skewY(15.49) scale(.96367 1)" ry="46.76" rx="24.36" fill="#264de4" y="50.19" x="506.77" height="218.62" width="222.49"/><rect transform="skewY(15) scale(.96593 1)" ry="46.76" rx="24.38" fill="#2965f1" y="75.17" x="503.4" height="199.66" width="206.7"/><path d="M528.04 297.11l2.35 26.74 58.58 15.7v-26.12zm60.92-36.53L523.33 243l2.38 26.75 63.25 16.95zm0 147.83v-27.17h-.1L559.7 365.6l-1.87-21.33-26.28-7.04 3.67 41.98 53.62 29.21z" fill="#ebebeb"/><path d="M621.1 348.16l-3.03 33.05-29.2.04v27.17l53.67-.47.39-4.3 6.15-67.1.64-6.84 4.72-51.58-65.57-17.57v26.11l36.89 9.88-2.38 26.1-34.5-9.24v26.11z" fill="#fff"/></g><g transform="matrix(.65512 .09628 .01704 .64838 1370.63 -92.58)"><rect transform="skewY(15.49) scale(.96367 1)" ry="48.09" rx="25.11" fill="#c4b008" y="297.97" x="497.89" height="218.62" width="222.49"/><rect transform="skewY(15) scale(.96593 1)" ry="48.09" rx="25.11" fill="#f7df1e" y="322.87" x="494.55" height="199.66" width="206.7"/><path d="M594.74 604.54c4.27 9.42 9.81 16.98 19.62 19.61 8.23 2.21 13.5-1.28 13.5-8.04 0-8.11-5.41-12.43-14.48-19.58l-4.97-3.87c-14.35-11.11-23.88-22.77-23.88-42.02 0-17.74 11.37-28.2 29.12-23.44 12.64 3.39 21.73 11.06 28.28 26.51l-15.48 7.68c-3.41-8.19-7.09-12.04-12.8-13.57-5.82-1.56-9.51 1.85-9.51 7.59 0 7.1 3.7 10.95 12.22 17.63l4.97 3.87c16.9 13.14 26.43 24.48 26.43 44.23 0 21.29-14.06 29.18-32.94 24.12-18.47-4.95-30.4-18.6-36.23-33.89zm-70.23-16.77c3.12 7.43 5.96 13.76 12.8 15.59 6.53 1.75 10.65-.19 10.65-12v-80.41l19.88 5.33V597c0 24.49-12.07 32.4-29.69 27.68-15.92-4.27-25.14-16.54-29.82-29.6z"/></g></g><g transform="translate(51.03 -16.26)"><rect transform="skewY(26.16) scale(.89754 1)" ry="31.29" rx="17.79" y="-372.58" x="1628.23" height="161.23" width="176.17"/><rect transform="skewY(25.74) scale(.9008 1)" ry="31.29" rx="17.78" fill="#1a1a1a" y="-344.01" x="1620.62" height="147.24" width="163.46"/><g transform="matrix(.04112 .01982 0 .03981 1460.34 359.52)" stroke-width="153.23"><circle fill="#00d8ff" r="302.6" cy="1807.1" cx="1806.5"/><g stroke-width="144.75" stroke-miterlimit="10" stroke="#00d8ff" fill="none"><path d="M1806.5 1191.9c406.2 0 783.6 58.3 1068.1 156.2 342.8 118 553.6 296.9 553.6 458.9 0 168.8-223.4 358.9-591.5 480.8-278.3 92.2-644.6 140.4-1030.2 140.4-395.4 0-769.7-45.2-1051.2-141.4-356.1-121.7-570.6-314.2-570.6-479.8 0-160.7 201.3-338.2 539.3-456 285.6-99.5 672.3-159.1 1082.5-159.1z"/><path d="M1322.74 1501.3c202.9-351.9 442-649.7 669-847.2 273.5-238 533.8-331.2 674.1-250.3 146.2 84.3 199.3 372.8 121 752.7-59.2 287.2-200.4 628.5-393.1 962.6-197.5 342.5-423.7 644.2-647.6 840-283.3 247.7-557.3 337.3-700.7 254.6-139.2-80.3-192.4-343.3-125.7-695 56.4-297.4 198-662.1 403-1017.4z"/><path d="M1271.5 2116.66c-203.5-351.6-342.1-707.4-399.9-1002.7-69.6-355.8-20.4-627.9 119.8-709 146.1-84.6 422.5 13.5 712.5 271 219.3 194.7 444.4 487.5 637.6 821.3 198.1 342.2 346.6 688.8 404.3 980.5 73.1 369.2 13.9 651.3-129.4 734.2-139.1 80.5-393.5-4.7-664.9-238.2-229.2-197.3-474.5-502.1-680-857.1z"/></g></g></g><g transform="matrix(.77873 .07786 0 .77873 1165.8 -213.84)" stroke-width="0"><rect transform="skewY(15.49) scale(.96367 1)" ry="40.18" rx="21.98" fill="#81c564" y="586.43" x="776.99" height="218.62" width="222.49"/><rect transform="skewY(15) scale(.96593 1)" ry="40.18" rx="21.98" fill="#412f1f" y="613.8" x="773" height="199.66" width="206.7"/><path d="M847.93 853.56c-2.09-11.43-.71 157.6-.71 157.6s45.72-9.02 46.03-60.67c.38-64.63-47.1-84.95-45.32-96.93z" fill="#529848"/><path d="M847.24 853.55c.18-2.44.3 157.87.3 157.87s-50.45-34.18-47.94-85.2c1.41-61.53 35.1-57.23 47.64-72.67z" fill="#7cb969"/><path transform="matrix(.61182 .16394 0 .5018 77.3 343.54)" d="M1255.1 954.77s.8-33.21-4.58-40.17c5.53-21.18 6.33-14.7 6.33-37 0-15.65 3.47 31 12.17 33.37-3 6.96-5.7 30.99-4.1 46.64.15 3-6.34-2.53-9.81-2.84z" fill="url(#e)"/></g><path d="M1346.35 824.67l21.4 10.82-23.09 15.2-21.14-10.69z"/></svg>